<svg width="145" height="112" viewBox="0 0 145 112" fill="none" xmlns="http://www.w3.org/2000/svg">
<path d="M122.063 9.34168C112.736 4.9776 102.762 1.80583 92.3351 0C91.0544 2.31516 89.5584 5.42906 88.527 7.90628C77.4427 6.23936 66.4604 6.23936 55.5801 7.90628C54.5487 5.42906 53.0187 2.31516 51.7267 0C41.2884 1.80583 31.3034 4.98917 21.9758 9.36483C3.16198 37.795 -1.93816 65.5191 0.611908 92.8496C13.0903 102.168 25.1833 107.829 37.0723 111.533C40.0077 107.493 42.6257 103.198 44.8811 98.6722C40.5857 97.04 36.4716 95.0258 32.5841 92.6875C33.6155 91.9235 34.6242 91.1248 35.5989 90.3029C59.3089 101.393 85.0702 101.393 108.497 90.3029C109.483 91.1248 110.492 91.9235 111.512 92.6875C107.613 95.0374 103.487 97.0516 99.192 98.6838C101.447 103.198 104.054 107.505 107.001 111.545C118.901 107.84 131.006 102.18 143.484 92.8496C146.476 61.1666 138.372 33.6972 122.063 9.34168ZM48.1112 76.0415C40.9937 76.0415 35.1569 69.397 35.1569 61.3055C35.1569 53.214 40.869 46.5579 48.1112 46.5579C55.3534 46.5579 61.1903 53.2024 61.0656 61.3055C61.0769 69.397 55.3534 76.0415 48.1112 76.0415ZM95.9845 76.0415C88.867 76.0415 83.0302 69.397 83.0302 61.3055C83.0302 53.214 88.7423 46.5579 95.9845 46.5579C103.227 46.5579 109.064 53.2024 108.939 61.3055C108.939 69.397 103.227 76.0415 95.9845 76.0415Z" fill="#454545"/>
</svg>
