<svg width="147" height="96" viewBox="0 0 147 96" fill="none" xmlns="http://www.w3.org/2000/svg">
<path d="M73.4983 43.005L139.391 1.9202C137.274 0.738539 134.885 0 132.298 0H14.698C12.1108 0 9.7147 0.738539 7.60526 1.9202L73.4983 43.005Z" fill="#454545"/>
<path d="M77.3735 57.9654C76.1901 58.7039 74.845 59.0806 73.5 59.0806C72.1549 59.0806 70.8099 58.7039 69.6265 57.9728L0.0220502 14.5691C0.0220502 14.6356 0 14.7021 0 14.7612V81.2293C0 89.3679 6.59295 96 14.7 96H132.3C140.407 96 147 89.3679 147 81.2293V14.7612C147 14.6947 146.978 14.6282 146.978 14.5617L77.3735 57.9654Z" fill="#454545"/>
</svg>
