<svg width="169" height="138" viewBox="0 0 169 138" fill="none" xmlns="http://www.w3.org/2000/svg">
<g clip-path="url(#clip0_0_109)">
<g style="mix-blend-mode:multiply" opacity="0.4">
<path d="M112.683 129.99C112.683 134.415 96.0874 138 75.6127 138C55.138 138 38.5427 134.415 38.5427 129.99C38.5427 125.564 55.138 121.979 75.6127 121.979C96.0874 121.979 112.683 125.564 112.683 129.99Z" fill="#454545"/>
</g>
<path d="M150.501 47.7975L131.96 108.085C130.38 113.225 124.89 116.131 119.765 114.546L7.17222 79.7124C2.04756 78.1272 -0.850031 72.6209 0.730472 67.4809L19.2714 7.19368C20.8519 2.05365 26.3418 -0.85262 31.4665 0.73262L144.059 35.5719C149.184 37.1571 152.082 42.6634 150.501 47.8035V47.7975Z" fill="#454545" stroke="black" stroke-miterlimit="10"/>
<path d="M150.501 47.7974L145.376 64.4605L14.1467 23.8627L19.2714 7.19964C20.8519 2.05362 26.3417 -0.852659 31.4664 0.732582L144.059 35.5718C149.184 37.1571 152.081 42.6634 150.501 47.8034V47.7974Z" fill="#454545" stroke="black" stroke-miterlimit="10"/>
<path d="M134.283 26.2406L132.511 31.9991L120.705 28.3482L122.477 22.5897C122.633 22.0793 123.184 21.7851 123.698 21.9412L133.642 25.0156C134.157 25.1717 134.445 25.7242 134.289 26.2406H134.283Z" fill="#454545" stroke="black" stroke-miterlimit="10"/>
<path d="M55.1441 15.0239C56.6827 15.4982 57.5507 17.1495 57.0778 18.6927L54.713 26.3848C54.2401 27.928 52.5937 28.7986 51.0551 28.3243L32.6997 22.6438C31.1611 22.1695 30.2931 20.5182 30.766 18.975L33.1308 11.2829C33.6037 9.73973 35.2501 8.86905 36.7887 9.34342L55.1441 15.0239Z" fill="#454545" stroke="black" stroke-miterlimit="10"/>
<g style="mix-blend-mode:multiply" opacity="0.4">
<path d="M55.3955 24.157L54.713 26.3847C54.2401 27.9279 52.5937 28.7986 51.0551 28.3242L32.6997 22.6438C31.1611 22.1694 30.2931 20.5181 30.766 18.9749L31.4485 16.7532C30.9755 18.2964 31.8436 19.9477 33.3822 20.422L51.7376 26.1025C53.2762 26.5769 54.9225 25.7062 55.3955 24.163V24.157Z" fill="#454545"/>
<path d="M55.3955 24.157L54.713 26.3847C54.2401 27.9279 52.5937 28.7986 51.0551 28.3242L32.6997 22.6438C31.1611 22.1694 30.2931 20.5181 30.766 18.9749L31.4485 16.7532C30.9755 18.2964 31.8436 19.9477 33.3822 20.422L51.7376 26.1025C53.2762 26.5769 54.9225 25.7062 55.3955 24.163V24.157Z" stroke="black" stroke-miterlimit="10"/>
</g>
<path d="M50.9114 28.7866L32.55 23.1062C30.754 22.5477 29.7422 20.6322 30.293 18.8248L32.6578 11.1328C33.2145 9.33137 35.1243 8.31658 36.9263 8.86901L55.2817 14.5495C57.0777 15.1019 58.0895 17.0234 57.5387 18.8308L55.1739 26.5228C54.6172 28.3242 52.7074 29.339 50.9054 28.7866H50.9114ZM36.6449 9.80574C35.3638 9.40943 33.9928 10.13 33.5977 11.421L31.2329 19.113C30.8378 20.398 31.5622 21.7731 32.8434 22.1694L51.1987 27.8499C52.4859 28.2462 53.8509 27.5196 54.246 26.2346L56.6108 18.5426C57.0059 17.2516 56.2815 15.8825 55.0003 15.4862L36.639 9.80574H36.6449Z" fill="#454545" stroke="black" stroke-miterlimit="10"/>
<path d="M48.2592 15.6363L38.842 20.6262C38.5307 20.7943 38.1356 20.6683 37.9739 20.356C37.8063 20.0378 37.926 19.6474 38.2433 19.4793L47.6605 14.4894C47.9778 14.3213 48.3669 14.4414 48.5346 14.7596C48.7022 15.0779 48.5825 15.4682 48.2652 15.6363H48.2592Z" fill="#454545" stroke="black" stroke-miterlimit="10"/>
<path d="M49.6001 18.1763L40.1889 23.1663C39.8716 23.3344 39.4825 23.2143 39.3209 22.896C39.1532 22.5778 39.273 22.1875 39.5903 22.0194L49.0074 17.0295C49.3187 16.8613 49.7139 16.9814 49.8755 17.2997C50.0431 17.6179 49.9234 18.0082 49.6061 18.1763H49.6001Z" fill="#454545" stroke="black" stroke-miterlimit="10"/>
<path d="M15.422 19.7135L15.9967 17.846C12.4286 16.7411 8.63304 18.7527 7.53747 22.3315C6.44189 25.9043 8.44147 29.7113 12.0096 30.8162L12.5843 28.9487C10.0519 28.1681 8.62107 25.448 9.39935 22.908C10.1776 20.362 12.8896 18.9269 15.422 19.7135Z" fill="#454545" stroke="black" stroke-miterlimit="10"/>
<path d="M67.8479 26.2346C67.2073 28.3242 64.9922 29.5011 62.9088 28.8526C60.8254 28.2041 59.658 25.9884 60.2986 23.8987C60.9452 21.8091 63.1543 20.6322 65.2377 21.2807C67.321 21.9232 68.4944 24.1449 67.8479 26.2346Z" fill="#454545" stroke="black" stroke-miterlimit="10"/>
<path d="M77.8699 29.3329C77.2293 31.4226 75.0142 32.5935 72.9308 31.951C70.8474 31.3085 69.674 29.0868 70.3206 26.9971C70.9612 24.9075 73.1763 23.7366 75.2596 24.3791C77.343 25.0216 78.5105 27.2433 77.8699 29.3329Z" fill="#454545" stroke="black" stroke-miterlimit="10"/>
<path d="M63.6092 75.6713L13.0751 60.0411C11.8897 59.6748 11.2311 58.4198 11.5963 57.2309C11.9615 56.048 13.2128 55.3814 14.3981 55.7477L64.9263 71.384C66.1057 71.7503 66.7702 73.0052 66.405 74.1942C66.0398 75.3831 64.7886 76.0436 63.6032 75.6773L63.6092 75.6713Z" fill="#454545" stroke="black" stroke-miterlimit="10"/>
<path d="M16.8859 56.5049L2.92993 101.893L48.4852 115.984L62.4411 70.5964L16.8859 56.5049Z" fill="#454545" stroke="black" stroke-miterlimit="10"/>
<path d="M20.3864 57.5961L7.55615 99.323L46.0976 111.245L58.9279 69.5181L20.3864 57.5961Z" fill="#454545" stroke="black" stroke-miterlimit="10"/>
<g style="mix-blend-mode:multiply" opacity="0.3">
<path d="M16.8906 56.5089L15.5691 60.8066L61.1243 74.8982L62.4458 70.6004L16.8906 56.5089Z" fill="#454545"/>
<path d="M16.8906 56.5089L15.5691 60.8066L61.1243 74.8982L62.4458 70.6004L16.8906 56.5089Z" stroke="black" stroke-miterlimit="10"/>
</g>
<g style="mix-blend-mode:multiply" opacity="0.3">
<path d="M75.0656 57.4623L62.9216 96.957L117.899 113.963L130.043 74.4684L75.0656 57.4623Z" fill="#454545"/>
<path d="M75.0656 57.4623L62.9216 96.957L117.899 113.963L130.043 74.4684L75.0656 57.4623Z" stroke="black" stroke-miterlimit="10"/>
</g>
<path d="M130.05 74.4764C125.369 89.7043 109.264 98.243 94.0819 93.5413C78.8995 88.8456 70.3924 72.693 75.074 57.4651C79.7556 42.2371 95.86 33.6985 111.042 38.4001C126.225 43.0958 134.732 59.2485 130.05 74.4764Z" fill="#454545" stroke="black" stroke-miterlimit="10"/>
<path d="M121.064 71.6962C117.915 81.9462 107.073 87.6867 96.8537 84.5283C86.6343 81.3638 80.911 70.4953 84.06 60.2453C87.2091 49.9952 98.0511 44.2547 108.27 47.4132C118.49 50.5717 124.213 61.4462 121.064 71.6962Z" fill="#454545" stroke="black" stroke-miterlimit="10"/>
<path d="M109.073 74.1281L92.6092 69.0361C89.5201 68.0814 87.7899 64.7968 88.7418 61.6984C89.6937 58.5999 92.9684 56.8646 96.0576 57.8193L112.521 62.9113C115.61 63.8661 117.34 67.1506 116.389 70.2491C115.437 73.3475 112.162 75.0828 109.073 74.1281Z" fill="#454545" stroke="black" stroke-miterlimit="10"/>
<path d="M106.852 67.3008C106.121 69.6786 103.607 71.0117 101.236 70.2791C98.8654 69.5465 97.5364 67.0246 98.2668 64.6467C98.9971 62.2688 101.512 60.9358 103.882 61.6684C106.253 62.4009 107.582 64.9229 106.852 67.3008Z" fill="#454545" stroke="black" stroke-miterlimit="10"/>
<g style="mix-blend-mode:multiply">
<path d="M105.068 66.7483C104.643 68.1354 103.176 68.916 101.793 68.4837C100.41 68.0574 99.6317 66.5862 100.063 65.1931C100.488 63.806 101.955 63.0254 103.338 63.4578C104.72 63.8841 105.499 65.3552 105.068 66.7423V66.7483Z" fill="#454545"/>
<path d="M105.068 66.7483C104.643 68.1354 103.176 68.916 101.793 68.4837C100.41 68.0574 99.6317 66.5862 100.063 65.1931C100.488 63.806 101.955 63.0254 103.338 63.4578C104.72 63.8841 105.499 65.3552 105.068 66.7423V66.7483Z" stroke="black" stroke-miterlimit="10"/>
</g>
<path d="M108.857 66.8684C108.396 68.3696 106.81 69.2103 105.313 68.7479C103.816 68.2856 102.978 66.6943 103.439 65.1931C103.9 63.692 105.487 62.8513 106.983 63.3137C108.48 63.776 109.318 65.3673 108.857 66.8684Z" fill="#454545" stroke="black" stroke-miterlimit="10"/>
<path d="M95.2673 89.6922C82.2282 85.6571 74.8944 71.7382 78.9175 58.66C82.9406 45.5817 96.8179 38.226 109.857 42.2611C122.896 46.2963 130.23 60.2152 126.207 73.2934C122.184 86.3716 108.306 93.7274 95.2673 89.6922ZM109.641 42.9637C96.9915 39.0486 83.5213 46.1882 79.6179 58.8821C75.7146 71.5701 82.8328 85.0806 95.4828 88.9957C108.133 92.9108 121.603 85.7712 125.506 73.0772C129.41 60.3893 122.292 46.8787 109.636 42.9637H109.641Z" fill="#454545" stroke="black" stroke-miterlimit="10"/>
<g style="mix-blend-mode:multiply" opacity="0.4">
<path d="M121.058 71.7022C120.837 72.4287 120.573 73.1373 120.268 73.8098C122.058 64.2383 116.442 54.6608 106.948 51.7245C97.4585 48.7882 87.4307 53.526 83.5393 62.4429C83.659 61.7104 83.8446 60.9838 84.0721 60.2512C87.2271 49.9952 98.0632 44.2547 108.277 47.4132C118.502 50.5776 124.219 61.4462 121.064 71.6962L121.058 71.7022Z" fill="#454545"/>
<path d="M121.058 71.7022C120.837 72.4287 120.573 73.1373 120.268 73.8098C122.058 64.2383 116.442 54.6608 106.948 51.7245C97.4585 48.7882 87.4307 53.526 83.5393 62.4429C83.659 61.7104 83.8446 60.9838 84.0721 60.2512C87.2271 49.9952 98.0632 44.2547 108.277 47.4132C118.502 50.5776 124.219 61.4462 121.064 71.6962L121.058 71.7022Z" stroke="black" stroke-miterlimit="10"/>
</g>
<path d="M156.152 41.6066C155.584 41.6066 155.057 41.2343 154.883 40.6579C154.674 39.9493 155.069 39.2108 155.775 38.9946L164.606 36.3225C165.306 36.1123 166.049 36.5086 166.264 37.2172C166.474 37.9197 166.078 38.6643 165.372 38.8805L156.542 41.5526C156.416 41.5886 156.284 41.6066 156.158 41.6066H156.152Z" fill="#454545"/>
<path d="M154.093 34.7612C153.734 34.7612 153.375 34.6171 153.111 34.3289C152.614 33.7824 152.656 32.9418 153.195 32.4434L160.266 25.9643C160.81 25.4659 161.648 25.508 162.145 26.0484C162.642 26.5888 162.6 27.4355 162.062 27.9339L154.991 34.4129C154.734 34.6471 154.416 34.7612 154.093 34.7612Z" fill="#454545"/>
<path d="M167.671 49.923C167.605 49.923 167.533 49.923 167.468 49.905L158.009 48.4278C157.284 48.3137 156.787 47.6352 156.901 46.9026C157.015 46.1761 157.697 45.6777 158.422 45.7918L167.887 47.2689C168.611 47.383 169.108 48.0616 168.994 48.7881C168.892 49.4486 168.324 49.917 167.683 49.917L167.671 49.923Z" fill="#454545"/>
</g>
<defs>
<clipPath id="clip0_0_109">
<rect width="169" height="138" fill="white"/>
</clipPath>
</defs>
</svg>
