<svg version="1.2" xmlns="http://www.w3.org/2000/svg" viewBox="0 0 446 404" width="446" height="404"><style>.a{fill:#732c2c}.b{fill:#fff}.c{fill:#d1d6d0}.d{fill:#464646}.e{fill:#414141}</style><path class="a" d="m344.9 101.8c-4.1 3.4-4.9 9.5-1.9 13.9 0.5 0.6 45.8 66.2 71.1 152.2 1.6 5.4 7.2 8.4 12.5 6.7 5.3-1.7 8.3-7.5 6.7-12.8-26.2-89.4-71.9-155.4-73.9-158.2-3.2-4.5-9.4-5.5-14-2.2q-0.3 0.2-0.5 0.4z"/><path class="b" d="m336 116.8c-1.6-0.5-8-1.3-10.5-2.3-2.6-1.1-12.2-5.2-15.1-7.1-2.9-1.9-9-4.8-13.1-4.3-4.1 0.5-8.8 3.7-11.6 3.9-2.7 0.1-8.4-0.8-10.7-6.7-2.3-6-0.4-10.8 0.7-12.5 1.1-1.7 6.6-7.1 10.6-6.8 4.1 0.3 9.5 3.4 12.1 4.1 2.5 0.8 6.3 1.8 8.1 0.9 1.9-1 3-2 2.8-3.1-0.3-1.1-0.9-4.9-2.7-7.4-1.8-2.5-7.1-8.6-10.7-10.7-3.5-2.1-14.1-8.6-16.9-11.8-2.7-3.3-4.5-8.4-3.3-12.3 1.2-3.9 6.1-10.2 13.5-9-0.2-3.5 4.1-8.3 7.1-9.6 2.9-1.2 8.7-2.8 11.9-0.8 0.7-0.8 2.9-4.9 6.6-5.4 3.6-0.5 9.5-0.9 14.8 7.5 5.2 8.3 9.6 20.2 12.6 24.2 3 4 20.7 26.3 22.7 37.9 2 11.7-0.3 10.7-0.3 10.7 0 0 1.6-0.9 3.8-0.7 2.2 0.3 4.2 0.7 4.7 2.5 0.6 1.8 0.5 8.1-9.4 17.7-10 9.6-24.4 14.7-27.4 12.4-3-2.4-0.4-6.8 0.2-8 0.6-1.2 0.3-3.1-0.5-3.3z"/><path class="c" d="m364.5 96.8c0 0 0.3-0.2 0.6-0.3-0.3 0.4-0.6 0.3-0.6 0.3z"/><path class="c" d="m329.5 23.3q1.2 1.9 2.3 4c-4.3-6.5-10.1-9.7-13.2-4.4-3.1 5.5 6.5 20.1 13.5 30.7-4.2-2.9-7.2-6.8-10-10.9-4.6-6.9-9.4-16.9-16.3-18-2.9-0.5-6 2.5-6.3 4.4-1 6.7 4.1 12.5 6.9 17.4 3.6 6.4 8.3 11.5 14.3 16.2-5.7-2-10-4.9-13.4-8.9-4.2-4.8-7.5-11.2-15.2-17.7-4-3.2-10 1.7-11 6.5-1.1 5.7 4.7 11.9 10.1 14.3 13.7 4.1 26 22.1 22 31.1-5.3 8.2-22.8-4.9-29.6 6-2.4 3.3-1 9 3.1 12.5q-0.5 0.1-1 0.2c-2.8 0.1-8.5-0.8-10.7-6.7-2.3-5.9-0.4-10.7 0.7-12.4 1-1.7 6.6-7.1 10.6-6.8 4 0.3 9.5 3.3 12 4.1 2.6 0.7 6.3 1.7 8.2 0.8 1.8-0.9 2.9-1.9 2.7-3.1-0.2-1.1-0.8-4.8-2.6-7.3-1.8-2.5-7.2-8.6-10.7-10.7-3.6-2.1-14.2-8.6-16.9-11.8-2.7-3.3-4.5-8.3-3.3-12.3 1.1-3.9 6.1-10.1 13.5-8.9-0.3-3.5 4.1-8.3 7-9.6 3-1.2 8.8-2.9 11.9-0.8 0.7-0.9 2.9-4.9 6.6-5.4 3.7-0.5 9.5-0.9 14.8 7.4z"/><path class="c" d="m317.8 107.8c14.8 7.3 29.6 0.6 27.2 19.7-4.1 1.4-7.2 1.7-8.5 0.8-2.9-2.4-0.4-6.9 0.2-8.1 0.6-1.1 0.3-3-0.5-3.2-1.6-0.6-8-1.3-10.5-2.4-2.6-1-12.2-5.1-15.1-7-2.9-1.9-8.9-4.8-13-4.3 4.9-2.9 11.9 0.4 20.2 4.5z"/><path class="c" d="m336.7 121.1c0 0 18.9-2.6 18.2-10.3-5.2 4.2-16.2 7.2-18.7 6.4 2 1.6 0.5 3.9 0.5 3.9z"/><path fill-rule="evenodd" class="d" d="m334.9 31.7c6.4 13.7 13 22.6 18.5 30.3 7.5 10.5 14.7 21.2 12.1 33.5 2.3-1.8 7.4-1 8.2 1.9 1.2 4.4-1.5 9.2-4.1 12.6-4 5.4-9.6 10.4-15.4 13.7-4.7 2.5-9.5 4.5-14.8 5.4-6.6 1.1-5-4.9-3.3-9.2 1.2-3.1-0.8-2.7-3.2-3.1-2.3-0.3-4.5-0.9-6.8-1.6-4.8-1.5-9.4-3.6-14-5.9-7.5-3.8-13.9-7.2-22.2-3-4.2 2.1-8.5 2-12-1.1-3.1-2.7-5.2-7.5-4.3-11.7 0.1-9.1 9.6-15 17.7-12.5 5 1.5 10.7 6.2 16.2 3.8 2.1-1 1.1-3 0.4-5-0.7-2.2-1.9-4.3-3.3-6.2-2.7-3.6-6.2-6.5-9.9-9-6.5-4.6-16.5-7.9-19.4-16.2-3.2-8.9 3.9-19.1 13.4-17.5 0.1-2.3 3.5-7.1 6.3-8.9 4-2.5 9-3.4 13.3-1.4 2-5.3 8.2-5.9 11.6-5.3 8.1 1.5 12 10.1 15 16.4zm-9.3-12.2c-2.9-2.7-7.7-3.8-11.5-2.8-1.8 0.5-4.2 2.5-4.9 4.3 2.8 1.6 4.8 5.5 6.1 8.4 3 6.6 8.3 16.7 17.2 23.5 0.7-0.1 3.8-0.5 4.5-0.5-1.4 0.8-3.2 1.7-4.2 2-3.3-0.5-13.2-13.4-17.4-21.3-2.6-4.9-4.9-11.1-10.9-12-6.2-1-12.5 4.2-14.7 10 8.4 2.2 10.2 11.4 14.8 17.6 2.7 3.8 6.1 7.1 9.7 10.1 2 1.6 5.1 3.3 6.4 3.6 0.7 0.2 3.6-0.9 4.3-1.4-1.1 1.1-3 2.3-3.8 2.9-1.8-0.5-4.5-1.7-5-2-2.5-1.3-4.7-3.1-6.7-5.1-3.8-3.7-7.2-8.1-9.9-12.8-2.3-4-4.2-8.8-8.6-10.9-5.1-2.3-11.2 0.1-13.7 5.2-4.4 9.2 3.4 16.4 10.5 20.6 9.2 5.5 20.4 13 22.2 23.5 0.5 2.4-0.7 7.7-1.5 9.2 0.6-1.9 0.6-3.9 0.5-5.9-6 4-14.8-2.4-20.7-3.6-5.7-1.2-10.5 2.8-12.6 8-2.3 5.5-0.4 13.6 5.7 15.6 5.8 2 10.7-3.7 16.4-3.6 6.8 0.1 13.4 5.1 19.3 8 6.8 3.3 13.7 6.3 21.4 5.9 3.6-0.1 12.3-2.8 16.9-6.2-3.9 4.5-14.5 7.4-18 7.4q0.3 1.1-0.1 2.3c2.8-0.5 7.7-0.6 10.1-1.6-2.6 1.2-6.3 2-9.1 2.5-2.2 0.5-2.8 3.7-2.2 5.8 0.7 2.3 3.8 1.9 5.6 1.4 6.1-1.4 12.7-5.1 17.5-9 4.9-3.9 9.1-7.7 12.2-13.4 0.9-1.6 1.9-5 1.2-6.8-1.3-3.4-5-2.5-7.3-1.6-0.4 1.5-3.2 6.7-3.9 7.8 3.3-7.8 4.2-13.9 2.2-21.4-2-7.4-6.4-13.9-11-19.9-4.9-6.3-9.5-13.1-13.6-20-4.6-7.6-6.9-17.7-13.4-23.8z"/><path class="a" d="m243 270.1c0-54.5 43-98.6 95.9-98.6 53 0 95.9 44.1 95.9 98.6 0 54.4-42.9 98.5-95.9 98.5-52.9 0-95.9-44.1-95.9-98.5z"/><path  d="m302 222c-0.1-0.1-0.2-0.2-0.3-0.4 0.1 0.1 0.2 0.3 0 0q-0.3-0.3-0.5-0.7-0.6-0.6-1.2-1.2c-0.1 0-0.2-0.1-0.3-0.2v-0.1c0.3 0.3 0.2 0.2-0.3-0.2-0.2-0.2-0.4-0.4-0.5-0.6-0.4-0.4-0.9-0.8-1.2-1.2q-0.4-0.2-0.7-0.5c0.1 0 0.4 0.3 0.1 0-0.2 0-0.3-0.1-0.4-0.2-0.5-0.4-0.9-0.7-1.4-1-0.9-0.7-1.9-1.2-2.9-1.7-0.1 0-0.2-0.1-0.3-0.1 0.3 0.1-0.5-0.2 0 0-0.2-0.1-0.5-0.2-0.7-0.3-0.6-0.2-1.1-0.4-1.6-0.5q-0.8-0.2-1.6-0.4-0.4-0.1-0.8-0.2c-0.2 0-0.5-0.1 0 0q-0.2 0-0.5 0c-1.1-0.2-2.3-0.2-3.5-0.1q-0.5 0-0.9 0.1c-0.1 0-0.2 0-0.4 0-0.6 0.1 0.5-0.1 0 0q-0.9 0.2-1.8 0.4c-0.6 0.1-1.2 0.3-1.9 0.5-0.3 0.1-0.7 0.2-1 0.4-0.1 0-0.2 0-0.3 0.1-0.5 0.2 0.3-0.1-0.1 0q-1.9 0.9-3.6 2.1c-1 0.6-2.6 0.2-3.1-0.9-0.6-1.2-0.2-2.4 0.8-3.2 8.7-6.1 21-5.6 29 1.7 1 0.9 2.1 2 2.8 3.2 0.7 1.1 1.4 2.3 1.9 3.5 0.4 0.8 0.2 1.8-0.5 2.3-0.9 0.5-1.8 0.2-2.3-0.6z"/><path  d="m368.9 221.7c0.3-0.4 0.6-0.8 0.9-1.2q0.4-0.4 1-0.8 0.9-0.7 1.9-1.2c1.2-0.8 2.4-1.4 3.7-2 2.6-1.1 5.2-2 7.9-2.5 5.1-1 10.4-0.8 15.3 0.8 2.7 0.9 5.3 2.2 7.6 3.9 0.9 0.7 1.5 2.1 0.8 3.2-0.6 1-2.1 1.6-3.1 0.9-1-0.7-1.9-1.3-2.9-1.9q-0.8-0.4-1.6-0.8c0 0-0.5-0.2-0.2 0 0.4 0.1-0.1-0.1-0.1-0.1-0.3-0.2-0.6-0.3-0.9-0.4q-1.6-0.6-3.3-1-0.8-0.2-1.7-0.3c-0.1 0-0.2 0-0.3 0-0.4-0.1 0.5 0.1 0 0-0.3-0.1-0.7-0.1-1-0.1q-1.7-0.2-3.5-0.1-0.9 0-1.8 0.1c-0.2 0.1-0.5 0.1-0.8 0.1-0.2 0-0.6 0.2 0 0-0.2 0.1-0.4 0.1-0.5 0.1-2.5 0.4-4.9 1.1-7.2 2-0.2 0.1-0.3 0.2-0.5 0.3 0.5-0.3 0 0-0.1 0q-0.6 0.3-1.1 0.5-1 0.5-2 1.1c-0.6 0.3-1.2 0.7-1.9 1.1-0.3 0.2-0.6 0.5-0.9 0.6-0.5 0.3-1 0.4-1.6 0.6-0.6 0.3-1.5-0.1-1.9-0.7-0.4-0.6-0.6-1.6-0.2-2.2z"/><path  d="m404.2 250.6c-1.3-13.3-9.6-25.5-23.4-17.6-12.8 7.4-14.3 30.6-2.9 39.7 3.7 2.9 8.5 4.7 13.1 3.6 3.7-0.8 6.9-3.3 9.1-6.5 3.5-4.8 4.8-12.2 4.1-19.2z"/><path class="b" d="m395.6 236.3c-1.7-1.5-4.2-1.4-5.8 0-1.4 1.3-2.2 3.3-2 5.2-0.2 1.8 0.4 3.7 1 5.4 1 2.4 2.5 4.2 5 4.8 2.4 0.5 4.7-1.1 5.4-3.5 0.6-2.2 0.3-4.5-0.3-6.7-0.7-1.9-1.7-3.9-3.3-5.2z"/><path  d="m269.6 250.7c1.2-13.4 9.5-25.5 23.3-17.6 12.8 7.4 14.3 30.5 2.9 39.7-3.7 2.9-8.4 4.6-13 3.6-3.7-0.8-6.9-3.3-9.2-6.5-3.4-4.8-4.7-12.2-4.1-19.2z"/><path class="b" d="m286.6 245.7c-0.4-1.3-0.5-2.6-0.4-3.9 0.3-2.2 2.2-3.9 4.4-3.7 1.5 0 2.9 0.8 3.8 2 0.7 0.3 1.3 0.7 1.8 1.2 1.3 1.5 1.7 3.5 1.8 5.4 0 1.9-0.1 4.4-1.9 5.4q-0.8 0.5-1.6 0.5-1.1 0.1-2.3-0.4c-0.8-0.3-1.6-0.9-2.3-1.5-0.5-0.4-0.9-0.8-1.4-1.4-0.4-0.3-0.7-0.7-1-1.2-0.4-0.6-0.7-1.5-0.9-2.4z"/><path  d="m355 286.4c-1.2 1.9-3.4 3.1-5.3 4-2.2 1-4.6 1.7-7 2.1-5 0.8-10.4 0.4-15.2-1.3-2.4-0.9-4.7-2.2-6.4-4.2-0.6-0.6-0.7-1.7 0-2.3 0.6-0.7 1.6-0.6 2.3 0 0 0.1 0.1 0.1 0.2 0.2 0.1 0 0.1 0 0.1 0.1 0.2 0.1-0.2-0.2 0-0.1 0.1 0.2 0.3 0.3 0.5 0.4q0.6 0.4 1.3 0.8c0.4 0.2 0.9 0.4 1.3 0.7 0.1 0 0.3 0.1 0.4 0.1 0 0 0.2 0.1 0.2 0.1 0 0-0.4-0.1-0.2-0.1 0.3 0.1 0.5 0.3 0.8 0.3 1 0.4 2 0.8 3.1 1.1q0.9 0.2 1.7 0.3 0.4 0.1 0.8 0.2c0.1 0 0.3 0 0.5 0 0 0 0.2 0.1 0 0-0.3 0 0 0 0.1 0 2.4 0.3 4.8 0.3 7.2 0.2 0.6-0.1 1.1-0.1 1.7-0.2 0.2 0 0.3 0 0.4 0 0.4 0-0.2 0 0.1 0q0.5-0.1 0.9-0.1 1.7-0.3 3.3-0.8 0.8-0.3 1.7-0.7c0 0 0.1 0 0.2 0-0.2 0-0.1 0 0 0 0.1-0.1 0.3-0.2 0.4-0.2 0.2-0.2 0.5-0.3 0.7-0.4 1-0.5 1.9-1.1 2.8-1.7 0.8-0.6 2 0.5 1.4 1.5z"/><path class="a" d="m139.2 276.3c2.5-4 7.6-5.4 11.7-3.1 0.6 0.3 61.7 34.1 138.2 47.8 4.8 0.9 8 5.5 7.1 10.4-0.9 4.9-5.5 8.2-10.3 7.3-79.5-14.2-141-48.2-143.6-49.7-4.3-2.3-5.8-7.8-3.4-12.2q0.1-0.3 0.3-0.5z"/><path class="b" d="m151.7 266.9c-0.7-1.4-2-7-3.2-9.2-1.1-2.2-5.7-10.4-7.7-12.9-1.9-2.4-5.1-7.5-5.1-11.3 0-3.7 2.3-8.3 2.1-10.8-0.2-2.5-1.5-7.5-6.9-8.9-5.4-1.4-9.3 0.7-10.7 1.9-1.4 1.1-5.4 6.6-4.7 10.2 0.7 3.6 3.9 8.2 4.8 10.4 0.9 2.2 2.2 5.5 1.6 7.2-0.6 1.8-1.4 2.9-2.4 2.8-0.9-0.1-4.2-0.2-6.6-1.6-2.4-1.4-8.2-5.5-10.4-8.5-2.2-3-8.9-11.9-12-14-3.1-2.1-7.7-3.2-11-1.7-3.2 1.4-8.1 6.5-6.3 13-3 0.1-6.7 4.5-7.5 7.3-0.8 2.8-1.5 8.2 0.5 10.8-0.6 0.7-3.9 3.1-3.9 6.5 0 3.3 0.3 8.6 8 12.5 7.8 3.9 18.5 6.6 22.3 8.9 3.8 2.3 24.9 15.9 35.2 16.5 10.2 0.6 9.1-1.3 9.1-1.3 0 0-0.6 1.5-0.1 3.4 0.4 2 1 3.7 2.6 4 1.6 0.4 7.1-0.3 14.3-10.3 7.2-9.9 10.1-23.3 7.7-25.8-2.3-2.4-5.9 0.3-6.9 1-0.9 0.7-2.5 0.6-2.8-0.1z"/><path class="c" d="m136.9 294.7c0 0-0.1 0.2-0.1 0.5 0.3-0.3 0.1-0.5 0.1-0.5z"/><path class="c" d="m70.3 270.7q1.8 0.9 3.8 1.7c-6.1-3.2-9.5-8.1-5.3-11.4 4.4-3.5 18.1 3.8 28.1 9-3-3.6-6.7-5.9-10.5-8-6.5-3.4-15.7-6.7-17.4-12.8-0.7-2.6 1.6-5.6 3.2-6.1 5.6-1.5 11.2 2.5 15.7 4.4 5.9 2.6 10.9 6.3 15.6 11.2-2.3-4.9-5.3-8.4-9.1-11.1-4.7-3.3-10.5-5.6-16.9-11.9-3.2-3.2 0.4-9.2 4.4-10.5 4.8-1.6 10.7 3 13.4 7.6 5 11.9 21.9 21.1 29.3 16.6 6.5-5.6-6.7-20 2-27.2 2.6-2.5 7.7-1.9 11.1 1.5q0.1-0.5 0.1-1c-0.2-2.5-1.6-7.5-6.9-8.9-5.4-1.4-9.3 0.7-10.7 1.9-1.4 1.1-5.5 6.7-4.7 10.2 0.7 3.6 3.9 8.2 4.8 10.5 0.9 2.2 2.2 5.4 1.6 7.2-0.6 1.8-1.4 2.9-2.4 2.8-1-0.1-4.3-0.3-6.6-1.7-2.4-1.3-8.2-5.5-10.4-8.5-2.3-3-8.9-11.8-12-14-3.2-2.1-7.7-3.2-11-1.7-3.3 1.4-8.1 6.5-6.3 13-3 0.2-6.7 4.6-7.5 7.4-0.8 2.8-1.6 8.1 0.5 10.7-0.6 0.8-3.9 3.2-3.9 6.5 0 3.4 0.3 8.7 8 12.6z"/><path class="c" d="m141.8 251.2c7.9 12.5 3.7 26.6 20 22.4 0.7-3.8 0.6-6.6-0.3-7.7-2.4-2.4-6 0.3-6.9 1-1 0.7-2.6 0.6-2.9-0.1-0.6-1.4-2-7-3.2-9.2-1.1-2.2-5.7-10.4-7.6-12.9-2-2.4-5.1-7.5-5.1-11.3-2.1 4.8 1.6 10.8 6 17.8z"/><path class="c" d="m155.2 266.8c0 0-0.4 17.4-7.1 17.6 3.1-5.1 4.6-15.4 3.6-17.6 1.6 1.7 3.5 0 3.5 0z"/><path fill-rule="evenodd" class="d" d="m78.1 274.6c-5.8-2.1-13.6-4.7-15.8-11.8-0.8-3-1-8.7 3.3-11-2.1-3.7-1.9-8.3-0.1-12.2 1.2-2.6 5-6.1 6.9-6.5-2.4-8.3 5.7-15.7 13.7-13.8 7.5 1.8 11.5 10.4 16.1 15.8 2.6 3 5.4 5.9 8.8 8 1.8 1.1 3.7 1.9 5.8 2.3 1.7 0.4 3.6 1.1 4.2-0.9 1.5-5.2-3.2-9.7-5.1-14.1-2.9-7.1 1.1-16.2 9-17.2 3.5-1.2 7.9 0.2 10.5 2.6 3.1 2.9 3.6 6.8 2.3 10.8-2.8 7.9 0.8 13.3 5 19.6 2.4 3.9 4.7 7.8 6.6 12 0.8 1.9 1.5 3.9 2.1 5.9 0.5 2.1 0.4 3.9 2.9 2.6 3.6-2 8.6-4 8.3 2-0.2 4.8-1.3 9.4-3.1 13.8-2.1 5.5-5.8 11.1-10.1 15.3-2.7 2.6-6.5 5.6-10.4 4.9-2.6-0.4-3.9-4.9-2.6-7.1-10.3 3.6-20.3-1.8-30.1-7.5-7.3-4.2-15.7-9.2-28.2-13.6zm-11.6-7c6 5.2 15 6.2 22 9.5 6.4 3 12.7 6.4 18.8 10.2 5.6 3.6 11.6 6.8 18.3 7.9 6.7 1 11.9-0.4 18.2-4.1-0.9 0.7-5 3.7-6.3 4.2-0.5 2.2-0.9 5.6 2.2 6.4 1.6 0.5 4.5-0.8 5.8-1.8 4.5-3.3 7.3-7.5 10.2-12.3 2.8-4.7 5.3-11 5.9-16.6 0.2-1.6 0.2-4.5-1.8-4.9-1.9-0.3-4.6 0.5-4.8 2.6-0.1 2.5-0.5 5.9-1.2 8.4 0.6-2.2 0.2-6.7 0.3-9.2q-1 0.4-2 0.3c0.4 3.1-0.9 12.9-4.4 16.9 2.4-4.5 3.8-12.5 3.6-15.8-0.6-7-3.9-12.9-7.5-18.6-3.1-5-8.1-10.4-9-16.5-0.6-5.1 3.8-10.1 1.4-15.2-2.4-5.2-9.6-6.1-14.1-3.5-4.2 2.4-7.2 7.2-5.5 12.2 1.6 5.1 8.1 12.4 5.3 18.2 1.7-0.1 3.4-0.4 5-1-1.2 0.8-5.6 2.4-7.7 2.3-9.3-0.6-17-9.9-22.7-17.6-4.3-6-11.5-12.2-18.9-7.4-4.2 2.8-5.5 8.5-3 12.9 2.2 3.7 6.6 4.9 10.3 6.6 4.3 2 8.5 4.5 12.1 7.6 1.9 1.6 3.7 3.4 5.1 5.5 0.4 0.4 1.7 2.7 2.3 4.2-0.5 0.9-1.3 2.7-2.1 3.8 0.3-0.7 1-3.4 0.7-4.1-0.4-1.1-2.2-3.7-3.8-5.3-2.9-2.9-6.1-5.6-9.7-7.8-5.9-3.4-14-4.1-16.8-11.4-4.7 2.5-8.6 8.7-7.1 14.2 1.5 5.3 7.1 6.7 11.6 8.6 7.2 3 19.4 10.5 20.2 13.4-0.1 0.9-0.7 2.7-1.3 4 0-0.6 0-3.4 0-4.1-6.8-7.3-16.1-11-22.1-13.1-2.6-0.8-6.2-2.2-7.9-4.5-1.5 0.8-3 3.1-3.2 4.8-0.5 3.5 1 7.7 3.7 10z"/><path fill-rule="evenodd" class="e" d="m16.5 391.4q0 1.4-0.4 2.4-0.4 1-1 1.7-0.6 0.6-1.3 1.1-0.8 0.4-1.5 0.8l-1.1-1.9q0.9-0.5 1.4-1 0.5-0.5 0.8-1 0.2-0.5 0.2-1 0.1-0.4 0.1-0.8v-15.9h2.8zm2.4-5.1q0-1.6 0.4-2.9 0.5-1.2 1.2-2 0.8-0.8 1.9-1.3 1-0.4 2.3-0.4 1.1 0 1.8 0.3 0.8 0.2 1.2 0.7 0.5 0.5 0.7 1.1 0.3 0.6 0.3 1.3 0 0.9-0.5 1.7-0.5 0.7-1.4 1.3-0.9 0.6-2.2 1-1.2 0.3-2.8 0.3 0.1 0.6 0.2 1.1 0.2 0.5 0.5 0.9 0.3 0.3 0.8 0.5 0.4 0.3 1.2 0.3 0.5 0 1.1-0.2 0.6-0.1 1.1-0.3 0.6-0.1 1.2-0.4l0.7 1.7q-0.6 0.3-1.4 0.6-0.6 0.2-1.4 0.4-0.8 0.1-1.7 0.1-1.4 0-2.4-0.4-1-0.4-1.6-1.2-0.6-0.8-0.9-1.8-0.3-1.1-0.3-2.4zm5.6-4.7q-0.8 0-1.4 0.4-0.5 0.3-0.8 0.9-0.3 0.6-0.4 1.3-0.2 0.8-0.2 1.5 1.2 0 2-0.3 0.8-0.2 1.3-0.6 0.5-0.4 0.7-0.8 0.2-0.4 0.2-0.9 0-0.7-0.4-1.1-0.4-0.4-1-0.4zm16.1-1.9q0.7 0 1.4 0.2 0.6 0.1 1.2 0.3 0.6 0.2 1.1 0.4l-0.8 1.9q-0.5-0.2-1-0.4-0.4-0.1-0.9-0.2-0.5-0.2-0.9-0.2-0.6 0-1 0.3-0.4 0.3-0.4 0.8 0 1.4 2 2.1 0.8 0.3 1.4 0.6 0.6 0.4 1 0.8 0.4 0.4 0.6 1 0.2 0.5 0.2 1.3 0 0.7-0.3 1.3-0.2 0.7-0.8 1.2-0.5 0.5-1.3 0.8-0.8 0.3-1.7 0.3-0.8 0-1.6-0.2-0.8-0.2-1.4-0.4-0.6-0.2-1-0.4l-0.3-0.2 0.9-2 0.3 0.2q0.3 0.2 0.8 0.4 0.5 0.2 1 0.4 0.6 0.2 1 0.2 0.9 0 1.3-0.4 0.4-0.3 0.4-0.8 0-0.7-0.5-1.2-0.4-0.5-1.3-0.8-1.9-0.7-2.7-1.6-0.8-0.9-0.8-2.3 0-0.7 0.4-1.3 0.3-0.6 0.8-1.1 0.5-0.5 1.3-0.7 0.7-0.3 1.6-0.3zm11.1 0q2.8 0 4 1.6 1.3 1.7 1.3 4.5 0 1.4-0.4 2.6-0.3 1.1-1 2-0.7 0.8-1.7 1.3-1 0.5-2.4 0.5-1.4 0-2.4-0.4-1-0.4-1.6-1.2-0.7-0.8-1-2-0.3-1.1-0.3-2.5 0-1.4 0.4-2.5 0.3-1.2 1-2 0.7-0.9 1.7-1.4 1-0.5 2.4-0.5zm-0.2 2q-0.7 0-1.2 0.3-0.4 0.4-0.7 0.9-0.2 0.6-0.3 1.3-0.1 0.8-0.1 1.7 0 0.8 0.1 1.6 0.1 0.8 0.4 1.4 0.3 0.6 0.8 0.9 0.5 0.4 1.2 0.4 0.7 0 1.2-0.3 0.4-0.3 0.7-0.9 0.2-0.6 0.3-1.3 0.1-0.8 0.1-1.6 0-0.9-0.1-1.7-0.1-0.8-0.4-1.4-0.3-0.6-0.8-0.9-0.5-0.4-1.2-0.4zm15-1.7h2.7v6.2q0 1.4 0.2 2.4 0.2 1 0.4 1.6 0.2 0.7 0.5 1.1l-2.1 0.8q-0.3-0.2-0.5-0.6-0.2-0.4-0.4-0.8-0.2-0.5-0.3-1.2-0.6 1.4-1.8 2-1.2 0.6-2.5 0.6-1.9 0-2.7-1.1-0.8-1.1-0.8-3v-8h2.8v7.9q0 1 0.3 1.6 0.4 0.6 1.3 0.6 0.5 0 1-0.3 0.5-0.3 0.9-0.9 0.5-0.5 0.7-1.3 0.3-0.8 0.3-1.7zm4.7 0h2.2l0.4-2.9 2.3-0.5v3.4h3l-0.4 1.9h-2.6v7.1q0 0.6 0.3 0.8 0.4 0.2 0.8 0.2 0.3 0 0.7-0.1 0.3 0 0.6-0.1 0.3-0.1 0.6-0.1l0.4 1.8h-0.2q-0.2 0.1-0.7 0.2-0.4 0.1-0.9 0.2-0.6 0.1-1.3 0.1-0.6 0-1.2-0.1-0.6-0.2-1-0.5-0.4-0.3-0.6-0.8-0.2-0.5-0.2-1.3v-7.4h-2.2zm12.5 12q-1.3 0-1.9-0.7-0.7-0.8-0.7-2v-9.3h2.7v9.1q0 0.5 0.2 0.7 0.2 0.2 0.5 0.2 0.1 0 0.2 0 0.1 0 0.2 0 0.1 0 0.2 0l0.3 1.7q-0.1 0.1-0.4 0.2-0.2 0.1-0.6 0.1-0.3 0-0.7 0zm-1.2-17.3q0.8 0 1.2 0.4 0.4 0.5 0.4 1.2 0 0.7-0.4 1.2-0.4 0.5-1.3 0.5-0.7 0-1.2-0.5-0.4-0.5-0.4-1.1 0-0.8 0.4-1.2 0.5-0.5 1.3-0.5zm4.1 11.6q0-1.6 0.5-2.9 0.4-1.2 1.2-2 0.8-0.8 1.8-1.3 1.1-0.4 2.3-0.4 1.1 0 1.8 0.3 0.8 0.2 1.3 0.7 0.5 0.5 0.7 1.1 0.2 0.6 0.2 1.3 0 0.9-0.5 1.7-0.4 0.7-1.4 1.3-0.8 0.6-2.1 1-1.3 0.3-2.9 0.3 0.1 0.6 0.2 1.1 0.2 0.5 0.5 0.9 0.3 0.3 0.8 0.5 0.5 0.3 1.2 0.3 0.5 0 1.1-0.2 0.6-0.1 1.1-0.3 0.6-0.1 1.2-0.4l0.7 1.7q-0.6 0.3-1.3 0.6-0.7 0.2-1.5 0.4-0.8 0.1-1.7 0.1-1.4 0-2.4-0.4-1-0.4-1.6-1.2-0.6-0.8-0.9-1.8-0.3-1.1-0.3-2.4zm5.6-4.7q-0.8 0-1.3 0.4-0.5 0.3-0.8 0.9-0.4 0.6-0.5 1.3-0.1 0.8-0.1 1.5 1.1 0 1.9-0.3 0.8-0.2 1.3-0.6 0.5-0.4 0.7-0.8 0.3-0.4 0.3-0.9 0-0.7-0.4-1.1-0.4-0.4-1.1-0.4zm13.9 10.4v-7.8q0-1-0.3-1.6-0.4-0.6-1.3-0.6-0.5 0-1 0.3-0.5 0.2-1 0.7-0.4 0.6-0.6 1.3-0.3 0.8-0.3 1.7v6h-2.7v-6.1q0-1.4-0.2-2.4-0.2-1-0.4-1.6-0.3-0.7-0.6-1.1l2.2-0.9q0.2 0.3 0.5 0.7 0.2 0.3 0.3 0.8 0.2 0.5 0.4 1.1 0.6-1.4 1.8-2 1.1-0.7 2.4-0.7 1.9 0 2.7 1.1 0.8 1.1 0.8 3v8.1zm9.3-12.3q0.7 0 1.4 0.2 0.6 0.1 1.2 0.3 0.6 0.2 1.1 0.4l-0.8 1.9q-0.5-0.2-1-0.4-0.4-0.1-0.9-0.2-0.5-0.2-0.9-0.2-0.6 0-1 0.3-0.4 0.3-0.4 0.8 0 1.4 2 2.1 0.8 0.3 1.4 0.6 0.6 0.4 1 0.8 0.4 0.4 0.6 1 0.2 0.5 0.2 1.3 0 0.7-0.3 1.3-0.2 0.7-0.8 1.2-0.5 0.5-1.3 0.8-0.8 0.3-1.7 0.3-0.8 0-1.6-0.2-0.8-0.2-1.4-0.4-0.6-0.2-1-0.4l-0.3-0.2 0.9-2 0.3 0.2q0.3 0.2 0.8 0.4 0.5 0.2 1 0.4 0.6 0.2 1 0.2 0.9 0 1.3-0.4 0.4-0.3 0.4-0.8 0-0.7-0.5-1.2-0.4-0.5-1.3-0.8-1.9-0.7-2.7-1.6-0.8-0.9-0.8-2.3 0-0.7 0.4-1.3 0.3-0.6 0.8-1.1 0.5-0.5 1.3-0.7 0.7-0.3 1.6-0.3zm26.2 12.3v-7.9q0-1-0.3-1.6-0.3-0.6-1.1-0.6-0.5 0-0.9 0.3-0.5 0.2-0.9 0.7-0.4 0.5-0.6 1.2-0.3 0.7-0.3 1.5v6.4h-2.7v-7.9q0-1-0.3-1.6-0.3-0.6-1.1-0.6-0.4 0-0.9 0.3-0.5 0.3-0.9 0.8-0.3 0.6-0.6 1.3-0.2 0.8-0.2 1.7v6h-2.7v-6.1q0-1.4-0.2-2.4-0.2-1-0.4-1.6-0.3-0.7-0.6-1.1l2.2-0.9q0.2 0.3 0.5 0.7 0.1 0.3 0.3 0.8 0.2 0.5 0.4 1.1 0.6-1.4 1.6-2 1.1-0.7 2.4-0.7 1.2 0 1.9 0.6 0.7 0.7 1 1.6 0.6-1.2 1.6-1.7 1.1-0.5 2.2-0.5 0.9 0 1.6 0.3 0.6 0.3 1 0.9 0.4 0.5 0.5 1.3 0.2 0.7 0.2 1.6v8.1zm10.4-12.3q2.8 0 4.1 1.6 1.2 1.7 1.2 4.5 0 1.4-0.3 2.6-0.4 1.1-1.1 2-0.6 0.8-1.7 1.3-1 0.5-2.4 0.5-1.3 0-2.3-0.4-1-0.4-1.7-1.2-0.6-0.8-0.9-2-0.3-1.1-0.3-2.5 0-1.4 0.3-2.5 0.3-1.2 1-2 0.7-0.9 1.7-1.4 1.1-0.5 2.4-0.5zm-0.2 2q-0.7 0-1.1 0.3-0.5 0.4-0.7 0.9-0.3 0.6-0.4 1.3-0.1 0.8-0.1 1.7 0 0.8 0.1 1.6 0.1 0.8 0.4 1.4 0.3 0.6 0.8 0.9 0.5 0.4 1.3 0.4 0.7 0 1.1-0.3 0.5-0.3 0.7-0.9 0.3-0.6 0.4-1.3 0.1-0.8 0.1-1.6 0-0.9-0.2-1.7-0.1-0.8-0.4-1.4-0.2-0.6-0.7-0.9-0.5-0.4-1.3-0.4zm15.3 10.3v-7.8q0-1-0.3-1.6-0.4-0.6-1.3-0.6-0.5 0-1 0.3-0.5 0.2-0.9 0.7-0.5 0.6-0.7 1.3-0.3 0.8-0.3 1.7v6h-2.7v-6.1q0-1.4-0.2-2.4-0.2-1-0.4-1.6-0.3-0.7-0.6-1.1l2.2-0.9q0.2 0.3 0.5 0.7 0.2 0.3 0.4 0.8 0.1 0.5 0.3 1.1 0.6-1.4 1.8-2 1.1-0.7 2.4-0.7 1.9 0 2.7 1.1 0.8 1.1 0.8 3v8.1zm18.4-9.2q-0.4-0.4-0.8-0.7-0.3-0.3-1-0.3-0.3 0-0.8 0.1-0.4 0.1-0.8 0.6-0.4 0.4-0.6 1.2-0.3 0.8-0.3 2.2 0 1.4 0.3 2.3 0.2 0.8 0.6 1.2 0.4 0.5 0.9 0.6 0.4 0.2 0.9 0.2 0.3 0 0.7-0.1 0.3-0.1 0.7-0.1 0.3-0.1 0.5-0.2 0.3-0.1 0.4-0.1l0.7 1.7q-0.1 0-0.3 0.1-0.3 0.2-0.7 0.3-0.4 0.1-1 0.2-0.6 0.1-1.4 0.1-1.4 0-2.4-0.4-1-0.4-1.6-1.2-0.6-0.8-0.9-1.8-0.3-1.1-0.3-2.4 0-1.6 0.4-2.8 0.4-1.3 1.2-2.1 0.7-0.8 1.7-1.3 1-0.4 2.2-0.4 1.1 0 1.9 0.4 0.8 0.5 1.3 1.2zm8.7-0.3q-0.4 0-0.8 0.2-0.5 0.3-0.8 0.6-0.3 0.4-0.6 0.9-0.2 0.6-0.2 1.2v6.6h-2.7v-6.1q0-1.4-0.2-2.4-0.2-0.9-0.4-1.5-0.3-0.7-0.6-1.2l2.2-0.8q0.2 0.2 0.4 0.6 0.2 0.3 0.4 0.8 0.2 0.5 0.3 1.1 0.5-1.4 1.4-2 0.9-0.6 2.1-0.6 0.5 0 1 0.1 0.5 0.1 0.5 0.1l-0.8 2.7q0 0-0.3-0.1-0.3-0.2-0.9-0.2zm1.2 0.3q0 0 0 0zm0.9 3.5q0-1.6 0.4-2.8 0.5-1.3 1.2-2.1 0.8-0.8 1.9-1.2 1-0.4 2.3-0.4 1.1 0 1.8 0.2 0.8 0.3 1.2 0.7 0.5 0.5 0.7 1.1 0.3 0.6 0.3 1.4 0 0.8-0.5 1.6-0.5 0.8-1.4 1.4-0.9 0.6-2.2 0.9-1.2 0.4-2.8 0.4 0.1 0.5 0.2 1 0.2 0.5 0.5 0.9 0.3 0.4 0.8 0.6 0.4 0.2 1.2 0.2 0.5 0 1.1-0.1 0.6-0.1 1.1-0.3 0.6-0.2 1.2-0.4l0.7 1.7q-0.6 0.3-1.4 0.5-0.6 0.2-1.4 0.4-0.8 0.2-1.7 0.2-1.4 0-2.4-0.4-1-0.5-1.6-1.2-0.6-0.8-0.9-1.9-0.3-1.1-0.3-2.4zm5.6-4.7q-0.8 0-1.4 0.4-0.5 0.4-0.8 1-0.3 0.5-0.4 1.3-0.2 0.7-0.2 1.5 1.2-0.1 2-0.3 0.8-0.3 1.3-0.7 0.5-0.3 0.7-0.8 0.2-0.4 0.2-0.8 0-0.7-0.4-1.1-0.4-0.5-1-0.5zm-1.7-3.8l4.1-4.5 1.9 1.7q-0.8 0.9-1.6 1.6-0.8 0.8-1.5 1.3-0.8 0.7-1.7 1.2zm17.8 8.4q0 1.4 0.1 2.4 0.2 0.9 0.5 1.5 0.2 0.8 0.5 1.2l-2.1 0.8q-0.3-0.3-0.6-0.7-0.2-0.4-0.4-0.9-0.2-0.6-0.2-1.3-0.4 1.4-1.4 2.2-0.8 0.7-2.4 0.7-1.1 0-1.9-0.4-0.9-0.5-1.4-1.2-0.6-0.8-0.8-1.9-0.3-1.1-0.3-2.5 0-1.3 0.4-2.5 0.4-1.2 1.2-2 0.8-0.8 1.8-1.3 1.1-0.5 2.3-0.5 0.8 0 1.5 0.1 0.8 0.1 1.5 0.2 0.7 0.2 1.1 0.3 0.5 0.1 0.6 0.1zm-5.5 4q0.6 0 1.1-0.4 0.5-0.4 0.8-1.1 0.4-0.6 0.6-1.5 0.2-0.8 0.2-1.7v-3.5q-0.2-0.1-0.7-0.2-0.5 0-0.8 0-1 0-1.6 0.3-0.5 0.3-0.9 0.8-0.4 0.6-0.5 1.3-0.1 0.8-0.1 1.7 0 0.9 0 1.6 0.1 0.8 0.2 1.4 0.3 0.6 0.6 1 0.4 0.3 1.1 0.3zm7.4-10.2h2.1l0.5-2.8 2.3-0.5v3.3h2.9l-0.3 2h-2.6v7.1q0 0.6 0.3 0.8 0.3 0.2 0.7 0.2 0.4 0 0.7-0.1 0.4 0 0.6-0.1 0.3-0.1 0.6-0.2l0.5 1.8-0.2 0.1q-0.3 0.1-0.7 0.2-0.4 0.1-1 0.2-0.5 0.1-1.2 0.1-0.7 0-1.2-0.2-0.6-0.1-1-0.4-0.4-0.4-0.7-0.9-0.2-0.5-0.2-1.2v-7.4h-2.1zm8.9 6.2q0-1.6 0.4-2.8 0.5-1.2 1.2-2 0.8-0.9 1.9-1.3 1.1-0.4 2.3-0.4 1.1 0 1.8 0.2 0.8 0.3 1.2 0.8 0.5 0.4 0.7 1 0.3 0.7 0.3 1.4 0 0.9-0.5 1.6-0.5 0.8-1.4 1.4-0.9 0.6-2.1 0.9-1.3 0.4-2.9 0.4 0.1 0.6 0.2 1.1 0.2 0.4 0.5 0.8 0.3 0.4 0.8 0.6 0.4 0.2 1.2 0.2 0.5 0 1.1-0.1 0.6-0.1 1.1-0.3 0.6-0.2 1.2-0.4l0.7 1.7q-0.6 0.3-1.4 0.5-0.6 0.3-1.4 0.4-0.8 0.2-1.7 0.2-1.4 0-2.4-0.4-1-0.5-1.6-1.2-0.6-0.8-0.9-1.9-0.3-1-0.3-2.4zm5.6-4.6q-0.8 0-1.4 0.3-0.5 0.4-0.8 1-0.3 0.6-0.4 1.3-0.2 0.7-0.2 1.5 1.2-0.1 2-0.3 0.8-0.3 1.3-0.6 0.5-0.4 0.7-0.8 0.2-0.5 0.2-0.9 0-0.7-0.4-1.1-0.4-0.4-1-0.4zm13.3-1.6h2.8v6.1q0 1.5 0.1 2.5 0.2 0.9 0.4 1.5 0.3 0.7 0.6 1.1l-2.1 0.9q-0.3-0.3-0.5-0.7-0.2-0.3-0.5-0.8-0.1-0.5-0.2-1.2-0.7 1.5-1.8 2.1-1.2 0.6-2.5 0.6-1.9 0-2.7-1.1-0.8-1.1-0.8-3.1v-7.9h2.7v7.9q0 1 0.4 1.6 0.4 0.5 1.2 0.5 0.6 0 1.1-0.2 0.5-0.4 0.9-0.9 0.4-0.6 0.7-1.3 0.2-0.8 0.2-1.8zm11.4 2.5q-0.4 0-0.8 0.2-0.4 0.3-0.8 0.6-0.3 0.4-0.5 0.9-0.3 0.6-0.3 1.2v6.6h-2.7v-6.1q0-1.4-0.2-2.4-0.2-1-0.4-1.6-0.3-0.7-0.6-1.1l2.2-0.8q0.2 0.2 0.5 0.6 0.1 0.3 0.3 0.8 0.2 0.4 0.3 1.1 0.5-1.4 1.4-2 1-0.6 2.1-0.6 0.6 0 1 0.1 0.5 0.1 0.5 0.1l-0.8 2.7q0 0-0.3-0.1-0.3-0.2-0.9-0.2zm1.2 0.3q0 0 0 0z"/></svg>