<svg width="548" height="441" viewBox="0 0 548 441" fill="none" xmlns="http://www.w3.org/2000/svg">
<g filter="url(#filter0_i_22_893)">
<path d="M157.908 104.909C162.347 103.364 167.213 105.465 168.996 109.795C169.263 110.438 196.047 174.844 247.383 233.248C250.603 236.909 250.168 242.537 246.417 245.815C242.666 249.092 237.013 248.778 233.793 245.117C180.468 184.447 153.518 119.545 152.402 116.815C150.547 112.296 152.764 107.062 157.349 105.123C157.535 105.04 157.727 104.965 157.915 104.904L157.908 104.909Z" fill="#1E9500"/>
</g>
<path d="M173.504 105.351C173.913 103.815 176.339 98.586 176.799 96.1554C177.264 93.7325 178.789 84.4507 178.789 81.3289C178.789 78.207 179.506 72.2516 181.814 69.3098C184.114 66.3734 188.736 64.1963 190.162 62.1316C191.593 60.0746 193.651 55.2907 190.332 50.8278C187.008 46.3572 182.586 45.6035 180.803 45.6511C179.028 45.6933 172.384 47.4827 170.709 50.7253C169.034 53.9679 168.669 59.5573 168.002 61.8701C167.343 64.1776 166.324 67.5012 164.761 68.5171C163.199 69.5331 161.904 69.9241 161.193 69.2363C160.489 68.543 157.997 66.3627 157.004 63.8204C156.004 61.2835 154.042 54.3843 154.16 50.6723C154.278 46.9604 154.567 35.8469 153.459 32.2529C152.351 28.6588 149.468 24.9712 145.999 24.0722C142.538 23.1678 135.561 24.1115 132.922 30.3345C130.488 28.5782 124.847 29.7016 122.502 31.4018C120.157 33.102 116.213 36.8162 116.211 40.1547C115.265 40.3286 111.206 40.1745 109.108 42.7798C107.01 45.3851 103.951 49.7021 107.585 57.5796C111.219 65.457 117.939 74.2818 119.47 78.4452C121.004 82.5956 129.018 106.367 136.673 113.238C144.335 120.104 144.695 117.866 144.695 117.866C144.695 117.866 143.298 118.666 142.437 120.491C141.575 122.315 140.964 124.047 142.006 125.288C143.049 126.529 147.765 129.411 159.587 126.126C171.403 122.832 182.025 114.104 181.707 110.737C181.389 107.369 176.878 107.265 175.709 107.197C174.546 107.135 173.317 106.079 173.511 105.346L173.504 105.351Z" fill="white"/>
<path d="M144.688 117.898C144.688 117.898 144.496 118.007 144.211 118.236C144.629 118.186 144.688 117.898 144.688 117.898Z" fill="#D1D6D0"/>
<path d="M107.529 57.6278C108.083 58.8311 108.713 60.0612 109.385 61.2851C106.626 54.9787 107.044 49.0706 112.406 49.1105C117.976 49.1663 124.187 63.3392 128.743 73.6254C128.627 69.0226 127.16 64.8833 125.438 60.8625C122.569 54.1567 117.418 45.8848 119.875 40.0475C120.921 37.5758 124.592 36.594 126.134 37.2433C131.535 39.5302 133.387 46.1196 135.705 50.4889C138.743 56.1854 140.295 62.1999 140.936 68.9648C142.181 63.6424 142.057 59.0451 140.722 54.5553C139.1 49.1196 135.971 43.6446 134.903 34.7073C134.371 30.2086 140.909 27.7788 144.934 29.2349C149.66 30.9559 151.456 38.262 150.668 43.542C147.174 56.0074 154.617 73.7222 163.206 74.7936C171.805 74.4548 170.434 54.9352 181.779 54.7362C185.361 54.4041 188.903 58.0571 189.527 62.8434C189.766 62.6 189.976 62.3652 190.144 62.1366C191.577 60.0784 193.639 55.2924 190.32 50.8298C186.996 46.3595 182.572 45.6077 180.788 45.6561C179.012 45.6991 172.364 47.4918 170.686 50.736C169.008 53.9802 168.641 59.5711 167.972 61.8849C167.312 64.1932 166.291 67.5181 164.727 68.535C163.163 69.552 161.868 69.9436 161.156 69.2559C160.452 68.5628 157.96 66.383 156.968 63.8405C155.968 61.3035 154.008 54.4034 154.128 50.6904C154.248 46.9775 154.542 35.8611 153.435 32.2666C152.328 28.6721 149.444 24.9848 145.974 24.0872C142.512 23.1841 135.53 24.1311 132.887 30.3568C130.452 28.6012 124.808 29.7274 122.461 31.429C120.114 33.1307 116.166 36.8476 116.162 40.187C115.216 40.3613 111.154 40.209 109.054 42.8159C106.954 45.4228 103.891 49.7422 107.524 57.6201L107.529 57.6278Z" fill="#D1D6D0"/>
<path d="M175.571 86.8774C173.961 101.657 161.888 109.979 177.249 116.853C180.17 114.384 181.91 112.081 181.781 110.688C181.464 107.32 176.952 107.217 175.783 107.148C174.619 107.087 173.39 106.031 173.585 105.298C173.995 103.761 176.422 98.5311 176.882 96.1002C177.348 93.6769 178.875 84.394 178.876 81.2718C178.876 78.1497 179.594 72.1936 181.903 69.2511C177.38 71.7114 176.483 78.6272 175.579 86.872L175.571 86.8774Z" fill="#D1D6D0"/>
<path d="M176.295 107.458C176.295 107.458 165.223 120.873 159.837 116.814C165.41 114.718 172.969 107.628 173.574 105.301C173.8 107.588 176.29 107.45 176.29 107.45L176.295 107.458Z" fill="#D1D6D0"/>
<path d="M111.195 65.5079C118.266 76.7491 121.754 85.836 124.8 93.6309C128.931 104.222 133.408 114.642 143.754 118.286C141.346 119.215 139.537 123.533 141.267 125.445C143.956 128.406 148.801 128.473 152.54 128.09C158.438 127.479 164.83 125.422 169.958 122.444C174.081 120.044 177.812 117.223 180.971 113.595C184.944 109.024 179.792 107.504 175.748 106.797C172.886 106.296 174.159 104.924 175.015 102.956C175.848 101.039 176.512 99.0443 177.058 97.0293C178.256 92.6104 178.891 88.0795 179.343 83.5504C180.091 76.0125 180.635 69.5314 187.682 65.0438C191.248 62.7769 193.192 59.4522 192.572 55.2514C192.06 51.7345 189.515 47.8483 186.01 46.6578C179.216 42.5098 170.367 47.1368 168.329 54.4966C167.053 59.1053 167.857 65.6118 163.443 68.7212C161.733 69.9286 160.691 68.2124 159.559 66.8063C158.264 65.1952 157.274 63.3524 156.55 61.4067C155.163 57.6757 154.717 53.6274 154.583 49.6473C154.344 42.527 156.602 33.2852 151.888 27.2684C146.786 20.7493 135.862 21.552 132.572 29.568C130.82 28.6438 125.674 28.9985 123.053 30.3451C119.29 32.2722 116.262 35.7192 115.601 39.974C110.819 39.0488 107.371 43.5761 106.205 46.4803C103.417 53.3829 107.933 60.3153 111.205 65.5233L111.195 65.5079ZM106.594 52.7853C105.966 49.3025 107.447 45.0961 109.997 42.6444C111.242 41.4507 113.802 40.5075 115.498 40.8587C115.362 43.7124 117.323 47.0147 118.81 49.3311C122.244 54.6762 127.231 63.4012 128.006 73.3435C127.591 73.8545 125.832 76.0237 125.435 76.5787C126.751 75.9131 128.25 74.8725 128.92 74.2431C130.143 71.4916 125.301 57.9734 121.504 51.1126C119.159 46.8744 115.674 42.2536 117.791 37.249C120.02 31.986 126.905 29.5331 132.194 30.5402C129.815 37.942 135.747 43.5748 138.189 49.9406C139.681 53.8257 140.468 57.9338 140.952 62.07C141.212 64.2668 141.002 67.4537 140.631 68.5902C140.421 69.2321 138.2 70.9946 137.478 71.3093C138.885 70.9653 140.639 70.0439 141.514 69.6811C141.999 68.1034 142.375 65.4817 142.404 64.9302C142.567 62.4205 142.288 59.9082 141.792 57.4664C140.836 52.8063 139.189 48.2018 137.052 43.9797C135.216 40.3533 132.512 36.7241 133.123 32.3792C133.83 27.4264 138.464 23.7584 143.475 24.2214C152.308 25.0345 153.96 34.3634 153.692 41.7072C153.335 51.2954 153.551 63.3183 160.449 69.5885C162.001 71.0003 166.478 72.5644 167.967 72.6282C166.294 72.1589 164.806 71.2808 163.393 70.3277C169.199 67.4958 168.639 57.8016 170.535 52.7449C172.384 47.8223 177.628 45.8966 182.496 46.6604C187.614 47.468 192.685 52.6175 191.319 58.2151C190.006 63.5843 183.449 64.7712 180.808 69.1749C177.631 74.4892 178.185 81.8343 177.51 87.7156C176.743 94.3952 175.69 101.113 171.757 106.912C169.942 109.595 163.832 115.033 159.126 117.02C164.338 116.099 171.539 109.256 173.151 106.532C173.616 107.061 174.193 107.4 174.881 107.561C173.238 109.459 170.806 113.221 168.91 114.579C171.016 113.088 173.395 110.64 175.105 108.754C176.491 107.225 179.128 108.277 180.412 109.737C181.772 111.292 179.978 113.496 178.81 114.683C174.879 118.671 169 122.039 163.861 123.983C158.604 125.975 153.803 127.449 148.155 127.254C146.556 127.198 143.539 126.453 142.517 125.073C140.59 122.482 143.066 120.093 144.815 118.655C146.133 119.062 151.264 119.329 152.42 119.293C145.151 118.231 140.191 116.162 135.603 111.179C131.034 106.205 128.348 99.9051 126.131 93.5992C123.765 86.8871 120.916 80.2804 117.802 73.9124C114.409 66.9663 107.965 60.5652 106.557 52.7653L106.594 52.7853Z" fill="black"/>
<g filter="url(#filter1_i_22_893)">
<path d="M463.187 111.576C458.388 109.29 452.515 111.016 449.788 115.62C449.381 116.304 408.528 184.749 340.721 243.386C336.469 247.061 336.056 253.394 339.792 257.526C343.529 261.658 350.009 262.024 354.261 258.348C424.695 197.436 465.817 128.458 467.527 125.555C470.366 120.749 468.69 114.63 463.788 111.885C463.59 111.77 463.384 111.662 463.179 111.569L463.187 111.576Z" fill="#1E9500"/>
</g>
<path d="M445.868 109.726C445.652 107.976 443.746 101.892 443.618 99.1464C443.481 96.4091 443.249 85.9549 443.752 82.5027C444.254 79.0504 444.402 72.3754 442.262 68.8346C440.13 65.3008 435.248 62.3171 433.966 59.8563C432.677 57.4032 431.116 51.8564 435.593 47.3349C440.077 42.8054 445.206 42.5232 447.217 42.798C449.22 43.0659 456.454 45.8727 457.829 49.6673C459.204 53.4619 458.717 59.6883 459.1 62.3291C459.474 64.9629 460.093 68.7652 461.698 70.0834C463.304 71.4017 464.707 71.9954 465.623 71.3234C466.532 70.6445 469.705 68.544 471.238 65.8564C472.779 63.1757 476.112 55.7908 476.576 51.6713C477.04 47.5517 478.502 35.2261 480.336 31.3898C482.17 27.5535 486.028 23.835 490.101 23.2732C494.165 22.7044 501.913 24.6176 503.899 31.8281C506.939 30.1893 513.144 32.1346 515.526 34.307C517.907 36.4794 521.775 41.0783 521.24 44.7705C522.283 45.0806 526.904 45.4162 528.86 48.5587C530.816 51.7013 533.585 56.8564 528.201 65.1146C522.818 73.3728 513.788 82.2939 511.384 86.7072C508.979 91.1057 496.076 116.394 486.302 123.038C476.52 129.675 476.473 127.156 476.473 127.156C476.473 127.156 477.926 128.215 478.607 130.34C479.289 132.465 479.703 134.456 478.323 135.699C476.942 136.941 471.138 139.54 458.281 134.434C445.431 129.319 434.81 118.344 435.712 114.66C436.614 110.975 441.739 111.422 443.073 111.492C444.4 111.569 445.962 110.554 445.86 109.719L445.868 109.726Z" fill="white"/>
<path d="M475.899 127.365C475.899 127.365 476.097 127.509 476.379 127.796C475.919 127.689 475.899 127.365 475.899 127.365Z" fill="#D1D6D0"/>
<path d="M528.266 64.9823C527.446 66.2417 526.537 67.5213 525.581 68.7888C529.711 62.1703 530.19 55.5969 524.126 54.975C517.825 54.3449 508.53 69.2181 501.728 80.0064C502.6 74.9402 504.923 70.5533 507.515 66.3288C511.834 59.2831 518.984 50.7921 517.148 44.0437C516.363 41.1853 512.375 39.6457 510.529 40.171C504.06 42.0247 500.908 49.0682 497.586 53.6033C493.239 59.5141 490.517 65.9601 488.705 73.3478C488.155 67.3182 489.035 62.259 491.266 57.469C493.971 51.6702 498.387 46.0154 501.032 36.2829C502.356 31.383 495.361 27.8891 490.581 28.9966C484.966 30.3094 481.761 38.151 481.802 44.077C483.744 58.2706 472.486 76.9002 462.612 77.0163C452.952 75.5745 457.641 54.1985 444.858 52.57C440.866 51.7587 436.277 55.351 434.803 60.5569C434.572 60.2585 434.372 59.9732 434.218 59.7C432.931 57.2502 431.372 51.7112 435.839 47.1975C440.313 42.6759 445.432 42.3954 447.439 42.6704C449.439 42.9384 456.66 45.7428 458.033 49.5321C459.406 53.3214 458.922 59.5385 459.304 62.1755C459.679 64.8055 460.297 68.6023 461.9 69.919C463.503 71.2358 464.903 71.829 465.818 71.1582C466.724 70.4806 469.891 68.384 471.42 65.7007C472.958 63.0244 476.282 55.6513 476.743 51.5379C477.205 47.4246 478.662 35.1176 480.491 31.2874C482.32 27.4572 486.17 23.7452 490.234 23.1853C494.291 22.6184 502.024 24.5307 504.009 31.731C507.041 30.0955 513.236 32.0394 515.613 34.2092C517.99 36.379 521.852 40.972 521.319 44.6586C522.36 44.9685 526.973 45.3048 528.926 48.4432C530.879 51.5816 533.644 56.7298 528.273 64.9745L528.266 64.9823Z" fill="#D1D6D0"/>
<path d="M446.504 89.3884C445.945 105.922 458.264 116.62 439.778 122.305C436.871 119.213 435.274 116.453 435.644 114.929C436.545 111.246 441.667 111.693 443 111.763C444.326 111.84 445.887 110.826 445.785 109.992C445.568 108.242 443.664 102.161 443.535 99.4173C443.398 96.6815 443.165 86.2329 443.667 82.7825C444.169 79.3321 444.316 72.6608 442.177 69.1217C446.898 72.4034 446.799 80.1576 446.496 89.3814L446.504 89.3884Z" fill="#D1D6D0"/>
<path d="M442.167 112.091C442.167 112.091 452.439 128.214 459.126 124.428C453.213 121.428 445.87 112.693 445.563 110.062C444.944 112.546 442.174 112.083 442.174 112.083L442.167 112.091Z" fill="#D1D6D0"/>
<path d="M522.835 73.4301C513.017 84.9795 507.605 94.5932 502.901 102.833C496.518 114.03 489.771 124.995 477.469 127.735C480.046 129.062 481.399 134.063 479.132 135.961C475.611 138.901 470.114 138.371 465.942 137.481C459.362 136.071 452.456 132.999 447.129 129.068C442.848 125.9 439.077 122.314 436.084 117.909C432.322 112.359 438.4 111.321 443.093 111.043C446.415 110.845 445.193 109.169 444.541 106.887C443.907 104.663 443.476 102.375 443.182 100.078C442.538 95.0426 442.548 89.9531 442.766 84.8885C443.133 76.4597 443.561 69.225 436.303 63.3842C432.631 60.433 430.966 56.5143 432.344 51.9462C433.49 48.121 436.997 44.1408 441.158 43.2612C449.518 39.521 458.793 45.7404 459.915 54.1329C460.618 59.3884 458.66 66.4832 463.158 70.4717C464.899 72.02 466.356 70.2521 467.864 68.8382C469.589 67.218 471.006 65.3036 472.14 63.2424C474.311 59.2894 475.469 54.8683 476.261 50.4838C477.678 42.6398 476.61 32.1387 482.916 26.0727C489.743 19.4996 501.982 21.7487 504.417 31.0229C506.549 30.2193 512.319 31.253 515.07 33.0686C519.02 35.6686 521.893 39.8577 521.957 44.6452C527.521 44.2181 530.696 49.6541 531.548 53.0109C533.594 60.9914 527.364 68.0945 522.82 73.4458L522.835 73.4301ZM530.093 59.9346C531.364 56.1615 530.365 51.3254 527.872 48.2966C526.655 46.8214 523.908 45.4594 521.931 45.6363C521.626 48.8089 518.873 52.2162 516.817 54.5925C512.067 60.0751 505.016 69.1018 502.538 79.9996C502.925 80.6164 504.568 83.2344 504.928 83.8975C503.545 82.9975 502.015 81.6599 501.358 80.8806C500.416 77.6853 508.075 63.3402 513.48 56.2267C516.817 51.8324 521.507 47.1569 519.917 41.359C518.24 35.2611 510.839 31.6906 504.688 32.1451C506.19 40.6266 498.567 46.1162 494.776 52.8512C492.462 56.9615 490.908 61.4061 489.695 65.9198C489.047 68.3167 488.771 71.867 489.008 73.1698C489.142 73.9058 491.374 76.1317 492.141 76.5698C490.602 76.0139 488.765 74.7764 487.833 74.2663C487.537 72.4611 487.534 69.5151 487.59 68.9017C487.81 66.1061 488.53 63.3627 489.485 60.7243C491.318 55.6903 493.923 50.8038 497.024 46.4013C499.686 42.6199 503.333 38.9438 503.34 34.0629C503.338 28.498 498.68 23.8643 492.933 23.7518C482.8 23.5501 479.427 33.6603 478.548 41.8145C477.408 52.4617 475.228 65.7299 466.407 71.8039C464.423 73.1717 459.102 74.3433 457.405 74.2282C459.375 73.9178 461.202 73.1323 462.955 72.2544C456.837 68.3994 459.032 57.7491 457.7 51.9209C456.399 46.2472 450.772 43.4641 445.136 43.702C439.211 43.9572 432.64 49.0197 433.285 55.3797C433.907 61.4806 441.14 63.6103 443.422 68.8092C446.164 75.0818 444.354 83.1351 444.171 89.7228C443.963 97.2048 444.074 104.765 447.594 111.668C449.216 114.86 455.259 121.636 460.268 124.419C454.514 122.752 447.463 114.287 446.076 111.074C445.465 111.601 444.756 111.904 443.951 111.996C445.507 114.299 447.654 118.762 449.582 120.5C447.438 118.589 445.138 115.586 443.506 113.287C442.183 111.424 439.028 112.259 437.339 113.713C435.548 115.263 437.224 117.923 438.356 119.381C442.165 124.281 448.28 128.739 453.785 131.529C459.417 134.387 464.615 136.615 471.042 137.104C472.862 137.241 476.398 136.793 477.777 135.394C480.376 132.77 477.957 129.818 476.209 128.01C474.651 128.296 468.798 127.952 467.495 127.769C475.896 127.501 481.846 125.83 487.843 120.891C493.817 115.961 497.874 109.329 501.399 102.632C505.158 95.5049 509.448 88.5542 514 81.9005C518.96 74.6422 527.288 68.3669 530.138 59.9171L530.093 59.9346Z" fill="black"/>
<g filter="url(#filter2_i_22_893)">
<path d="M411 192.5C411 137.548 366.452 93 311.5 93C256.548 93 212 137.548 212 192.5C212 247.452 256.548 292 311.5 292C366.452 292 411 247.452 411 192.5Z" fill="#1E9500"/>
</g>
<path d="M290.1 206.882C292.492 211.24 296.68 212.991 301.338 211.197C303.09 210.513 304.97 209.189 306.893 209.104C308.816 209.018 310.097 211.112 311.379 212.222C312.875 213.461 314.584 214.316 316.593 213.889C317.575 213.675 318.387 213.205 319.156 212.564C319.626 212.18 320.567 210.813 321.25 210.77C322.019 210.684 323.6 211.923 324.412 212.137C325.651 212.479 326.933 212.564 328.173 212.436C331.078 212.137 333.728 210.855 336.291 209.531C338.983 208.121 336.59 204.062 333.898 205.472C331.719 206.583 329.241 207.95 326.72 207.779C324.455 207.651 322.789 205.771 320.396 206.156C318.644 206.455 317.618 207.651 316.336 208.719C314.969 209.83 314.242 208.505 313.174 207.437C310.397 204.746 307.405 203.678 303.645 205.045C301.893 205.686 300.269 206.754 298.432 207.138C296.295 207.566 295.056 206.241 294.116 204.49C292.706 201.798 288.604 204.19 290.1 206.882Z" fill="black"/>
<path d="M262.325 177.831C257.539 185.051 265.188 193.51 272.965 190.819C280.827 188.084 281.724 177.574 276.426 172.063C271.383 166.765 261.214 165.612 255.274 169.927C248.779 174.626 248.223 183.726 251.428 190.519C254.59 197.27 261.641 201.713 269.119 201.499C277.323 201.243 283.861 196.159 287.322 188.853C290.655 181.804 291.467 172.918 286.553 166.338C281.767 159.887 272.879 156.597 265.102 155.914C256.385 155.187 247.711 159.46 242.583 166.466C237.156 173.9 236.686 183.94 240.446 192.186C241.173 193.724 243.395 194.108 244.762 193.296C246.343 192.399 246.6 190.519 245.873 188.981C241.344 178.984 246.514 166.851 256.855 163.219C262.496 161.254 268.307 162.237 273.734 164.458C278.434 166.424 282.664 169.628 283.604 174.968C285.314 184.88 277.238 197.013 266.341 194.963C261.726 194.108 257.881 190.519 256.428 186.076C255.018 181.59 255.958 175.524 261.043 173.986C265.572 172.618 273.264 174.584 273.648 180.18C273.776 182.359 272.409 184.965 270.016 185.051C267.58 185.094 266.512 182.957 267.837 181.035C270.016 177.617 264.589 174.456 262.325 177.831Z" fill="black"/>
<path d="M358.383 178.813C353.597 186.033 361.246 194.493 369.023 191.801C376.885 189.067 377.783 178.557 372.484 173.046C367.442 167.748 357.272 166.594 351.333 170.909C344.838 175.609 344.282 184.709 347.487 191.502C350.649 198.252 357.699 202.695 365.177 202.482C373.382 202.226 379.919 197.141 383.381 189.836C386.714 182.786 387.525 173.9 382.611 167.321C377.826 160.87 368.938 157.58 361.161 156.896C352.444 156.17 343.769 160.442 338.642 167.449C333.215 174.883 332.745 184.923 336.505 193.168C337.232 194.706 339.453 195.091 340.821 194.279C342.402 193.382 342.658 191.502 341.932 189.964C337.402 179.967 342.573 167.833 352.914 164.202C358.554 162.237 364.365 163.219 369.792 165.441C374.493 167.406 378.723 170.61 379.663 175.951C381.372 185.863 373.296 197.996 362.4 195.945C357.785 195.091 353.939 191.502 352.486 187.059C351.076 182.573 352.016 176.506 357.101 174.968C361.631 173.601 369.322 175.566 369.707 181.163C369.835 183.342 368.468 185.948 366.075 186.033C363.639 186.076 362.571 183.94 363.895 182.017C366.075 178.6 360.605 175.438 358.383 178.813Z" fill="black"/>
<path d="M244.036 155.102C245.232 155.144 246.471 154.845 247.668 154.546C248.693 154.29 249.719 154.033 250.744 153.692C252.796 153.094 254.847 152.367 256.855 151.556C261 149.889 264.974 147.881 268.691 145.489C270.828 144.122 272.922 142.584 274.887 140.96C275.785 140.234 275.699 138.568 274.887 137.799C273.905 136.902 272.708 137.03 271.725 137.799C271.512 137.97 271.298 138.141 271.084 138.311C270.999 138.397 270.913 138.44 270.785 138.525C270.529 138.739 271.084 138.311 270.785 138.525C270.358 138.867 269.931 139.166 269.461 139.508C268.606 140.148 267.709 140.747 266.854 141.302C265.102 142.456 263.307 143.524 261.427 144.506C260.487 145.019 259.547 145.489 258.564 145.916C258.137 146.13 257.667 146.343 257.24 146.514C257.026 146.6 256.812 146.728 256.556 146.813C256.428 146.856 256.342 146.899 256.214 146.941C256.684 146.771 256.171 146.941 256.086 146.984C254.12 147.796 252.112 148.522 250.104 149.163C248.993 149.505 247.882 149.804 246.771 150.103C245.489 150.445 244.164 150.701 242.968 151.256C242.198 151.598 241.771 152.752 242.027 153.521C242.369 154.503 243.096 155.059 244.036 155.102Z" fill="black"/>
<path d="M375.988 138.995C376.031 139.08 376.074 139.166 376.116 139.294C376.074 139.166 376.031 139.08 375.988 138.995C375.903 138.824 375.732 138.653 375.603 138.525C375.347 138.311 375.005 138.226 374.663 138.098C373.98 137.841 373.296 137.756 372.57 137.756C371.373 137.756 370.134 137.713 368.937 137.756C366.502 137.884 364.066 137.927 361.631 137.927C356.802 137.927 351.973 137.628 347.188 137.115C346.547 137.03 345.863 136.987 345.222 136.901C344.88 136.859 344.538 136.816 344.196 136.773C344.624 136.816 344.239 136.773 344.154 136.773C343.94 136.731 343.726 136.731 343.555 136.688C342.188 136.474 340.821 136.261 339.453 136.047C338.3 135.833 336.975 136.346 336.719 137.628C336.462 138.696 337.06 140.148 338.3 140.362C347.999 142.028 357.828 142.712 367.613 142.327C369.108 142.285 370.561 142.156 372.014 141.943C372.655 141.857 373.424 141.815 374.022 141.558C374.663 141.302 375.689 140.875 375.988 140.191C376.159 139.849 376.244 139.337 375.988 138.995Z" fill="black"/>
<path d="M335.738 266.247C335.882 272.793 339.014 278.493 340.726 282.943C343.585 290.381 346.46 297.789 349.409 305.045C356.021 321.327 362.782 337.367 370.066 352.202C374.324 360.873 379.954 374.584 386.541 374.609C403.785 373.112 402.549 303.107 401.924 279.79C401.695 270.324 396.604 266.099 393.006 272.361C390.472 276.778 390.509 283.113 390.236 289.115C389.766 299.556 389.269 309.996 388.539 320.42C388.197 325.274 387.912 336.479 386.592 343.387C383.929 339.895 381.504 334.083 379.395 329.984C375.857 323.114 372.453 315.908 369.073 308.656C362.438 294.411 355.944 279.83 349.522 265.128C347.855 261.308 346.044 255.189 343.68 253.112C340.01 249.886 335.521 257.267 335.718 266.23L335.738 266.247Z" fill="#167000"/>
<path d="M474.591 322.896C474.328 327.066 473.323 334.456 469.529 337.08C467.399 338.557 465.041 338.894 463.051 338.003C462.558 337.786 462.212 337.537 461.875 337.309C461.261 336.888 460.687 336.479 459.56 336.49C458.474 336.494 457.344 336.381 456.22 336.176C445.983 334.267 437.728 325.372 433.418 317.677C431.802 314.795 430.745 311.885 430.255 309.011C430.006 307.559 429.893 306.073 429.914 304.596C429.922 304.473 429.836 304.354 429.726 304.305C428.486 303.813 427.142 303.325 425.502 302.777C424.834 302.549 424.166 302.32 423.499 302.082C421.517 301.388 419.453 300.668 417.388 300.145C414.081 299.315 412.912 299.986 410.339 301.446C410.253 301.492 410.195 301.592 410.189 301.695C410.19 301.829 410.256 301.937 410.356 301.985C410.667 302.139 410.989 302.283 411.29 302.426C412.736 303.097 414.113 303.721 415.465 305.543C415.96 306.216 416.216 307.079 416.163 307.913C416.113 308.706 415.797 309.286 415.332 309.442C407.434 312.065 385.681 311.64 379.521 306.889C378.417 306.033 377.888 305.09 377.953 304.06C377.972 303.762 378.044 303.446 378.157 303.122C378.902 301.143 380.33 300.313 382.442 299.279C384.405 298.307 386.374 297.739 388.277 297.57C388.391 297.557 388.499 297.481 388.537 297.369C388.539 297.339 388.551 297.319 388.553 297.288C388.558 297.205 388.523 297.11 388.455 297.044C386.222 294.907 386.19 290.522 386.416 286.939L386.469 286.105C386.63 283.893 387.31 281.631 388.433 279.562C388.598 279.252 388.957 278.799 389.34 278.306C390.06 277.38 390.813 276.425 390.852 275.797C390.892 275.169 390.965 274.667 391.057 274.197C392.214 268.657 397.581 264.696 407.482 262.108C413.642 260.492 420.675 259.613 429.624 259.321C437.952 259.052 448.699 259.276 457.98 263.388C462.484 265.389 467.075 267.664 469.322 271.517C471.392 275.08 471.969 279.355 472.525 283.484L472.742 285.12C474.306 296.177 474.429 304.372 474.589 314.75L474.658 319.065C474.685 320.277 474.653 321.598 474.571 322.885L474.591 322.896Z" fill="white"/>
<path d="M429.643 259.353C420.704 259.646 413.67 260.535 407.501 262.14C397.61 264.729 392.233 268.679 391.076 274.229C390.974 274.698 390.911 275.191 390.871 275.829C390.831 276.467 390.089 277.413 389.358 278.338C388.976 278.821 388.616 279.284 388.452 279.594C387.329 281.663 386.648 283.925 386.488 286.137L386.435 286.971C386.208 290.554 386.231 294.939 388.463 297.075C388.531 297.141 388.567 297.226 388.561 297.319C388.559 297.35 388.558 297.371 388.546 297.401C388.508 297.512 388.4 297.588 388.285 297.601C386.383 297.76 384.414 298.339 382.45 299.31C380.337 300.355 378.9 301.184 378.165 303.154C378.042 303.466 377.981 303.783 377.961 304.092C377.95 304.277 377.98 304.455 378.01 304.632C389.624 298.658 404.615 300.588 416.103 307.062C416.003 306.518 415.798 306.009 415.474 305.575C414.121 303.753 412.755 303.118 411.298 302.458C410.987 302.314 410.675 302.17 410.365 302.016C410.264 301.968 410.199 301.861 410.197 301.726C410.204 301.623 410.261 301.534 410.347 301.477C412.92 300.017 414.089 299.357 417.397 300.176C419.462 300.689 421.515 301.408 423.507 302.113C417.233 295.08 405.546 294.031 398.893 290.871C390.059 285.733 399.854 275.663 407.655 273.097C421.541 270.925 436.844 270.363 445.303 281.587C459.365 295.098 462.588 316.555 458.786 336.472C459.053 336.489 459.321 336.506 459.579 336.512C460.706 336.511 461.28 336.909 461.894 337.331C462.231 337.569 462.577 337.808 463.07 338.025C465.061 338.916 467.418 338.579 469.548 337.101C473.342 334.478 474.347 327.088 474.611 322.918C474.692 321.631 474.724 320.31 474.697 319.099L474.629 314.784C474.468 304.405 474.335 296.21 472.781 285.154L472.564 283.517C472.009 279.388 471.441 275.124 469.362 271.551C467.124 267.698 462.534 265.423 458.019 263.422C448.738 259.31 437.991 259.095 429.664 259.354L429.643 259.353Z" fill="#D1D6D0"/>
<path d="M390.572 275.81C390.518 276.665 388.673 278.554 388.193 279.443C387.071 281.492 386.358 283.772 386.2 286.109C385.967 289.309 385.652 294.778 388.274 297.291C386.216 297.46 384.222 298.099 382.324 299.023C380.104 300.123 378.653 301.003 377.884 303.033C374.662 311.647 405.786 312.953 415.438 309.739C416.62 309.348 416.905 306.968 415.714 305.363C414.029 303.085 412.322 302.615 410.498 301.704C413.114 300.216 414.194 299.653 417.318 300.44C420.055 301.13 422.739 302.158 425.401 303.06C426.818 303.542 428.223 304.045 429.605 304.587C429.593 306.085 429.705 307.581 429.953 309.054C430.47 312.157 431.618 315.083 433.151 317.816C437.879 326.26 446.332 334.631 456.161 336.462C457.274 336.666 458.415 336.78 459.552 336.779C461.164 336.778 461.482 337.635 462.92 338.274C465.212 339.308 467.699 338.711 469.689 337.327C474.272 334.154 475.066 324.208 474.978 319.065C474.755 306.419 474.824 297.636 473.054 285.088C472.403 280.499 471.977 275.479 469.59 271.379C467.23 267.333 462.303 264.985 458.11 263.128C449.282 259.21 439.14 258.734 429.622 259.031C422.174 259.274 414.638 259.945 407.417 261.824C400.963 263.515 392.315 266.731 390.771 274.148C390.654 274.689 390.588 275.243 390.563 275.789L390.572 275.81ZM433.835 316.474C428.901 307.375 430.899 293.763 441.029 284.769C438.757 286.042 436.719 287.711 435.033 289.693C431.759 293.559 429.917 298.497 429.65 303.535C425.445 301.378 418.001 299.439 413.977 299.495C414.891 298.932 421.553 297.214 421.633 296.599C418.978 296.741 412.851 298.824 412.117 299.15C411.063 299.631 408.95 300.686 408.211 300.929C407.521 300.73 399.836 298.673 399.715 299.441C404.583 300.265 421.229 307.241 411.899 309.794C407.186 311.088 400.05 310.161 394.083 309.722C390.707 309.477 387.266 309.146 384.022 308.134C381.538 307.357 378.215 305.638 379.806 302.544C380.984 300.262 384.463 299.024 386.813 298.646C387.607 298.52 395.174 298.182 395.134 297.838C394.963 296.453 389.741 298.117 389.003 296.551C387.9 294.207 387.68 290.823 387.679 288.218C387.676 280.754 391.729 274.198 398.384 270.794C405.221 267.299 413.978 267.273 421.495 267.232C431.381 267.175 440.834 268.238 450.26 271.046C454.47 272.304 458.394 273.669 460.207 278.022C461.491 281.101 461.974 284.419 462.731 287.651C465.104 297.693 465.546 307.862 464.402 318.107C463.851 323.065 462.951 327.98 461.817 332.839C461.165 335.631 461.432 336.299 458.456 335.8C456.288 335.426 454.181 334.744 452.171 333.842C444.472 330.378 437.823 323.869 433.815 316.472L433.835 316.474ZM467.396 270.103C472.508 278.19 472.386 289.77 472.836 298.989C473.083 304.08 473.569 309.145 473.65 314.236C473.748 321.024 473.419 344.045 461.94 336.445C465.922 326.597 466.806 315.891 466.444 305.107C465.961 291.008 462.389 279.152 461.039 276.317C460.107 274.377 459.35 273.595 457.091 272.377C447.165 267.025 434.838 265.967 423.722 266.018C412.338 266.074 399.287 266.479 391.046 275.509C393.527 263.582 410.732 261.548 420.496 260.646C436.863 259.117 454.187 259.127 467.417 270.105L467.396 270.103Z" fill="black"/>
<path d="M258.573 439.989C263.87 439.781 268.494 439.407 272.724 438.841C277.25 438.227 282.428 436.864 283.426 434.855C283.801 434.09 283.574 433.277 282.734 432.376C281.4 430.949 281.301 424.253 281.321 417.51C281.321 416.043 281.321 414.815 281.291 414.082C281.252 413.269 281.203 412.296 281.153 411.22C280.56 399.415 280.204 387.84 283.001 387.306C284.651 386.987 286.035 386.485 287.112 385.808C289.256 384.46 290.047 381.782 288.901 379.709C286.084 374.624 276.963 374.138 270.935 373.819L270.204 373.779C268.909 373.707 267.526 373.699 266.113 373.755C262.862 373.882 254.818 374.544 250.361 378.02C248.632 379.375 248.019 381.152 248.632 383.026C249.383 385.297 251.794 387.218 254.62 387.792C254.699 387.808 254.759 387.848 254.798 387.904C254.838 387.96 254.848 388.024 254.828 388.087C253.691 391.14 252.308 394.177 250.974 397.119L250.895 397.286C250.203 398.801 249.511 400.323 248.859 401.846C248.82 401.942 248.711 401.997 248.592 402.005C246.824 401.734 245.144 401.623 243.523 401.686C243.227 401.694 242.92 401.718 242.624 401.742C237.693 402.133 232.001 404.102 227.416 407.011C218.097 412.926 215.567 422.356 215.083 429.219C215.083 429.299 215.014 429.379 214.915 429.419C214.875 429.435 214.836 429.443 214.796 429.443C214.737 429.443 214.678 429.435 214.619 429.403C214.164 429.164 213.749 429.044 213.373 429.06C212.277 429.1 211.506 430.272 210.962 431.284C210.112 432.854 210.053 434.194 210.784 435.254C212.494 437.749 218.265 438.434 221.368 438.801C228.404 439.638 241.013 439.981 245.756 440.108C246.685 440.132 247.169 440.148 247.426 440.172C251.547 440.172 255.193 440.108 258.573 439.973V439.989Z" fill="white"/>
<path d="M270.283 421.296C277.151 413.954 276.528 403.368 268.741 395.413C266.222 392.663 260.806 389.251 254.294 389.45C254.472 389.004 254.66 388.55 254.828 388.095C254.848 388.031 254.838 387.968 254.798 387.912C254.759 387.856 254.689 387.816 254.62 387.8C253.938 387.657 253.276 387.434 252.654 387.155C264.799 388.231 278.436 390.224 286.865 380.57C286.825 379.837 286.726 378.203 285.936 376.808C287.191 377.557 288.229 378.498 288.9 379.709C290.047 381.782 289.266 384.46 287.112 385.808C286.035 386.485 284.651 386.987 283.001 387.306C280.204 387.84 280.56 399.415 281.153 411.22C281.212 412.296 281.252 413.269 281.291 414.082C281.321 414.815 281.321 416.043 281.321 417.509C281.301 424.253 281.4 430.949 282.734 432.376C283.584 433.277 283.801 434.09 283.426 434.855C282.428 436.864 277.25 438.235 272.724 438.841C268.494 439.407 263.87 439.789 258.573 439.989C255.193 440.116 251.547 440.18 247.426 440.188C247.169 440.156 246.685 440.148 245.756 440.124C243.612 440.068 239.847 439.965 235.726 439.789C249.205 436.625 261.547 429.841 270.273 421.304L270.283 421.296Z" fill="#D1D6D0"/>
<path d="M210.705 431.196C211.624 429.498 212.79 428.135 214.797 429.211C215.389 420.786 218.749 412.217 227.238 406.828C231.497 404.126 237.159 401.942 242.594 401.511C244.59 401.36 246.616 401.463 248.583 401.774C249.245 400.244 249.927 398.729 250.628 397.207C252.012 394.169 253.405 391.124 254.561 388.024C249.225 386.932 245.667 381.36 250.164 377.844C254.828 374.209 264.087 373.197 270.224 373.532C276.449 373.867 286.163 374.177 289.167 379.598C290.343 381.726 289.592 384.54 287.29 385.983C286.064 386.748 284.572 387.234 283.07 387.521C279.918 388.127 281.282 406.955 281.588 414.058C281.726 417.358 281.193 430.311 282.971 432.217C287.132 436.665 276.153 438.602 272.783 439.056C264.591 440.156 255.727 440.411 247.436 440.395C247.743 440.355 230.104 440.076 221.338 439.032C215.992 438.394 207.474 437.175 210.715 431.188L210.705 431.196ZM286.035 377.278C280.373 373.651 268.336 373.739 262.565 374.353C258.208 374.815 254.611 376.154 253.83 376.385C251.34 377.119 249.64 378.801 248.978 380.849C247.733 384.739 253.879 387.298 257.407 387.45C264.818 387.776 275.629 388.271 282.853 386.756C288.555 385.56 290.828 380.347 286.035 377.278ZM281.183 387.848C276.904 388.446 272.615 388.167 268.307 388.311C263.89 388.454 259.374 388.892 255.006 388.111C254.423 392.974 251.755 397.446 249.778 401.997C255.075 403.089 266.39 407.96 269.502 418.689C262.674 402.818 242.891 398.665 228.601 406.9C224.629 409.187 221.23 412.392 219.253 416.003C217.089 419.949 217 424.341 215.735 428.486C215.152 430.399 219.085 430.981 221.121 431.467C223.591 432.057 226.121 432.432 228.661 432.751C234.778 433.532 240.875 434.273 247.061 434.576C253.069 434.871 259.038 434.775 265.016 434.154C267.052 433.946 281.262 432.488 281.143 431.029C280.748 425.975 280.669 420.905 280.59 415.844C280.491 409.833 280.461 403.815 280.56 397.796C280.6 395.58 280.649 393.364 280.768 391.148C280.817 390.256 280.59 388.661 281.183 387.84V387.848ZM269.404 438.713C271.785 438.594 288.061 436.752 282.151 431.818C282.132 432.033 281.242 432.001 281.222 431.834C273.613 435.023 263.643 435.246 255.233 435.357C245.381 435.493 236.29 434.481 226.595 433.149C222.366 432.567 218.285 431.818 214.619 429.929C211.229 428.175 208.897 435.086 213.462 436.681C222.989 439.997 238.612 440.276 269.404 438.721V438.713Z" fill="black"/>
<path d="M271.874 379.311C269.592 379.701 263.139 381.854 262.981 381.567C262.773 381.2 264.651 380.451 264.888 380.339C264.295 380.004 258.761 377.645 258.761 377.509C258.781 377.039 262.822 378.107 263.198 378.243C264.127 378.585 265.411 379.08 265.896 379.877C266.993 379.399 269.7 378.649 271.024 378.386C273.554 377.892 279.493 377.908 281.44 378.761C281.469 378.777 274.226 378.92 271.874 379.319V379.311Z" fill="#167000"/>
<path d="M276.38 280.012C276.005 308.103 275.273 378.314 275.273 378.314L265.658 380.092L262.14 378.625C262.14 378.625 262.348 304.771 262.625 280.156C262.704 273.276 276.469 273.332 276.38 280.02V280.012Z" fill="#167000"/>
<path d="M11.568 273.752L11.208 275.912H7.176V290H4.344V275.912H0.24V273.752H11.568ZM16.2261 277.76C18.0661 277.76 19.4021 278.304 20.2341 279.392C21.0661 280.48 21.4821 281.976 21.4821 283.88C21.4821 284.776 21.3701 285.616 21.1461 286.4C20.9221 287.168 20.5781 287.84 20.1141 288.416C19.6661 288.976 19.0981 289.424 18.4101 289.76C17.7221 290.08 16.9221 290.24 16.0101 290.24C15.0981 290.24 14.3061 290.104 13.6341 289.832C12.9781 289.544 12.4341 289.136 12.0021 288.608C11.5701 288.08 11.2501 287.44 11.0421 286.688C10.8501 285.936 10.7541 285.088 10.7541 284.144C10.7541 283.232 10.8661 282.392 11.0901 281.624C11.3141 280.84 11.6501 280.168 12.0981 279.608C12.5621 279.032 13.1381 278.584 13.8261 278.264C14.5141 277.928 15.3141 277.76 16.2261 277.76ZM15.9861 279.776C15.5221 279.776 15.1381 279.88 14.8341 280.088C14.5461 280.296 14.3141 280.592 14.1381 280.976C13.9781 281.344 13.8661 281.784 13.8021 282.296C13.7381 282.792 13.7061 283.328 13.7061 283.904C13.7061 284.496 13.7381 285.056 13.8021 285.584C13.8821 286.112 14.0181 286.576 14.2101 286.976C14.4021 287.36 14.6581 287.664 14.9781 287.888C15.3141 288.112 15.7381 288.224 16.2501 288.224C16.7141 288.224 17.0901 288.12 17.3781 287.912C17.6821 287.704 17.9141 287.416 18.0741 287.048C18.2501 286.664 18.3701 286.224 18.4341 285.728C18.4981 285.232 18.5301 284.696 18.5301 284.12C18.5301 283.528 18.4901 282.968 18.4101 282.44C18.3461 281.912 18.2181 281.448 18.0261 281.048C17.8341 280.648 17.5701 280.336 17.2341 280.112C16.9141 279.888 16.4981 279.776 15.9861 279.776ZM26.3925 290.096C25.5445 290.096 24.8965 289.848 24.4485 289.352C24.0005 288.84 23.7765 288.184 23.7765 287.384V278.048H26.5125V287.144C26.5125 287.512 26.5685 287.76 26.6805 287.888C26.7925 288.016 26.9605 288.08 27.1845 288.08C27.2485 288.08 27.3125 288.08 27.3765 288.08C27.4565 288.08 27.5285 288.072 27.5925 288.056C27.6565 288.056 27.7285 288.048 27.8085 288.032L28.0965 289.76C27.9845 289.824 27.8405 289.88 27.6645 289.928C27.5205 289.976 27.3365 290.016 27.1125 290.048C26.9045 290.08 26.6645 290.096 26.3925 290.096ZM25.1925 272.72C25.7045 272.72 26.0965 272.872 26.3685 273.176C26.6405 273.48 26.7765 273.872 26.7765 274.352C26.7765 274.832 26.6325 275.232 26.3445 275.552C26.0725 275.872 25.6645 276.032 25.1205 276.032C24.6085 276.032 24.2085 275.88 23.9205 275.576C23.6485 275.256 23.5125 274.872 23.5125 274.424C23.5125 273.928 23.6485 273.52 23.9205 273.2C24.2085 272.88 24.6325 272.72 25.1925 272.72ZM45.7783 284.216C45.7783 285.176 45.8343 285.984 45.9463 286.64C46.0743 287.28 46.2103 287.8 46.3543 288.2C46.5303 288.68 46.7223 289.056 46.9303 289.328L44.7943 290.192C44.5863 289.984 44.3943 289.736 44.2183 289.448C44.0743 289.192 43.9383 288.888 43.8103 288.536C43.6823 288.168 43.6023 287.736 43.5703 287.24C43.2983 288.2 42.8583 288.928 42.2503 289.424C41.6583 289.904 40.8503 290.144 39.8263 290.144C39.0743 290.144 38.4183 290.008 37.8583 289.736C37.3143 289.448 36.8583 289.048 36.4903 288.536C36.1223 288.008 35.8503 287.376 35.6743 286.64C35.4983 285.904 35.4103 285.088 35.4103 284.192C35.4103 283.28 35.5463 282.44 35.8183 281.672C36.1063 280.888 36.4983 280.216 36.9943 279.656C37.5063 279.096 38.1143 278.656 38.8183 278.336C39.5223 278.016 40.2983 277.856 41.1463 277.856C41.6263 277.856 42.1223 277.896 42.6343 277.976C43.1623 278.04 43.6503 278.112 44.0983 278.192C44.5463 278.272 44.9223 278.352 45.2263 278.432C45.5463 278.496 45.7303 278.536 45.7783 278.552V284.216ZM40.2823 288.224C40.6823 288.224 41.0503 288.088 41.3863 287.816C41.7223 287.544 42.0103 287.192 42.2503 286.76C42.5063 286.312 42.6983 285.808 42.8263 285.248C42.9703 284.672 43.0423 284.088 43.0423 283.496V280.04C42.8823 279.992 42.6423 279.936 42.3223 279.872C42.0023 279.808 41.7143 279.776 41.4583 279.776C40.8503 279.776 40.3463 279.88 39.9463 280.088C39.5623 280.296 39.2503 280.584 39.0103 280.952C38.7703 281.32 38.6023 281.76 38.5063 282.272C38.4103 282.784 38.3623 283.344 38.3623 283.952C38.3623 284.512 38.3783 285.048 38.4103 285.56C38.4423 286.072 38.5223 286.528 38.6503 286.928C38.7943 287.328 38.9943 287.648 39.2503 287.888C39.5063 288.112 39.8503 288.224 40.2823 288.224ZM56.1015 278.048H58.8375V284.216C58.8375 285.176 58.8935 285.984 59.0055 286.64C59.1335 287.28 59.2695 287.8 59.4135 288.2C59.5895 288.68 59.7815 289.056 59.9895 289.328L57.8535 290.192C57.6615 290.016 57.4855 289.792 57.3255 289.52C57.1975 289.296 57.0615 289.024 56.9175 288.704C56.7895 288.368 56.7015 287.976 56.6535 287.528C56.2215 288.472 55.6135 289.144 54.8295 289.544C54.0455 289.944 53.2295 290.144 52.3815 290.144C51.1175 290.144 50.2135 289.776 49.6695 289.04C49.1415 288.304 48.8775 287.296 48.8775 286.016V278.048H51.6135V285.968C51.6135 286.64 51.7335 287.168 51.9735 287.552C52.2135 287.936 52.6215 288.128 53.1975 288.128C53.5495 288.128 53.8935 288.032 54.2295 287.84C54.5815 287.632 54.8935 287.344 55.1655 286.976C55.4535 286.608 55.6775 286.168 55.8375 285.656C56.0135 285.128 56.1015 284.544 56.1015 283.904V278.048ZM65.6974 277.76C66.1614 277.76 66.6174 277.808 67.0654 277.904C67.5134 278 67.9134 278.112 68.2654 278.24C68.6814 278.384 69.0654 278.536 69.4174 278.696L68.6014 280.568C68.2814 280.424 67.9614 280.296 67.6414 280.184C67.3694 280.088 67.0654 280 66.7294 279.92C66.4094 279.824 66.0894 279.776 65.7694 279.776C65.4014 279.776 65.0814 279.864 64.8094 280.04C64.5534 280.216 64.4254 280.48 64.4254 280.832C64.4254 281.744 65.0894 282.456 66.4174 282.968C66.9134 283.16 67.3614 283.368 67.7614 283.592C68.1614 283.8 68.4974 284.048 68.7694 284.336C69.0574 284.624 69.2734 284.96 69.4174 285.344C69.5614 285.712 69.6334 286.152 69.6334 286.664C69.6334 287.112 69.5374 287.552 69.3454 287.984C69.1694 288.416 68.8974 288.8 68.5294 289.136C68.1774 289.472 67.7374 289.744 67.2094 289.952C66.6974 290.144 66.1134 290.24 65.4574 290.24C64.9294 290.24 64.4094 290.176 63.8974 290.048C63.3854 289.936 62.9214 289.808 62.5054 289.664C62.1054 289.52 61.7854 289.384 61.5454 289.256L61.1854 289.088L62.0734 287.072L62.3854 287.24C62.5934 287.368 62.8574 287.504 63.1774 287.648C63.4974 287.792 63.8414 287.928 64.2094 288.056C64.5774 288.168 64.9134 288.224 65.2174 288.224C65.7774 288.224 66.1934 288.112 66.4654 287.888C66.7374 287.664 66.8734 287.368 66.8734 287C66.8734 286.584 66.7214 286.208 66.4174 285.872C66.1294 285.52 65.6894 285.232 65.0974 285.008C63.8654 284.544 62.9774 284.016 62.4334 283.424C61.9054 282.832 61.6414 282.064 61.6414 281.12C61.6414 280.672 61.7454 280.248 61.9534 279.848C62.1614 279.432 62.4414 279.072 62.7934 278.768C63.1614 278.448 63.5934 278.2 64.0894 278.024C64.5854 277.848 65.1214 277.76 65.6974 277.76ZM75.588 277.76C76.052 277.76 76.508 277.808 76.956 277.904C77.404 278 77.804 278.112 78.156 278.24C78.572 278.384 78.956 278.536 79.308 278.696L78.492 280.568C78.172 280.424 77.852 280.296 77.532 280.184C77.26 280.088 76.956 280 76.62 279.92C76.3 279.824 75.98 279.776 75.66 279.776C75.292 279.776 74.972 279.864 74.7 280.04C74.444 280.216 74.316 280.48 74.316 280.832C74.316 281.744 74.98 282.456 76.308 282.968C76.804 283.16 77.252 283.368 77.652 283.592C78.052 283.8 78.388 284.048 78.66 284.336C78.948 284.624 79.164 284.96 79.308 285.344C79.452 285.712 79.524 286.152 79.524 286.664C79.524 287.112 79.428 287.552 79.236 287.984C79.06 288.416 78.788 288.8 78.42 289.136C78.068 289.472 77.628 289.744 77.1 289.952C76.588 290.144 76.004 290.24 75.348 290.24C74.82 290.24 74.3 290.176 73.788 290.048C73.276 289.936 72.812 289.808 72.396 289.664C71.996 289.52 71.676 289.384 71.436 289.256L71.076 289.088L71.964 287.072L72.276 287.24C72.484 287.368 72.748 287.504 73.068 287.648C73.388 287.792 73.732 287.928 74.1 288.056C74.468 288.168 74.804 288.224 75.108 288.224C75.668 288.224 76.084 288.112 76.356 287.888C76.628 287.664 76.764 287.368 76.764 287C76.764 286.584 76.612 286.208 76.308 285.872C76.02 285.52 75.58 285.232 74.988 285.008C73.756 284.544 72.868 284.016 72.324 283.424C71.796 282.832 71.532 282.064 71.532 281.12C71.532 280.672 71.636 280.248 71.844 279.848C72.052 279.432 72.332 279.072 72.684 278.768C73.052 278.448 73.484 278.2 73.98 278.024C74.476 277.848 75.012 277.76 75.588 277.76ZM84.4706 290.096C83.6226 290.096 82.9746 289.848 82.5266 289.352C82.0786 288.84 81.8546 288.184 81.8546 287.384V278.048H84.5906V287.144C84.5906 287.512 84.6466 287.76 84.7586 287.888C84.8706 288.016 85.0386 288.08 85.2626 288.08C85.3266 288.08 85.3906 288.08 85.4546 288.08C85.5346 288.08 85.6066 288.072 85.6706 288.056C85.7346 288.056 85.8066 288.048 85.8866 288.032L86.1746 289.76C86.0626 289.824 85.9186 289.88 85.7426 289.928C85.5986 289.976 85.4146 290.016 85.1906 290.048C84.9826 290.08 84.7426 290.096 84.4706 290.096ZM83.2706 272.72C83.7826 272.72 84.1746 272.872 84.4466 273.176C84.7186 273.48 84.8546 273.872 84.8546 274.352C84.8546 274.832 84.7106 275.232 84.4226 275.552C84.1506 275.872 83.7426 276.032 83.1986 276.032C82.6866 276.032 82.2866 275.88 81.9986 275.576C81.7266 275.256 81.5906 274.872 81.5906 274.424C81.5906 273.928 81.7266 273.52 81.9986 273.2C82.2866 272.88 82.7106 272.72 83.2706 272.72ZM88.6193 287.048C88.6353 287.032 88.7633 286.96 89.0033 286.832C89.2433 286.688 89.6433 286.616 90.2033 286.616C90.7633 286.616 91.1713 286.784 91.4273 287.12C91.6833 287.456 91.8113 287.88 91.8113 288.392C91.8113 289.048 91.7153 289.64 91.5233 290.168C91.3473 290.696 91.1073 291.176 90.8033 291.608C90.4993 292.04 90.1473 292.416 89.7473 292.736C89.3633 293.056 88.9553 293.32 88.5233 293.528L87.4913 292.136C88.1153 291.672 88.5313 291.208 88.7393 290.744C88.9633 290.28 89.0753 289.832 89.0753 289.4C89.0753 288.936 89.0033 288.504 88.8593 288.104C88.7153 287.704 88.6353 287.352 88.6193 287.048ZM99.615 278.048H101.775L102.255 275.24L104.511 274.736V278.048H107.463L107.127 279.992H104.511V287.096C104.511 287.512 104.623 287.784 104.847 287.912C105.071 288.024 105.319 288.08 105.591 288.08C105.815 288.08 106.039 288.064 106.263 288.032C106.487 288 106.687 287.96 106.863 287.912C107.071 287.864 107.271 287.808 107.463 287.744L107.919 289.544L107.703 289.616C107.559 289.68 107.343 289.752 107.055 289.832C106.783 289.896 106.455 289.952 106.071 290C105.703 290.064 105.295 290.096 104.847 290.096C104.399 290.096 103.983 290.048 103.599 289.952C103.231 289.856 102.911 289.704 102.639 289.496C102.367 289.272 102.151 288.992 101.991 288.656C101.847 288.32 101.775 287.904 101.775 287.408V279.992H99.615V278.048ZM116.711 278.048H119.447V284.216C119.447 285.176 119.503 285.984 119.615 286.64C119.743 287.28 119.879 287.8 120.023 288.2C120.199 288.68 120.391 289.056 120.599 289.328L118.463 290.192C118.271 290.016 118.095 289.792 117.935 289.52C117.807 289.296 117.671 289.024 117.527 288.704C117.399 288.368 117.311 287.976 117.263 287.528C116.831 288.472 116.223 289.144 115.439 289.544C114.655 289.944 113.839 290.144 112.991 290.144C111.727 290.144 110.823 289.776 110.279 289.04C109.751 288.304 109.487 287.296 109.487 286.016V278.048H112.223V285.968C112.223 286.64 112.343 287.168 112.583 287.552C112.823 287.936 113.231 288.128 113.807 288.128C114.159 288.128 114.503 288.032 114.839 287.84C115.191 287.632 115.503 287.344 115.775 286.976C116.063 286.608 116.287 286.168 116.447 285.656C116.623 285.128 116.711 284.544 116.711 283.904V278.048ZM128.176 284.312C128.176 283.24 128.32 282.296 128.608 281.48C128.912 280.664 129.32 279.984 129.832 279.44C130.36 278.88 130.976 278.464 131.68 278.192C132.384 277.904 133.144 277.76 133.96 277.76C134.68 277.76 135.288 277.848 135.784 278.024C136.296 278.2 136.712 278.44 137.032 278.744C137.352 279.048 137.584 279.408 137.728 279.824C137.888 280.24 137.968 280.688 137.968 281.168C137.968 281.744 137.808 282.296 137.488 282.824C137.168 283.336 136.704 283.792 136.096 284.192C135.504 284.576 134.784 284.888 133.936 285.128C133.088 285.352 132.136 285.472 131.08 285.488C131.128 285.856 131.2 286.208 131.296 286.544C131.408 286.864 131.56 287.152 131.752 287.408C131.96 287.648 132.224 287.84 132.544 287.984C132.864 288.128 133.264 288.2 133.744 288.2C134.096 288.2 134.472 288.16 134.872 288.08C135.272 288 135.64 287.904 135.976 287.792C136.376 287.664 136.768 287.52 137.152 287.36L137.872 289.064C137.456 289.272 137.008 289.456 136.528 289.616C136.112 289.76 135.632 289.888 135.088 290C134.544 290.112 133.968 290.168 133.36 290.168C132.432 290.168 131.64 290.032 130.984 289.76C130.328 289.472 129.792 289.072 129.376 288.56C128.96 288.048 128.656 287.432 128.464 286.712C128.272 285.992 128.176 285.192 128.176 284.312ZM133.744 279.632C133.216 279.632 132.776 279.76 132.424 280.016C132.088 280.256 131.816 280.576 131.608 280.976C131.4 281.36 131.248 281.8 131.152 282.296C131.072 282.776 131.024 283.264 131.008 283.76C131.776 283.728 132.424 283.632 132.952 283.472C133.496 283.296 133.936 283.088 134.272 282.848C134.608 282.592 134.848 282.32 134.992 282.032C135.152 281.744 135.232 281.456 135.232 281.168C135.232 280.704 135.096 280.336 134.824 280.064C134.552 279.776 134.192 279.632 133.744 279.632ZM143.768 277.76C144.232 277.76 144.688 277.808 145.136 277.904C145.584 278 145.984 278.112 146.336 278.24C146.752 278.384 147.136 278.536 147.488 278.696L146.672 280.568C146.352 280.424 146.032 280.296 145.712 280.184C145.44 280.088 145.136 280 144.8 279.92C144.48 279.824 144.16 279.776 143.84 279.776C143.472 279.776 143.152 279.864 142.88 280.04C142.624 280.216 142.496 280.48 142.496 280.832C142.496 281.744 143.16 282.456 144.488 282.968C144.984 283.16 145.432 283.368 145.832 283.592C146.232 283.8 146.568 284.048 146.84 284.336C147.128 284.624 147.344 284.96 147.488 285.344C147.632 285.712 147.704 286.152 147.704 286.664C147.704 287.112 147.608 287.552 147.416 287.984C147.24 288.416 146.968 288.8 146.6 289.136C146.248 289.472 145.808 289.744 145.28 289.952C144.768 290.144 144.184 290.24 143.528 290.24C143 290.24 142.48 290.176 141.968 290.048C141.456 289.936 140.992 289.808 140.576 289.664C140.176 289.52 139.856 289.384 139.616 289.256L139.256 289.088L140.144 287.072L140.456 287.24C140.664 287.368 140.928 287.504 141.248 287.648C141.568 287.792 141.912 287.928 142.28 288.056C142.648 288.168 142.984 288.224 143.288 288.224C143.848 288.224 144.264 288.112 144.536 287.888C144.808 287.664 144.944 287.368 144.944 287C144.944 286.584 144.792 286.208 144.488 285.872C144.2 285.52 143.76 285.232 143.168 285.008C141.936 284.544 141.048 284.016 140.504 283.424C139.976 282.832 139.712 282.064 139.712 281.12C139.712 280.672 139.816 280.248 140.024 279.848C140.232 279.432 140.512 279.072 140.864 278.768C141.232 278.448 141.664 278.2 142.16 278.024C142.656 277.848 143.192 277.76 143.768 277.76ZM156.464 295.304V283.952C156.464 282.992 156.4 282.192 156.271 281.552C156.144 280.896 156.008 280.368 155.864 279.968C155.688 279.504 155.496 279.128 155.288 278.84L157.448 277.976C157.64 278.168 157.816 278.408 157.976 278.696C158.104 278.936 158.232 279.232 158.36 279.584C158.488 279.92 158.584 280.32 158.648 280.784C158.92 279.824 159.352 279.096 159.944 278.6C160.536 278.104 161.36 277.856 162.416 277.856C163.168 277.856 163.816 278 164.36 278.288C164.92 278.56 165.376 278.96 165.728 279.488C166.096 280 166.368 280.624 166.544 281.36C166.72 282.096 166.807 282.912 166.807 283.808C166.807 284.72 166.672 285.568 166.4 286.352C166.128 287.12 165.736 287.784 165.224 288.344C164.728 288.904 164.128 289.344 163.424 289.664C162.72 289.984 161.936 290.144 161.072 290.144C160.768 290.144 160.456 290.128 160.136 290.096C159.832 290.064 159.52 290.032 159.2 290V294.824L156.464 295.304ZM161.96 279.776C161.56 279.776 161.192 279.912 160.855 280.184C160.52 280.456 160.224 280.816 159.968 281.264C159.728 281.712 159.536 282.216 159.392 282.776C159.264 283.336 159.2 283.912 159.2 284.504V287.96C159.36 288.008 159.6 288.064 159.92 288.128C160.24 288.192 160.52 288.224 160.76 288.224C161.368 288.224 161.872 288.12 162.272 287.912C162.672 287.704 162.992 287.416 163.232 287.048C163.472 286.68 163.64 286.24 163.736 285.728C163.832 285.216 163.88 284.656 163.88 284.048C163.88 283.488 163.864 282.952 163.832 282.44C163.8 281.928 163.712 281.472 163.568 281.072C163.44 280.672 163.248 280.36 162.992 280.136C162.736 279.896 162.392 279.776 161.96 279.776ZM168.512 284.312C168.512 283.24 168.656 282.296 168.944 281.48C169.248 280.664 169.656 279.984 170.168 279.44C170.696 278.88 171.312 278.464 172.016 278.192C172.72 277.904 173.48 277.76 174.296 277.76C175.016 277.76 175.624 277.848 176.12 278.024C176.632 278.2 177.048 278.44 177.368 278.744C177.688 279.048 177.92 279.408 178.064 279.824C178.224 280.24 178.304 280.688 178.304 281.168C178.304 281.744 178.144 282.296 177.824 282.824C177.504 283.336 177.04 283.792 176.432 284.192C175.84 284.576 175.12 284.888 174.272 285.128C173.424 285.352 172.472 285.472 171.416 285.488C171.464 285.856 171.536 286.208 171.632 286.544C171.744 286.864 171.896 287.152 172.088 287.408C172.296 287.648 172.56 287.84 172.88 287.984C173.2 288.128 173.6 288.2 174.08 288.2C174.432 288.2 174.808 288.16 175.208 288.08C175.608 288 175.976 287.904 176.312 287.792C176.712 287.664 177.104 287.52 177.488 287.36L178.208 289.064C177.792 289.272 177.344 289.456 176.864 289.616C176.448 289.76 175.968 289.888 175.424 290C174.88 290.112 174.304 290.168 173.696 290.168C172.768 290.168 171.976 290.032 171.32 289.76C170.664 289.472 170.128 289.072 169.712 288.56C169.296 288.048 168.992 287.432 168.8 286.712C168.608 285.992 168.512 285.192 168.512 284.312ZM174.08 279.632C173.552 279.632 173.112 279.76 172.76 280.016C172.424 280.256 172.152 280.576 171.944 280.976C171.736 281.36 171.584 281.8 171.488 282.296C171.408 282.776 171.36 283.264 171.344 283.76C172.112 283.728 172.76 283.632 173.288 283.472C173.832 283.296 174.272 283.088 174.608 282.848C174.944 282.592 175.184 282.32 175.328 282.032C175.488 281.744 175.568 281.456 175.568 281.168C175.568 280.704 175.432 280.336 175.16 280.064C174.888 279.776 174.528 279.632 174.08 279.632ZM185.928 280.544C185.64 280.544 185.352 280.616 185.064 280.76C184.776 280.904 184.52 281.104 184.296 281.36C184.072 281.6 183.888 281.896 183.744 282.248C183.6 282.6 183.528 282.992 183.528 283.424V290H180.792V283.952C180.792 282.992 180.728 282.192 180.6 281.552C180.472 280.896 180.336 280.368 180.192 279.968C180.016 279.504 179.824 279.128 179.616 278.84L181.776 277.976C181.92 278.152 182.072 278.368 182.232 278.624C182.36 278.848 182.488 279.112 182.616 279.416C182.744 279.72 182.848 280.08 182.928 280.496C183.248 279.568 183.712 278.904 184.32 278.504C184.928 278.088 185.616 277.88 186.384 277.88C186.752 277.88 187.096 277.928 187.416 278.024C187.736 278.104 187.888 278.144 187.872 278.144L187.104 280.808C187.12 280.808 187.024 280.768 186.816 280.688C186.624 280.592 186.328 280.544 185.928 280.544ZM197.372 290.192C197.34 290.176 197.268 290.104 197.156 289.976C197.044 289.832 196.916 289.64 196.772 289.4C196.644 289.16 196.516 288.864 196.388 288.512C196.26 288.144 196.18 287.72 196.148 287.24C195.876 288.2 195.436 288.928 194.828 289.424C194.236 289.904 193.428 290.144 192.404 290.144C191.652 290.144 190.996 290.008 190.436 289.736C189.892 289.448 189.436 289.048 189.068 288.536C188.7 288.008 188.428 287.376 188.252 286.64C188.076 285.904 187.988 285.088 187.988 284.192C187.988 283.28 188.124 282.44 188.396 281.672C188.684 280.888 189.076 280.216 189.572 279.656C190.084 279.096 190.692 278.656 191.396 278.336C192.1 278.016 192.876 277.856 193.724 277.856C194.012 277.856 194.316 277.872 194.636 277.904C194.972 277.936 195.3 277.976 195.62 278.024V272.6L198.356 273.08V284.216C198.356 285.176 198.412 285.976 198.524 286.616C198.636 287.24 198.764 287.752 198.908 288.152C199.052 288.536 199.18 288.816 199.292 288.992C199.42 289.168 199.492 289.28 199.508 289.328L197.372 290.192ZM192.86 288.2C193.26 288.2 193.628 288.064 193.964 287.792C194.3 287.52 194.588 287.168 194.828 286.736C195.084 286.288 195.276 285.784 195.404 285.224C195.548 284.664 195.62 284.088 195.62 283.496V280.04C195.46 279.992 195.22 279.936 194.9 279.872C194.58 279.808 194.292 279.776 194.036 279.776C193.428 279.776 192.924 279.88 192.524 280.088C192.14 280.296 191.828 280.584 191.588 280.952C191.348 281.32 191.18 281.76 191.084 282.272C190.988 282.784 190.94 283.344 190.94 283.952C190.94 284.512 190.956 285.048 190.988 285.56C191.02 286.072 191.1 286.528 191.228 286.928C191.372 287.312 191.572 287.624 191.828 287.864C192.084 288.088 192.428 288.2 192.86 288.2ZM208.68 278.048H211.416V284.216C211.416 285.176 211.472 285.984 211.584 286.64C211.712 287.28 211.848 287.8 211.992 288.2C212.168 288.68 212.36 289.056 212.568 289.328L210.432 290.192C210.24 290.016 210.064 289.792 209.904 289.52C209.776 289.296 209.64 289.024 209.496 288.704C209.368 288.368 209.28 287.976 209.232 287.528C208.8 288.472 208.192 289.144 207.408 289.544C206.624 289.944 205.808 290.144 204.96 290.144C203.696 290.144 202.792 289.776 202.248 289.04C201.72 288.304 201.456 287.296 201.456 286.016V278.048H204.192V285.968C204.192 286.64 204.312 287.168 204.552 287.552C204.792 287.936 205.2 288.128 205.776 288.128C206.128 288.128 206.472 288.032 206.808 287.84C207.16 287.632 207.472 287.344 207.744 286.976C208.032 286.608 208.256 286.168 208.416 285.656C208.592 285.128 208.68 284.544 208.68 283.904V278.048ZM224.561 273.512C225.969 273.512 227.081 273.792 227.897 274.352C228.713 274.912 229.121 275.832 229.121 277.112C229.121 277.576 229.049 278.024 228.905 278.456C228.761 278.872 228.569 279.28 228.329 279.68C228.105 280.064 227.841 280.448 227.537 280.832C227.249 281.2 226.961 281.56 226.673 281.912C226.225 282.472 225.817 283.024 225.449 283.568C225.097 284.112 224.833 284.68 224.657 285.272L222.641 284.72C222.641 283.888 222.817 283.128 223.169 282.44C223.521 281.752 223.913 281.12 224.345 280.544C224.777 279.968 225.169 279.432 225.521 278.936C225.873 278.424 226.049 277.928 226.049 277.448C226.049 276.856 225.881 276.4 225.545 276.08C225.209 275.76 224.761 275.6 224.201 275.6C223.945 275.6 223.705 275.624 223.481 275.672C223.273 275.72 223.057 275.784 222.833 275.864C222.609 275.944 222.369 276.048 222.113 276.176C221.857 276.304 221.553 276.448 221.201 276.608L220.265 274.712C220.921 274.408 221.593 274.136 222.281 273.896C222.985 273.64 223.745 273.512 224.561 273.512ZM223.793 286.64C224.353 286.64 224.785 286.808 225.089 287.144C225.393 287.48 225.545 287.912 225.545 288.44C225.545 288.952 225.393 289.384 225.089 289.736C224.785 290.088 224.329 290.264 223.721 290.264C223.161 290.264 222.729 290.088 222.425 289.736C222.137 289.384 221.993 288.968 221.993 288.488C221.993 287.976 222.145 287.544 222.449 287.192C222.753 286.824 223.201 286.64 223.793 286.64Z" fill="#414141"/>
<defs>
<filter id="filter0_i_22_893" x="151.747" y="93.4037" width="97.7937" height="154.678" filterUnits="userSpaceOnUse" color-interpolation-filters="sRGB">
<feFlood flood-opacity="0" result="BackgroundImageFix"/>
<feBlend mode="normal" in="SourceGraphic" in2="BackgroundImageFix" result="shape"/>
<feColorMatrix in="SourceAlpha" type="matrix" values="0 0 0 0 0 0 0 0 0 0 0 0 0 0 0 0 0 0 127 0" result="hardAlpha"/>
<feOffset dy="-29"/>
<feGaussianBlur stdDeviation="5.5"/>
<feComposite in2="hardAlpha" operator="arithmetic" k2="-1" k3="1"/>
<feColorMatrix type="matrix" values="0 0 0 0 0 0 0 0 0 0 0 0 0 0 0 0 0 0 0.25 0"/>
<feBlend mode="normal" in2="shape" result="effect1_innerShadow_22_893"/>
</filter>
<filter id="filter1_i_22_893" x="337.24" y="99.5714" width="131.669" height="161.31" filterUnits="userSpaceOnUse" color-interpolation-filters="sRGB">
<feFlood flood-opacity="0" result="BackgroundImageFix"/>
<feBlend mode="normal" in="SourceGraphic" in2="BackgroundImageFix" result="shape"/>
<feColorMatrix in="SourceAlpha" type="matrix" values="0 0 0 0 0 0 0 0 0 0 0 0 0 0 0 0 0 0 127 0" result="hardAlpha"/>
<feOffset dy="-29"/>
<feGaussianBlur stdDeviation="5.5"/>
<feComposite in2="hardAlpha" operator="arithmetic" k2="-1" k3="1"/>
<feColorMatrix type="matrix" values="0 0 0 0 0 0 0 0 0 0 0 0 0 0 0 0 0 0 0.25 0"/>
<feBlend mode="normal" in2="shape" result="effect1_innerShadow_22_893"/>
</filter>
<filter id="filter2_i_22_893" x="212" y="77" width="199" height="215" filterUnits="userSpaceOnUse" color-interpolation-filters="sRGB">
<feFlood flood-opacity="0" result="BackgroundImageFix"/>
<feBlend mode="normal" in="SourceGraphic" in2="BackgroundImageFix" result="shape"/>
<feColorMatrix in="SourceAlpha" type="matrix" values="0 0 0 0 0 0 0 0 0 0 0 0 0 0 0 0 0 0 127 0" result="hardAlpha"/>
<feOffset dy="-51"/>
<feGaussianBlur stdDeviation="8"/>
<feComposite in2="hardAlpha" operator="arithmetic" k2="-1" k3="1"/>
<feColorMatrix type="matrix" values="0 0 0 0 0 0 0 0 0 0 0 0 0 0 0 0 0 0 0.25 0"/>
<feBlend mode="normal" in2="shape" result="effect1_innerShadow_22_893"/>
</filter>
</defs>
</svg>
