<svg version="1.2" xmlns="http://www.w3.org/2000/svg" viewBox="0 0 555 197" width="555" height="197"><style>.a{fill:#f4dc00}.b{fill:#b7a500}.c{fill:#fff}.d{fill:#d1d6d0}.e{fill:#454545}</style><path class="a" d="m543 98.5c0-54.4-41.6-98.5-93-98.5-51.4 0-93 44.1-93 98.5 0 54.4 41.6 98.5 93 98.5 51.4 0 93-44.1 93-98.5z"/><path  d="m464.7 111c-3 2.4-6.1 4.8-9.1 7.2-2.5 2-5.2 4.5-8.6 4.6-3.2 0-5.2-2.1-7.2-4.4-2.6-2.9-5.1-5.9-7.7-8.9-2.4-2.8 1.6-6.9 4-4.1 1.9 2.2 3.9 4.4 5.8 6.7 1.4 1.7 3.5 5.6 6 4.6 2.5-1 4.7-3.4 6.8-5q3.6-2.9 7.2-5.7c2.8-2.3 5.7 2.8 2.8 5z"/><path  d="m520.1 72.1c-6.4 1.1-12.8 2.3-19.1 3.9-2.7 0.7-5.3 1.4-7.9 2.3q-2.1 0.6-4.1 1.4c-0.6 0.2-1.2 0.4-1.8 0.6-0.4 0.1-0.7 0.3-1.1 0.4-1 0.3-1 0.3-0.1-0.1 0.2-0.7 0.4-1.4 0.5-2 0 0.2 0 0.4 0.1 0.6-0.2-0.6-0.4-1.3-0.6-2 0.8 1.8 5.2 2.7 6.9 3.2q4.5 1.5 9 2.8c5.9 1.6 11.8 3 17.6 5.1 4.6 1.7 2.6 9.2-2 7.5-7-2.6-14.4-4.1-21.6-6.3-3.2-0.9-6.5-2-9.7-3.3-3.2-1.3-7.4-3.3-7.2-7.6 0.3-4.2 4.4-5.2 7.7-6.3 3-1 6.2-2 9.3-2.9 7.3-2 14.7-3.5 22.2-4.8 4.7-0.8 6.7 6.6 1.9 7.5z"/><path  d="m426.3 71.2c-7-5.6-15.9-9.9-25-8.2-7.5 1.4-14.7 6.8-15.7 15-0.8 7.7 4 14.7 11.8 14.7 7.6 0 12.9-6.7 12-14.3-0.9-9.1-9.8-13.2-17.7-11.2-4.7 1.1-6.7-6.3-2-7.5 10.6-2.6 22 1.8 26 12.8 4 10.5-1 23-11.4 26.8-10.5 3.8-22.2-2-25.4-13-3.2-11.3 2.7-23 12.7-28.1 12.9-6.6 27.6-2.3 38.6 6.2 1.6 1.3 2.4 3.4 1.3 5.4-0.9 1.6-3.6 2.6-5.2 1.4z"/><path  d="m383.7 70.1c2.8-3.4 7-5.5 11.2-6 0.5 0 1-0.1 1.5-0.1 8.2-0.7 17.7 4.8 16.6 14.1-0.5 4.6-2.9 9.4-6.1 12.5-3.5 3.4-8.2 4.4-12.8 3.6-4.8-0.8-9.8-3.7-11.5-8.6-0.2-0.5-0.3-1-0.4-1.5-0.2-0.4-0.4-0.7-0.6-1.1-1.6-4.4-0.7-9.2 2.1-12.9z"/><path class="b" d="m380.6 150l-64.8 0.8c-3.6 0.1-6.6 3.2-6.5 6.9 0 3.6 2.8 6.5 6.3 6.6h0.1l64.8 3.2c4.8 0.3 8.8-3.5 9.1-8.3 0.2-4.8-3.5-9-8.3-9.2q-0.2 0-0.5 0h-0.2z"/><path class="c" d="m253.8 154.5c1-2 3.8-3.6 5.9-4.2-5.6-2.7-9-8.9-5.7-14.8 2.6-4.6 8.5-4.8 13.3-4.5 2.6 0.2 5.2 1.1 7.8 1.6 2.8 0.6 4.9 0.9 5.5-0.8 2.5-6.5-0.6-15.4-0.7-22.1 0-5.8 1.7-12 6.4-15.6 5.1-3.8 12.9-3.7 15 3.4 1.2 4-1.5 8.1-2.3 11.9-0.7 3.6-1.1 7.2-0.5 11 1.4 8.1 9.3 11.9 13.3 18.3 1.6-1.2 3.8-2.8 6-2.5 2.7 0.3 4 3 5 5.3 2.3 5.1 3 10.9 2.8 16.5-0.2 4.8-0.8 10.2-3.2 14.5-2.8 4.7-8.4 6.3-11.8 1.1-4.2 5.1-8.8 7.5-15.2 7.9-3.3 0.2-7.3 0.5-10.5 1.3-3.2 0.8-6.3 1.6-9.6 2-5.4 0.7-12.2 0.2-16.3-4.2-2.3-2.4-3.5-9.4 0.2-12.6-5.6-3.1-8.5-7.5-5.4-13.5z"/><path class="d" d="m274.7 151.9c-5.1 0.9-10.3 0.2-15.4-1.5q0.2 0 0.4-0.1c-3.7-1.8-6.5-5.2-6.9-9 4.4 8.1 17.4 8 22.8 6.4-0.4 1.4-1.1 2.8-0.9 4.2z"/><path class="d" d="m289 176.4c2.1-1 8.2 0 13.4-3.8 9.1-6.7 13.1-17.9 7.3-31.5-3-7-12.8-9.6-16.7-16.6-5.3-11.9 10-21.8 3.3-32.4 2.3 0.7 4.1 2.5 5 5.4 1.2 3.9-1.5 8.1-2.3 11.9-0.7 3.6-1.1 7.2-0.5 11 1 5.7 5.2 9.3 9.1 13.2 1.5 1.6 3 3.3 4.2 5.1 1.6-1.2 3.8-2.8 6-2.6 1.4 0.2 2.4 1 3.2 2.1-2.4 0.1-4.2 1.7-6 2.6 5.8 7.9 3.9 20.4 3.4 26 1.2 2.2 3 2.8 5.5 2.3q-0.6 1.8-1.5 3.3c-2.8 4.8-8.4 6.4-11.8 1.2-4.2 5.1-8.8 7.5-15.2 7.9-3.3 0.2-7.3 0.5-10.5 1.3-3.2 0.8-6.3 1.6-9.6 2-5.4 0.6-12.2 0.1-16.3-4.2-1.3-1.4-2.3-4.3-2.1-7.1 3.2 7.7 19.3 8.7 32.1 2.9z"/><path class="d" d="m266.9 134.6c-1.1-0.9-2.2-2.5-2-3.7q1.2 0.1 2.4 0.1c2.6 0.2 5.2 1.1 7.8 1.6 2.8 0.6 4.9 0.9 5.5-0.8q0.4-1 0.6-2.1c-0.4 2.4-0.6 2.6-1.4 4.3-1.4 2.3-9.4 4-12.9 0.6z"/><path class="d" d="m252.5 159.2c5.1 7.1 17.1 9.6 23.8 7.5 0.3 2.4 0 4.5-0.3 4.6-6 0-11.2-0.4-17.3-2.8q0.2-0.3 0.5-0.5c-4-2.2-6.7-5.1-6.7-8.8z"/><path fill-rule="evenodd" d="m253.4 154.5c1-2 3.3-3.7 5.3-4.3-5.6-2.8-8.5-8.8-5.2-14.7 2.6-4.7 8.6-5.4 13.4-5 2.6 0.2 5.2 0.9 7.9 1.5 2.9 0.6 5 1 5.6-0.7 2.5-6.6-1-15.2-1.1-21.9 0-5.9 2.2-12.2 7-15.9 5.1-3.9 13.1-3.7 15.2 3.5 1.2 4-1 8.1-1.8 12-0.8 3.7-1.3 7.4-0.7 11.2 1.4 8.2 9 11.5 13 18 1.7-1.3 3.8-2.7 6-2.5 2.7 0.4 4.2 3.5 5.2 5.8 2.4 5.2 3.1 11.1 2.9 16.7-0.2 4.9-0.8 10.4-3.3 14.7-2.8 4.8-8.7 6.7-12.3 1.4-4.1 5.2-8.6 7.3-15.1 7.8-3.3 0.2-7.3 0.5-10.5 1.3-3.2 0.8-6.5 1.6-9.8 2-5.4 0.7-12.3-0.1-16.5-4.5-2.3-2.5-3.9-9.5-0.2-12.7-5.6-3.1-8.2-7.6-5-13.7zm66.9 20.1c8.2-7.1 5.3-45.9-8-36.1 4.1 7 5.6 15.8 3.9 23.8-0.8 4-2.5 7.8-5 11.2 2.4 3.4 5.9 3.9 9.1 1.1zm-59.9-6.9c4.9 2.1 9.9 2.8 15.5 3.1 0-0.3 0.2-1.4 0.6-2.3 0 1.4 0.7 5.6 0.8 6-1-0.7-1.5-1.7-1.6-2.8-3.8 0.1-7.3-0.2-10.8-1.1-1.7-0.4-3.4-0.9-5-1.6-1.8-0.9-2.3 2.8-2.4 4.4-0.4 7.4 4.5 10.1 11 11 3.7 0.5 7.9 0.1 11.5-0.9 4.1-1.1 8.2-1.8 12.4-2.3 4-0.5 12.5-0.8 18.1-9.5 7.2-11.2 6.3-22.6 0.8-32.4-0.8-1.4-1.1-1.7-2.1-2.9-1.7-2.2-3.8-4-5.9-6-4.2-3.9-6.3-9.7-6-15.5 0.4-6.2 8.8-23.7-4.9-22.6-5.2 0.4-8.8 4.9-10.5 9.5-2.3 6.1-0.9 13.4 0 19.6 0.7 4.5 1.4 11.4-3.3 14-1.7 1-3.7 1.3-5.6 1.3-0.6 0-5.2-0.2-5.7-1.4 1.5 0.1 8.6 1.5 11.1-1.4-6.9-1.1-23.4-6-24.8 5.3-0.5 4.2 1.6 8.2 5.4 10 4.9 2.4 9.3 2.1 15.3 2.1 0.1-1.1 0.5-2.9 1.2-3.5-0.1 0.8-0.4 4.2 0.6 8-0.7-0.3-1.8-2.6-1.8-3.4-11 0-12.9-0.8-14.8-1.5-1.4 0.6-3.3 1.7-4.3 2.8-5 5.7-0.5 11.6 5.2 14z"/><path fill-rule="evenodd" class="e" d="m10.6 29q-0.6-0.6-1.2-0.9-0.6-0.4-1.5-0.4-1 0-1.7 0.5-0.7 0.5-1.2 1.3-0.4 0.8-0.6 1.9-0.2 1.1-0.2 2.4 0 1.3 0.2 2.4 0.2 1.1 0.6 1.9 0.5 0.9 1.2 1.4 0.8 0.4 1.9 0.4 0.6 0 1.1-0.1 0.5-0.1 0.9-0.2 0.4-0.1 0.7-0.2 0.3-0.1 0.4-0.1l0.6 2-0.3 0.1q-0.3 0.2-0.9 0.3-0.5 0.2-1.3 0.3-0.8 0.1-1.7 0.1-3.2 0-4.9-2-1.6-2.1-1.6-6 0-1.9 0.5-3.5 0.4-1.6 1.3-2.7 0.8-1.1 2.2-1.7 1.3-0.7 3.1-0.7 1.4 0 2.4 0.6 0.9 0.5 1.5 1.2zm6 13q-1.3 0-2-0.7-0.6-0.8-0.6-1.9v-14.4l2.7-0.5v14.6q0 0.5 0.2 0.8 0.2 0.2 0.6 0.2 0.3 0 0.5 0 0.2-0.1 0.4-0.1 0.2-0.1 0.4-0.1l0.4 1.7q-0.4 0.1-0.7 0.2-0.4 0.1-0.8 0.2-0.5 0-1.1 0zm7 0q-1.3 0-2-0.7-0.6-0.8-0.6-2v-9.3h2.7v9.1q0 0.5 0.2 0.7 0.1 0.2 0.5 0.2 0.1 0 0.2 0 0.1 0 0.2 0 0.1 0 0.2 0l0.3 1.7q-0.2 0.1-0.4 0.2-0.3 0-0.6 0.1-0.3 0-0.7 0zm-1.2-17.3q0.8 0 1.2 0.4 0.4 0.5 0.4 1.2 0 0.7-0.5 1.2-0.4 0.5-1.2 0.5-0.7 0-1.2-0.5-0.4-0.5-0.4-1.1 0-0.8 0.4-1.3 0.5-0.4 1.3-0.4zm11.3 8.1q-0.4-0.4-0.8-0.7-0.3-0.3-0.9-0.3-0.4 0-0.9 0.1-0.4 0.1-0.8 0.6-0.4 0.4-0.6 1.2-0.3 0.8-0.3 2.2 0 1.4 0.3 2.3 0.2 0.8 0.6 1.2 0.4 0.5 0.9 0.6 0.5 0.1 0.9 0.1 0.3 0 0.7 0 0.3-0.1 0.7-0.1 0.3-0.1 0.6-0.2 0.2-0.1 0.3-0.1l0.7 1.7q-0.1 0-0.3 0.1-0.3 0.2-0.7 0.3-0.4 0.1-1 0.2-0.6 0.1-1.4 0.1-1.4 0-2.4-0.4-0.9-0.4-1.6-1.2-0.6-0.8-0.9-1.8-0.3-1.1-0.3-2.4 0-1.6 0.4-2.8 0.4-1.3 1.2-2.1 0.7-0.8 1.7-1.3 1-0.4 2.2-0.4 1.1 0 1.9 0.4 0.8 0.5 1.3 1.2zm18.2 9.4q-0.1 0-0.2-0.2-0.2-0.3-0.4-0.6-0.2-0.4-0.4-0.9-0.2-0.6-0.3-1.3-0.4 1.5-1.3 2.2-0.9 0.7-2.4 0.7-1.1 0-2-0.4-0.8-0.4-1.3-1.2-0.6-0.8-0.8-1.9-0.3-1.1-0.3-2.4 0-1.4 0.4-2.5 0.4-1.2 1.2-2.1 0.7-0.8 1.8-1.3 1.1-0.5 2.3-0.5 0.5 0 0.9 0.1 0.5 0 1 0.1v-5.4l2.8 0.5v11.1q0 1.4 0.1 2.4 0.2 0.9 0.4 1.5 0.2 0.6 0.4 0.9 0.2 0.2 0.2 0.3zm-4.5-2q0.6 0 1.1-0.4 0.5-0.4 0.9-1 0.3-0.7 0.5-1.6 0.3-0.8 0.3-1.7v-3.4q-0.3-0.1-0.8-0.2-0.4-0.1-0.8-0.1-0.9 0-1.5 0.3-0.6 0.3-1 0.9-0.3 0.5-0.5 1.3-0.1 0.8-0.1 1.7 0 0.8 0 1.6 0.1 0.7 0.3 1.3 0.2 0.6 0.6 1 0.3 0.3 1 0.3zm8-3.9q0-1.6 0.4-2.8 0.5-1.2 1.2-2 0.8-0.9 1.9-1.3 1.1-0.4 2.3-0.4 1.1 0 1.8 0.2 0.8 0.3 1.2 0.8 0.5 0.4 0.7 1 0.3 0.7 0.3 1.4 0 0.9-0.5 1.6-0.5 0.8-1.4 1.4-0.9 0.6-2.1 0.9-1.3 0.4-2.9 0.4 0.1 0.6 0.2 1.1 0.2 0.4 0.5 0.8 0.3 0.4 0.8 0.6 0.4 0.2 1.2 0.2 0.5 0 1.1-0.1 0.6-0.1 1.1-0.3 0.6-0.2 1.2-0.4l0.7 1.7q-0.6 0.3-1.4 0.5-0.6 0.3-1.4 0.4-0.8 0.2-1.7 0.2-1.4 0-2.4-0.4-1-0.5-1.6-1.2-0.6-0.8-0.9-1.9-0.3-1-0.3-2.4zm5.6-4.6q-0.8 0-1.4 0.3-0.5 0.4-0.8 1-0.3 0.6-0.4 1.3-0.2 0.7-0.2 1.5 1.2-0.1 2-0.3 0.8-0.3 1.3-0.6 0.5-0.4 0.7-0.8 0.2-0.5 0.2-0.9 0-0.7-0.4-1.1-0.4-0.4-1-0.4zm10-1.9q0.7 0 1.4 0.1 0.6 0.2 1.2 0.4 0.6 0.2 1.1 0.4l-0.8 1.9q-0.5-0.2-1-0.4-0.4-0.1-0.9-0.3-0.5-0.1-0.9-0.1-0.6 0-1 0.3-0.4 0.2-0.4 0.8 0 1.3 2 2.1 0.7 0.3 1.3 0.6 0.6 0.3 1.1 0.8 0.4 0.4 0.6 1 0.2 0.5 0.2 1.3 0 0.7-0.3 1.3-0.2 0.7-0.8 1.2-0.5 0.5-1.3 0.8-0.8 0.3-1.8 0.3-0.7 0-1.5-0.2-0.8-0.2-1.4-0.4-0.6-0.2-1-0.4l-0.3-0.2 0.9-2 0.3 0.2q0.3 0.2 0.8 0.4 0.4 0.2 1 0.4 0.5 0.1 1 0.1 0.8 0 1.3-0.3 0.4-0.3 0.4-0.9 0-0.6-0.5-1.1-0.4-0.5-1.3-0.9-1.9-0.7-2.7-1.6-0.8-0.8-0.8-2.3 0-0.6 0.3-1.2 0.4-0.7 0.9-1.1 0.5-0.5 1.3-0.8 0.7-0.2 1.6-0.2zm9.9 0q0.7 0 1.3 0.1 0.7 0.2 1.2 0.4 0.7 0.2 1.2 0.4l-0.8 1.9q-0.5-0.2-1-0.4-0.4-0.1-0.9-0.3-0.5-0.1-1-0.1-0.5 0-0.9 0.3-0.4 0.2-0.4 0.8 0 1.3 2 2.1 0.7 0.3 1.3 0.6 0.6 0.3 1 0.8 0.5 0.4 0.7 1 0.2 0.5 0.2 1.3 0 0.7-0.3 1.3-0.2 0.7-0.8 1.2-0.5 0.5-1.3 0.8-0.8 0.3-1.8 0.3-0.8 0-1.5-0.2-0.8-0.2-1.4-0.4-0.6-0.2-1-0.4l-0.3-0.2 0.9-2 0.3 0.2q0.3 0.2 0.8 0.4 0.4 0.2 1 0.4 0.5 0.1 1 0.1 0.8 0 1.2-0.3 0.4-0.3 0.4-0.9 0-0.6-0.4-1.1-0.4-0.5-1.3-0.9-1.9-0.7-2.7-1.6-0.8-0.8-0.8-2.3 0-0.6 0.3-1.2 0.3-0.7 0.9-1.1 0.5-0.5 1.3-0.8 0.7-0.2 1.6-0.2zm13.4 0.3h2.8v6.1q0 1.5 0.1 2.5 0.2 0.9 0.5 1.5 0.2 0.7 0.5 1.1l-2.1 0.9q-0.3-0.3-0.5-0.7-0.2-0.3-0.4-0.8-0.2-0.5-0.3-1.2-0.7 1.5-1.8 2.1-1.2 0.6-2.5 0.6-1.9 0-2.7-1.1-0.8-1.1-0.8-3.1v-7.9h2.8v7.9q0 1 0.3 1.6 0.4 0.5 1.2 0.5 0.6 0 1.1-0.2 0.5-0.4 0.9-0.9 0.4-0.6 0.7-1.3 0.2-0.8 0.2-1.8zm9.6-0.3q0.7 0 1.4 0.2 0.7 0.1 1.2 0.3 0.6 0.2 1.2 0.5l-0.9 1.8q-0.4-0.2-0.9-0.3-0.4-0.2-0.9-0.3-0.5-0.1-1-0.1-0.5 0-1 0.2-0.3 0.3-0.3 0.8 0 1.4 2 2.1 0.7 0.3 1.3 0.7 0.6 0.3 1 0.7 0.4 0.4 0.7 1 0.2 0.6 0.2 1.3 0 0.7-0.3 1.4-0.3 0.6-0.8 1.1-0.6 0.5-1.4 0.8-0.7 0.3-1.7 0.3-0.8 0-1.6-0.2-0.7-0.1-1.4-0.4-0.6-0.2-0.9-0.4l-0.4-0.1 0.9-2.1 0.3 0.2q0.3 0.2 0.8 0.4 0.5 0.2 1 0.4 0.6 0.2 1.1 0.2 0.8 0 1.2-0.3 0.4-0.4 0.4-0.9 0-0.6-0.4-1.2-0.5-0.5-1.4-0.8-1.8-0.7-2.6-1.6-0.8-0.9-0.8-2.3 0-0.7 0.3-1.3 0.3-0.6 0.8-1.1 0.6-0.4 1.3-0.7 0.8-0.3 1.6-0.3zm12.7 17.6v-11.4q0-1.4-0.2-2.4-0.2-1-0.4-1.6-0.2-0.7-0.5-1.1l2.1-0.8q0.3 0.2 0.5 0.7 0.2 0.3 0.4 0.9 0.2 0.5 0.3 1.2 0.4-1.5 1.3-2.2 0.9-0.8 2.5-0.8 1.1 0 1.9 0.5 0.9 0.4 1.4 1.2 0.5 0.7 0.8 1.8 0.3 1.1 0.3 2.5 0 1.4-0.4 2.5-0.4 1.2-1.2 2-0.8 0.9-1.8 1.3-1.1 0.5-2.4 0.5-0.4 0-0.9 0-0.5-0.1-0.9-0.1v4.8zm5.5-15.5q-0.6 0-1.1 0.4-0.5 0.4-0.9 1.1-0.4 0.6-0.6 1.5-0.2 0.8-0.2 1.7v3.5q0.2 0 0.7 0.1 0.5 0.1 0.9 0.1 0.9 0 1.5-0.3 0.6-0.3 0.9-0.9 0.4-0.5 0.5-1.3 0.2-0.7 0.2-1.7 0-0.8-0.1-1.6 0-0.7-0.2-1.3-0.2-0.6-0.6-1-0.4-0.3-1-0.3zm12-2q2.7 0 4 1.6 1.2 1.6 1.2 4.5 0 1.3-0.3 2.5-0.3 1.1-1 2-0.7 0.9-1.7 1.4-1.1 0.4-2.4 0.4-1.4 0-2.4-0.4-1-0.4-1.6-1.2-0.7-0.8-1-1.9-0.3-1.1-0.3-2.6 0-1.3 0.4-2.5 0.3-1.2 1-2 0.7-0.9 1.7-1.3 1-0.5 2.4-0.5zm-0.3 2q-0.6 0-1.1 0.3-0.4 0.3-0.7 0.9-0.2 0.5-0.3 1.3-0.1 0.7-0.1 1.6 0 0.9 0.1 1.7 0.1 0.8 0.4 1.4 0.3 0.5 0.7 0.9 0.5 0.3 1.3 0.3 0.7 0 1.1-0.3 0.5-0.3 0.7-0.9 0.3-0.5 0.4-1.3 0.1-0.7 0.1-1.6 0-0.9-0.1-1.7-0.1-0.8-0.4-1.4-0.3-0.6-0.8-0.9-0.5-0.3-1.3-0.3zm15-1.8h2.8v6.2q0 1.5 0.1 2.4 0.2 1 0.5 1.6 0.2 0.7 0.5 1.1l-2.1 0.9q-0.3-0.3-0.5-0.7-0.2-0.3-0.4-0.8-0.2-0.5-0.3-1.2-0.7 1.4-1.8 2-1.2 0.6-2.5 0.6-1.9 0-2.7-1.1-0.8-1.1-0.8-3v-8h2.8v8q0 1 0.3 1.5 0.4 0.6 1.2 0.6 0.6 0 1.1-0.3 0.5-0.3 0.9-0.8 0.4-0.6 0.7-1.3 0.2-0.8 0.2-1.8zm11.5 2.5q-0.5 0-0.9 0.2-0.4 0.2-0.8 0.6-0.3 0.4-0.5 0.9-0.2 0.5-0.2 1.2v6.6h-2.8v-6.1q0-1.4-0.2-2.4-0.2-1-0.4-1.6-0.2-0.7-0.6-1.1l2.2-0.9q0.2 0.3 0.5 0.7 0.2 0.3 0.3 0.8 0.2 0.4 0.4 1 0.4-1.3 1.4-1.9 0.9-0.7 2-0.7 0.6 0 1 0.2 0.5 0.1 0.5 0.1l-0.8 2.7q0-0.1-0.3-0.2-0.2-0.1-0.8-0.1zm1.1 0.3q0 0 0 0zm18.1 3.4q0 1.4 0.2 2.4 0.2 1 0.4 1.6 0.3 0.7 0.6 1.1l-2.2 0.8q-0.3-0.3-0.5-0.7-0.2-0.4-0.4-0.9-0.2-0.6-0.3-1.3-0.4 1.4-1.3 2.2-0.9 0.7-2.4 0.7-1.1 0-2-0.4-0.8-0.4-1.4-1.2-0.5-0.8-0.8-1.9-0.2-1.1-0.2-2.5 0-1.3 0.4-2.5 0.4-1.1 1.1-2 0.8-0.8 1.9-1.3 1-0.5 2.3-0.5 0.7 0 1.5 0.1 0.8 0.1 1.5 0.2 0.6 0.2 1.1 0.3 0.5 0.1 0.5 0.1zm-5.5 4q0.6 0 1.1-0.4 0.5-0.4 0.9-1 0.4-0.7 0.6-1.6 0.2-0.8 0.2-1.7v-3.5q-0.2 0-0.7-0.1-0.5-0.1-0.9-0.1-0.9 0-1.5 0.3-0.6 0.3-0.9 0.8-0.4 0.6-0.5 1.4-0.2 0.7-0.2 1.6 0 0.9 0.1 1.7 0 0.7 0.2 1.3 0.2 0.6 0.6 1 0.4 0.3 1 0.3zm10.6 3.9q0.3 0.1 0.7 0.3 0.4 0.2 0.9 0.3 0.4 0.1 0.9 0.2 0.5 0.1 0.9 0.1 1.4 0 2-0.8 0.6-0.8 0.6-2 0-1.3-0.6-2.6-0.4 1.3-1.2 1.9-0.9 0.6-2.4 0.6-1.1 0-1.9-0.4-0.8-0.4-1.4-1.2-0.5-0.8-0.8-1.9-0.3-1.1-0.3-2.4 0-1.4 0.4-2.5 0.5-1.2 1.2-2.1 0.8-0.8 1.8-1.3 1.1-0.5 2.4-0.5 0.5 0 1.2 0.1 0.7 0.1 1.3 0.2 0.6 0.1 1.2 0.2 0.6 0.1 1 0.2l-0.1 6.6q-0.1 0.8 0 1.4 0.1 0.6 0.3 1.2 0.1 0.5 0.3 1.1 0.1 0.6 0.1 1.4 0 2.5-1.3 3.8-1.3 1.2-3.5 1.2-0.7 0-1.5-0.1-0.7-0.2-1.3-0.3-0.6-0.2-1-0.4-0.5-0.1-0.6-0.2zm2.3-3.9q0.6 0 1.1-0.4 0.5-0.4 0.9-1 0.4-0.6 0.6-1.5 0.2-0.8 0.2-1.6v-3.7q-0.2-0.1-0.7-0.1-0.5-0.1-0.9-0.1-0.9 0-1.5 0.3-0.6 0.3-0.9 0.8-0.4 0.6-0.5 1.4-0.2 0.7-0.2 1.6 0 0.9 0.1 1.6 0 0.8 0.2 1.4 0.2 0.6 0.6 1 0.4 0.3 1 0.3zm13.7-7.7q-0.4 0-0.8 0.2-0.5 0.3-0.8 0.6-0.3 0.4-0.5 0.9-0.3 0.6-0.3 1.2v6.6h-2.7v-6.1q0-1.4-0.2-2.4-0.2-1-0.4-1.6-0.3-0.6-0.6-1.1l2.2-0.8q0.2 0.2 0.4 0.6 0.2 0.3 0.4 0.8 0.2 0.5 0.3 1.1 0.5-1.4 1.4-2 0.9-0.6 2.1-0.6 0.6 0 1 0.1 0.5 0.1 0.5 0.1l-0.8 2.7q0 0-0.3-0.1-0.3-0.2-0.9-0.2zm1.2 0.3q0 0 0 0zm11.3 3.4q0 1.4 0.1 2.4 0.2 1 0.4 1.6 0.3 0.7 0.6 1.1l-2.1 0.9q-0.3-0.3-0.6-0.8-0.2-0.4-0.4-0.9-0.2-0.5-0.2-1.3-0.4 1.5-1.4 2.2-0.8 0.7-2.4 0.7-1.1 0-1.9-0.4-0.9-0.4-1.4-1.2-0.6-0.8-0.8-1.9-0.3-1.1-0.3-2.4 0-1.4 0.4-2.5 0.4-1.2 1.2-2.1 0.8-0.8 1.8-1.3 1.1-0.5 2.3-0.5 0.8 0 1.5 0.2 0.8 0.1 1.5 0.2 0.7 0.1 1.1 0.2 0.5 0.1 0.6 0.1zm-5.5 4q0.6 0 1.1-0.4 0.5-0.4 0.8-1 0.4-0.7 0.6-1.5 0.2-0.9 0.2-1.8v-3.4q-0.2-0.1-0.7-0.2-0.5-0.1-0.8-0.1-1 0-1.6 0.3-0.5 0.3-0.9 0.9-0.4 0.5-0.5 1.3-0.1 0.8-0.1 1.7 0 0.8 0 1.6 0.1 0.7 0.2 1.3 0.3 0.6 0.6 1 0.4 0.3 1.1 0.3zm15.7 1.8v-7.7q0-1-0.4-1.6-0.4-0.7-1.2-0.7-0.6 0-1.1 0.3-0.5 0.3-0.9 0.8-0.4 0.5-0.7 1.3-0.2 0.8-0.2 1.7v5.9h-2.8v-6q0-1.5-0.2-2.4-0.1-1-0.4-1.6-0.2-0.7-0.5-1.1l2.1-0.9q0.3 0.3 0.5 0.6 0.2 0.4 0.4 0.9 0.2 0.5 0.3 1.1 0.6-1.5 1.8-2.1 1.2-0.6 2.5-0.6 1.8 0 2.6 1.1 0.9 1.1 0.9 3v8zm14.4 0.2q-0.1 0-0.2-0.2-0.2-0.2-0.4-0.6-0.2-0.3-0.4-0.9-0.2-0.5-0.3-1.2-0.4 1.4-1.3 2.1-0.9 0.8-2.4 0.8-1.1 0-2-0.4-0.8-0.5-1.3-1.2-0.6-0.8-0.8-1.9-0.3-1.1-0.3-2.5 0-1.4 0.4-2.5 0.4-1.2 1.2-2 0.7-0.9 1.8-1.3 1.1-0.5 2.3-0.5 0.5 0 0.9 0 0.5 0.1 1 0.1v-5.4l2.8 0.5v11.1q0 1.5 0.1 2.4 0.2 1 0.4 1.6 0.2 0.5 0.4 0.8 0.2 0.3 0.2 0.3zm-4.5-1.9q0.6 0 1.1-0.5 0.5-0.4 0.9-1 0.3-0.7 0.5-1.5 0.3-0.9 0.3-1.8v-3.4q-0.3-0.1-0.8-0.2-0.4-0.1-0.8-0.1-0.9 0-1.5 0.3-0.6 0.4-1 0.9-0.3 0.6-0.5 1.3-0.1 0.8-0.1 1.7 0 0.8 0 1.6 0.1 0.8 0.3 1.4 0.2 0.6 0.6 0.9 0.3 0.4 1 0.4zm11.2 1.8q-1.2 0-1.9-0.7-0.7-0.8-0.7-2v-9.3h2.8v9.1q0 0.5 0.1 0.7 0.2 0.2 0.5 0.2 0.1 0 0.2 0 0.1 0 0.2 0 0.1 0 0.2 0l0.3 1.7q-0.1 0.1-0.4 0.2-0.2 0.1-0.5 0.1-0.4 0-0.8 0zm-1.2-17.3q0.8 0 1.2 0.4 0.4 0.5 0.4 1.2 0 0.7-0.4 1.2-0.4 0.5-1.2 0.5-0.8 0-1.2-0.5-0.4-0.5-0.4-1.1 0-0.8 0.4-1.2 0.4-0.5 1.2-0.5zm10.2 7.8q-0.4 0-0.9 0.2-0.4 0.2-0.7 0.6-0.4 0.4-0.6 0.9-0.2 0.5-0.2 1.2v6.6h-2.7v-6.1q0-1.4-0.2-2.4-0.2-1-0.4-1.6-0.3-0.7-0.6-1.1l2.2-0.9q0.2 0.3 0.4 0.7 0.2 0.3 0.4 0.8 0.2 0.4 0.3 1 0.5-1.3 1.4-1.9 0.9-0.7 2.1-0.7 0.5 0 1 0.2 0.5 0.1 0.4 0.1l-0.7 2.7q0-0.1-0.3-0.2-0.3-0.1-0.9-0.1zm1.2 0.3q0 0 0 0zm11 9.3q-1.4 0-2-0.8-0.7-0.8-0.7-1.9v-14.4l2.7-0.5v14.6q0 0.6 0.3 0.8 0.2 0.2 0.6 0.2 0.2 0 0.4 0 0.3-0.1 0.5-0.1 0.2-0.1 0.4-0.1l0.3 1.7q-0.3 0.1-0.7 0.2-0.3 0.1-0.8 0.2-0.5 0.1-1 0.1zm3.3-5.8q0-1.6 0.5-2.9 0.4-1.2 1.2-2 0.8-0.8 1.8-1.3 1.1-0.4 2.3-0.4 1.1 0 1.8 0.3 0.8 0.2 1.3 0.7 0.5 0.5 0.7 1.1 0.2 0.6 0.2 1.3 0 0.9-0.4 1.7-0.5 0.7-1.4 1.3-0.9 0.6-2.2 1-1.3 0.3-2.9 0.3 0.1 0.6 0.3 1.1 0.1 0.5 0.4 0.9 0.3 0.3 0.8 0.5 0.5 0.3 1.2 0.3 0.5 0 1.1-0.2 0.6-0.1 1.1-0.3 0.6-0.1 1.2-0.4l0.7 1.7q-0.6 0.3-1.3 0.6-0.6 0.2-1.4 0.4-0.9 0.1-1.8 0.1-1.4 0-2.4-0.4-0.9-0.4-1.6-1.2-0.6-0.8-0.9-1.8-0.3-1.1-0.3-2.4zm5.6-4.7q-0.8 0-1.3 0.4-0.5 0.3-0.8 0.9-0.3 0.6-0.5 1.4-0.1 0.7-0.1 1.4 1.1 0 1.9-0.3 0.8-0.2 1.3-0.6 0.5-0.4 0.8-0.8 0.2-0.4 0.2-0.9 0-0.7-0.4-1.1-0.4-0.4-1.1-0.4zm10-1.9q0.7 0 1.4 0.2 0.7 0.1 1.2 0.3 0.6 0.2 1.2 0.5l-0.9 1.8q-0.4-0.2-0.9-0.4-0.4-0.1-0.9-0.2-0.5-0.2-1-0.2-0.5 0-1 0.3-0.3 0.3-0.3 0.8 0 1.4 2 2.1 0.7 0.3 1.3 0.6 0.6 0.4 1 0.8 0.4 0.4 0.7 1 0.2 0.6 0.2 1.3 0 0.7-0.3 1.3-0.3 0.7-0.8 1.2-0.6 0.5-1.4 0.8-0.7 0.3-1.7 0.3-0.8 0-1.6-0.2-0.7-0.2-1.4-0.4-0.6-0.2-0.9-0.4l-0.4-0.2 0.9-2 0.3 0.2q0.3 0.2 0.8 0.4 0.5 0.2 1 0.4 0.6 0.2 1.1 0.2 0.8 0 1.2-0.4 0.4-0.3 0.4-0.8 0-0.7-0.4-1.2-0.5-0.5-1.4-0.8-1.8-0.7-2.6-1.6-0.8-0.9-0.8-2.3 0-0.7 0.3-1.3 0.3-0.6 0.8-1.1 0.6-0.5 1.3-0.7 0.8-0.3 1.6-0.3zm15 12.4q-1.2 0-1.9-0.8-0.7-0.8-0.7-2v-9.3h2.8v9.1q0 0.6 0.1 0.7 0.2 0.2 0.5 0.2 0.1 0 0.2 0 0.1 0 0.2 0 0.1 0 0.2 0l0.3 1.7q-0.1 0.1-0.4 0.2-0.2 0.1-0.5 0.1-0.4 0.1-0.8 0.1zm-1.2-17.4q0.8 0 1.2 0.4 0.4 0.5 0.4 1.2 0 0.7-0.4 1.2-0.4 0.5-1.2 0.5-0.8 0-1.2-0.5-0.4-0.4-0.4-1.1 0-0.8 0.4-1.2 0.4-0.5 1.2-0.5zm18.6 17.3v-7.9q0-1-0.4-1.6-0.3-0.6-1-0.6-0.5 0-1 0.3-0.4 0.3-0.8 0.7-0.4 0.5-0.6 1.2-0.3 0.7-0.3 1.5v6.4h-2.7v-7.9q0-1-0.3-1.6-0.3-0.6-1.1-0.6-0.5 0-0.9 0.3-0.5 0.3-0.9 0.8-0.3 0.6-0.6 1.3-0.2 0.8-0.2 1.7v6h-2.7v-6.1q0-1.4-0.2-2.4-0.2-1-0.4-1.6-0.3-0.7-0.6-1.1l2.2-0.9q0.2 0.3 0.4 0.7 0.2 0.3 0.4 0.8 0.2 0.5 0.3 1.1 0.6-1.4 1.7-2 1.1-0.7 2.3-0.7 1.3 0 1.9 0.6 0.7 0.7 1.1 1.6 0.6-1.2 1.6-1.7 1.1-0.5 2.2-0.5 0.9 0 1.5 0.3 0.7 0.3 1 0.9 0.4 0.5 0.6 1.3 0.2 0.7 0.2 1.6v8.1zm15.3-5.8q0 1.4 0.2 2.4 0.2 1 0.4 1.6 0.3 0.7 0.6 1.1l-2.2 0.8q-0.3-0.3-0.5-0.7-0.3-0.4-0.4-0.9-0.2-0.6-0.3-1.3-0.4 1.4-1.3 2.2-0.9 0.7-2.4 0.7-1.2 0-2-0.4-0.8-0.4-1.4-1.2-0.5-0.8-0.8-1.9-0.2-1.1-0.2-2.5 0-1.3 0.4-2.5 0.4-1.1 1.1-2 0.8-0.8 1.9-1.3 1-0.5 2.3-0.5 0.7 0 1.5 0.1 0.8 0.1 1.4 0.2 0.7 0.2 1.2 0.3 0.4 0.1 0.5 0.1zm-5.5 4q0.6 0 1.1-0.4 0.5-0.4 0.9-1 0.4-0.7 0.6-1.6 0.2-0.8 0.2-1.7v-3.5q-0.3 0-0.7-0.1-0.5-0.1-0.9-0.1-0.9 0-1.5 0.3-0.6 0.3-0.9 0.8-0.4 0.6-0.6 1.4-0.1 0.7-0.1 1.6 0 0.9 0.1 1.7 0 0.7 0.2 1.3 0.2 0.6 0.6 1 0.4 0.3 1 0.3zm10.5 3.9q0.4 0.1 0.8 0.3 0.4 0.2 0.9 0.3 0.4 0.1 0.9 0.2 0.5 0.1 0.9 0.1 1.4 0 2-0.8 0.6-0.8 0.6-2 0-1.3-0.6-2.6-0.4 1.3-1.3 1.9-0.8 0.6-2.3 0.6-1.1 0-1.9-0.4-0.8-0.4-1.4-1.2-0.6-0.8-0.8-1.9-0.3-1.1-0.3-2.4 0-1.4 0.4-2.5 0.5-1.2 1.2-2.1 0.8-0.8 1.8-1.3 1.1-0.5 2.4-0.5 0.5 0 1.2 0.1 0.7 0.1 1.3 0.2 0.6 0.1 1.2 0.2 0.6 0.1 1 0.2l-0.2 6.6q0 0.8 0.1 1.4 0.1 0.6 0.3 1.2 0.1 0.5 0.2 1.1 0.2 0.6 0.2 1.4 0 2.5-1.3 3.8-1.3 1.2-3.5 1.2-0.8 0-1.5-0.1-0.7-0.2-1.3-0.3-0.6-0.2-1.1-0.4-0.4-0.1-0.5-0.2zm2.3-3.9q0.6 0 1.1-0.4 0.5-0.4 0.9-1 0.3-0.6 0.6-1.5 0.2-0.8 0.2-1.6v-3.7q-0.3-0.1-0.7-0.1-0.5-0.1-0.9-0.1-0.9 0-1.5 0.3-0.6 0.3-1 0.8-0.3 0.6-0.5 1.4-0.1 0.7-0.1 1.6 0 0.9 0 1.6 0.1 0.8 0.3 1.4 0.2 0.6 0.6 1 0.4 0.3 1 0.3zm7.9-3.9q0-1.6 0.4-2.8 0.5-1.3 1.3-2.1 0.7-0.8 1.8-1.2 1.1-0.5 2.3-0.5 1.1 0 1.8 0.3 0.8 0.3 1.3 0.7 0.4 0.5 0.6 1.1 0.3 0.6 0.3 1.3 0 0.9-0.5 1.7-0.5 0.8-1.4 1.4-0.9 0.5-2.1 0.9-1.3 0.3-2.9 0.4 0.1 0.5 0.2 1 0.2 0.5 0.5 0.9 0.3 0.3 0.8 0.6 0.4 0.2 1.2 0.2 0.5 0 1.1-0.1 0.6-0.2 1.1-0.3 0.6-0.2 1.2-0.5l0.7 1.7q-0.6 0.4-1.4 0.6-0.6 0.2-1.4 0.4-0.8 0.1-1.7 0.1-1.4 0-2.4-0.4-1-0.4-1.6-1.2-0.6-0.7-0.9-1.8-0.3-1.1-0.3-2.4zm5.6-4.7q-0.8 0-1.4 0.4-0.5 0.4-0.8 1-0.3 0.5-0.4 1.3-0.1 0.7-0.2 1.4 1.2 0 2-0.2 0.8-0.3 1.3-0.7 0.5-0.4 0.7-0.8 0.3-0.4 0.3-0.9 0-0.6-0.5-1.1-0.4-0.4-1-0.4zm10-1.9q0.7 0 1.4 0.2 0.6 0.1 1.2 0.3 0.6 0.2 1.1 0.5l-0.8 1.8q-0.5-0.2-1-0.3-0.4-0.2-0.9-0.3-0.5-0.1-0.9-0.1-0.6 0-1 0.2-0.4 0.3-0.4 0.8 0 1.4 2 2.1 0.8 0.3 1.4 0.7 0.6 0.3 1 0.7 0.4 0.4 0.6 1 0.2 0.6 0.2 1.3 0 0.7-0.3 1.4-0.2 0.6-0.8 1.1-0.5 0.5-1.3 0.8-0.8 0.3-1.8 0.3-0.7 0-1.5-0.2-0.8-0.1-1.4-0.4-0.6-0.2-1-0.4l-0.3-0.1 0.9-2 0.3 0.1q0.3 0.2 0.8 0.4 0.4 0.2 1 0.4 0.6 0.2 1 0.2 0.8 0 1.3-0.3 0.4-0.4 0.4-0.9 0-0.6-0.5-1.1-0.4-0.6-1.3-0.9-1.9-0.7-2.7-1.6-0.8-0.9-0.8-2.3 0-0.7 0.3-1.3 0.4-0.6 0.9-1.1 0.5-0.4 1.3-0.7 0.7-0.3 1.6-0.3z"/></svg>