<svg width="762" height="197" viewBox="0 0 762 197" fill="none" xmlns="http://www.w3.org/2000/svg">
<g filter="url(#filter0_i_39_895)">
<path d="M192 98.5C192 44.0999 149.019 0 96 0C42.9807 0 0 44.0999 0 98.5C0 152.9 42.9807 197 96 197C149.019 197 192 152.9 192 98.5Z" fill="#FFC368"/>
</g>
<path d="M100.696 125.887C100.279 125.762 99.8208 125.679 99.3622 125.554C92.066 123.469 88.3136 133.015 91.107 139.143C93.2333 143.895 97.3609 146.813 102.072 143.728C105.658 141.394 106.575 135.641 105.616 131.681C105.116 129.68 104.073 127.763 102.322 126.554C101.78 126.22 101.238 126.054 100.696 125.887Z" fill="#FD8780"/>
<path d="M91.9826 131.974C94.776 129.514 98.5701 128.555 102.114 129.806C103.448 130.265 104.616 131.057 105.7 131.974C105.658 131.89 105.658 131.765 105.658 131.682C105.158 129.681 104.115 127.763 102.364 126.555C101.822 126.179 101.28 126.013 100.738 125.888C100.321 125.763 99.8626 125.679 99.4039 125.554C93.9839 124.012 90.5234 128.847 90.2316 133.975C90.7319 133.266 91.3156 132.599 91.9826 131.974Z" fill="#FD615D"/>
<path d="M92.3579 138.184C92.2328 137.976 92.1077 137.767 91.9826 137.559C92.0243 137.684 92.066 137.809 92.1077 137.934C92.066 136.725 91.3989 135.516 91.3155 134.349C91.2322 133.14 91.3156 132.265 91.6491 131.181C91.7325 130.931 91.8159 130.722 91.8992 130.514C91.8159 130.764 91.9826 130.347 91.9826 130.347C92.0243 130.222 92.1077 130.097 92.1911 129.972C92.3161 129.764 92.3996 129.555 92.5246 129.347C92.608 129.222 92.6914 129.097 92.7748 129.013C92.8165 128.972 93.025 128.68 92.8582 128.847C93.15 128.471 93.4835 128.096 93.8588 127.763C93.9422 127.679 94.0673 127.596 94.1507 127.513C94.4842 127.221 93.9422 127.638 94.2757 127.429C94.4842 127.304 94.6926 127.138 94.9011 127.012C95.1096 126.887 95.3598 126.762 95.5682 126.679C95.8184 126.554 95.2347 126.762 95.6516 126.637C95.7767 126.596 95.9017 126.554 96.0268 126.512C96.2353 126.429 96.4437 126.387 96.6939 126.345C96.819 126.304 96.9441 126.304 97.1108 126.262C97.1942 126.262 97.2776 126.22 97.361 126.22C97.1942 126.22 97.1942 126.262 97.361 126.22C97.8613 126.179 98.3616 126.179 98.8202 126.179C98.9036 126.179 98.987 126.179 99.0704 126.22C99.4873 126.262 98.7785 126.137 99.2371 126.262C99.4873 126.304 99.7792 126.345 100.029 126.429C100.279 126.512 100.53 126.596 100.78 126.679C101.197 126.804 100.53 126.554 100.947 126.721C101.03 126.762 101.113 126.804 101.197 126.846C101.447 126.971 101.655 127.096 101.905 127.221C101.989 127.263 102.072 127.304 102.114 127.388C102.197 127.429 102.281 127.471 102.322 127.554C102.197 127.471 102.239 127.471 102.364 127.596C102.739 127.93 103.115 128.263 103.406 128.68C103.24 128.471 103.532 128.847 103.532 128.847C103.573 128.93 103.657 129.013 103.698 129.097C103.865 129.389 104.073 129.68 104.199 130.014C105.283 132.39 104.991 135.183 103.948 137.684C103.573 138.601 104.991 139.393 105.616 138.643C107.617 136.267 108.118 132.723 107.159 129.764C106.242 127.054 104.282 124.97 101.614 123.969C99.1538 123.011 96.3604 123.219 93.9839 124.303C91.6074 125.428 89.898 127.638 89.1059 130.139C88.6055 131.64 88.5221 133.265 88.814 134.808C88.9807 135.641 89.2726 136.475 89.6478 137.225C89.8146 137.601 90.0647 137.892 90.3149 138.226C90.3983 138.351 90.4817 138.434 90.5651 138.518C90.6068 138.559 90.9403 138.726 90.7736 138.601C90.9403 138.726 91.1071 139.018 91.2322 139.185C91.7325 139.726 92.7748 138.851 92.3579 138.184Z" fill="black"/>
<path d="M77.3066 87.787C76.0141 76.2402 66.5082 66.7777 55.2095 64.61C51.207 63.818 46.9127 63.9014 43.0353 65.1102C42.7851 64.8601 42.3682 64.7351 41.9929 64.9852C41.2842 65.402 40.6171 65.9023 39.95 66.4025C38.324 67.2362 36.823 68.32 35.4888 69.6956C30.986 74.281 27.067 81.9094 29.6936 88.2872C29.6936 88.4123 29.6519 88.5374 29.6519 88.7041C28.8597 94.54 29.8604 100.751 33.3208 105.67C39.4497 114.341 51.6239 118.009 61.5467 114.299C72.0116 110.297 78.5157 98.8336 77.3066 87.787Z" fill="white"/>
<path opacity="0.25" d="M51.5403 76.8655C58.2528 76.3236 65.2155 79.1582 69.5932 84.2855C70.7606 85.6611 72.2198 87.3285 73.9709 86.87C75.9722 86.3281 76.1389 83.5768 75.5969 81.5759C72.8869 71.1129 61.9218 63.5262 51.1651 64.5684C40.7419 65.5688 30.0685 76.0318 29.4432 86.8283C29.0679 93.3312 33.6958 88.6624 35.7805 85.8695C39.5328 80.8256 45.203 77.4074 51.5403 76.8655Z" fill="black"/>
<path d="M78.891 84.2019C77.6403 73.7389 70.5942 65.6937 60.713 62.3172C50.5817 58.899 39.5748 61.3584 32.3203 69.3203C27.8175 74.2391 24.6906 80.742 25.0241 87.5367C25.1909 91.4551 31.3614 91.4968 31.153 87.5367C30.8611 81.4924 34.0297 75.8649 38.4492 71.9048C42.4517 68.2782 47.3714 66.6941 52.708 66.9859C62.2973 67.4861 71.5948 74.2808 72.7622 84.2019C72.9706 85.8693 74.013 87.2449 75.8475 87.2866C77.3484 87.2866 79.0995 85.8276 78.891 84.2019Z" fill="black"/>
<path d="M63.715 101.668C63.0896 100.751 63.0062 99.5004 63.3397 98.4583C63.7149 97.2911 64.4237 96.249 65.3827 95.5403C66.3833 94.79 67.6758 94.4565 68.8849 94.7066C69.135 94.7483 69.3851 94.8317 69.5936 94.915C69.677 92.9141 69.4268 90.8299 68.8431 88.7873C67.3839 83.9101 63.84 80.2418 59.5457 78.2826C54.5009 75.9899 48.3721 76.0316 43.3272 79.3664C40.0335 81.4507 37.4486 84.7438 36.3229 88.4955C35.489 90.8716 35.0721 93.3727 35.1138 95.9155C35.2389 107.504 47.163 116.091 58.1698 111.464C62.0889 109.838 65.2159 106.879 67.2171 103.294C65.9247 103.21 64.5071 102.794 63.715 101.668Z" fill="black"/>
<path d="M37.9903 111.256C39.658 114.216 43.0768 115.883 46.2455 116.675C50.0812 117.634 54.2921 117.634 58.0862 116.425C60.4627 115.675 62.5473 114.424 64.4234 112.798C65.0071 112.298 64.9238 111.339 64.4234 110.839C63.8397 110.255 63.0476 110.38 62.4639 110.839C62.6307 110.714 62.2554 111.006 62.2554 110.964C62.1721 111.006 62.0887 111.089 62.0053 111.131C61.7968 111.256 61.5884 111.423 61.3799 111.548C60.963 111.798 60.546 112.048 60.0874 112.298C59.7122 112.506 59.2953 112.673 58.92 112.882C58.795 112.923 58.7115 112.965 58.5865 113.048C58.3363 113.173 58.92 112.923 58.4614 113.09C58.253 113.173 58.0028 113.257 57.7943 113.34C56.8771 113.674 55.9598 113.924 55.0426 114.09C54.6257 114.174 54.2087 114.257 53.7918 114.299C53.3332 114.382 54.0837 114.257 53.625 114.299C53.5416 114.299 53.4583 114.341 53.3332 114.341C53.083 114.382 52.8329 114.382 52.5827 114.424C51.7072 114.466 50.7899 114.507 49.8727 114.424C49.4558 114.382 49.0389 114.341 48.5802 114.299C48.4968 114.299 48.205 114.257 48.4969 114.299C48.4135 114.299 48.3301 114.257 48.2467 114.257C47.9966 114.216 47.7464 114.174 47.5379 114.132C46.7041 113.965 45.9119 113.757 45.1198 113.507C44.7445 113.382 44.3693 113.257 44.0357 113.09C43.869 113.007 43.7022 112.965 43.5354 112.882C43.5354 112.882 43.2019 112.757 43.3687 112.798C43.4937 112.84 43.1185 112.673 43.0768 112.673C42.3264 112.34 41.6593 111.965 40.9922 111.506C40.4502 111.131 39.9499 110.756 39.3662 110.172C38.6574 109.505 37.49 110.38 37.9903 111.256Z" fill="black"/>
<path d="M31.2365 67.9028C33.196 66.1104 35.4057 64.7348 37.7405 63.4842C40.1587 62.192 42.7853 61.1915 45.4537 60.6079C51.1655 59.274 57.1693 59.6075 62.5476 62.0669C66.2583 63.7343 69.5103 66.1937 72.4705 68.9867C73.5128 69.9454 74.972 68.4864 74.0548 67.4026C69.2185 61.9002 62.5476 58.3152 55.2514 57.6066C49.206 56.9813 43.1189 58.482 37.8239 61.3999C35.1139 62.9006 32.6123 64.9015 30.4026 67.0691C29.8606 67.611 30.6945 68.4447 31.2365 67.9028Z" fill="black"/>
<path d="M147.726 69.9875C143.265 68.4034 138.345 68.07 133.55 69.5289C113.621 75.5733 111.036 109.463 132.383 115.508C150.311 120.593 164.069 108.63 164.653 93.623C165.028 82.9933 157.482 73.4474 147.726 69.9875Z" fill="white"/>
<path opacity="0.25" d="M130.132 84.4111C134.426 81.3681 139.971 80.1592 145.141 81.118C150.311 82.0767 155.064 85.2031 157.982 89.5801C158.733 90.7056 159.567 92.0395 160.901 92.2479C162.152 92.4147 163.319 91.4559 163.778 90.2887C164.236 89.1215 164.069 87.8293 163.861 86.5787C161.985 76.741 153.354 68.529 143.432 67.1534C134.259 65.8612 125.837 70.5299 119.708 77.0328C117.249 79.659 115.914 82.7437 118.416 86.0368C122.002 90.789 126.588 86.9122 130.132 84.4111Z" fill="black"/>
<path d="M119.833 83.2437C122.919 74.1146 132.508 69.029 141.889 70.1129C151.812 71.28 162.902 81.5763 160.358 92.2894C159.441 96.1245 165.362 97.7502 166.279 93.9151C168.947 82.7852 160.9 70.9466 150.936 66.4029C142.264 62.4428 131.674 63.0681 123.752 68.5705C119.083 71.7803 115.789 76.2406 113.955 81.618C112.662 85.3697 118.582 86.9954 119.833 83.2437Z" fill="black"/>
<path d="M150.769 108.172C149.727 107.338 149.352 105.837 149.31 104.545C149.268 103.128 149.56 101.627 150.269 100.418C150.936 99.2509 152.02 98.2922 153.437 98.4172C154.188 98.4589 154.897 98.8758 155.439 99.3343C155.939 99.7512 156.398 100.21 156.773 100.71C157.607 97.5418 157.607 94.082 156.606 90.7471C155.147 85.87 151.603 82.2017 147.309 80.2425C142.264 77.9498 136.135 77.9915 131.09 81.3263C127.796 83.4105 125.211 86.7037 124.086 90.4553C123.252 92.8314 122.835 95.3325 122.877 97.8753C123.002 109.464 134.926 118.051 145.933 113.424C148.434 112.382 150.602 110.798 152.395 108.839C151.853 108.755 151.269 108.547 150.769 108.172Z" fill="black"/>
<path d="M123.919 112.09C125.587 113.966 127.63 115.508 129.881 116.592C132.091 117.634 134.426 118.259 136.844 118.509C141.264 119.009 145.933 118.259 149.977 116.3C152.02 115.299 153.896 114.007 155.356 112.298C155.814 111.756 155.898 110.964 155.356 110.422C154.855 109.922 153.98 109.922 153.479 110.422C153.146 110.714 152.854 111.048 152.521 111.298C152.479 111.339 152.02 111.715 152.27 111.506C152.062 111.673 151.853 111.84 151.603 111.965C150.853 112.507 150.102 112.965 149.269 113.424C147.601 114.299 145.933 114.924 143.89 115.383C141.847 115.841 140.054 116.05 137.803 115.925C137.303 115.883 136.802 115.883 136.302 115.8C135.843 115.758 135.343 115.675 134.718 115.55C133.675 115.341 132.591 115.049 131.591 114.716C129.173 113.924 126.88 112.673 124.878 111.048C124.211 110.589 123.294 111.423 123.919 112.09Z" fill="black"/>
<path d="M119.542 70.6962C120.792 69.9459 121.876 68.9037 123.044 67.9867C124.211 67.1113 125.462 66.3192 126.754 65.694C129.256 64.4434 132.049 63.6514 134.843 63.3179C140.596 62.6093 146.433 63.7764 151.561 66.3609C154.397 67.8199 157.107 69.7374 159.358 71.9884C160.192 72.8221 161.318 71.6133 160.609 70.7379C156.648 65.9441 150.978 62.9427 144.932 61.7339C138.887 60.525 132.466 61.0669 126.879 63.7765C125.337 64.5268 123.878 65.4439 122.502 66.5277C121.835 67.0696 121.209 67.6115 120.667 68.2368C120.375 68.5702 120.083 68.9037 119.792 69.2372C119.5 69.5707 119.333 69.9876 119.166 70.4044C118.999 70.6128 119.333 70.7796 119.542 70.6962Z" fill="black"/>
<path d="M163.611 43.6424C162.61 42.0583 161.526 40.4326 160.317 38.9736C159.191 37.598 157.815 36.4308 156.356 35.4304C153.646 33.5962 150.477 32.304 147.267 31.637C140.763 30.2614 133.884 31.1785 127.797 33.763C124.169 35.2637 120.876 37.2645 117.832 39.7657C116.957 40.516 117.04 42.1 117.832 42.8504C118.749 43.7258 119.958 43.6424 120.917 42.8504C121.084 42.7253 121.209 42.6003 121.376 42.4752C121.418 42.4335 121.918 42.0583 121.626 42.2668C121.334 42.4752 121.835 42.1 121.918 42.0583C122.085 41.9333 122.252 41.8082 122.46 41.6832C123.085 41.2663 123.669 40.8495 124.336 40.4326C125.67 39.5989 127.046 38.8486 128.464 38.2233C128.63 38.1399 128.797 38.0982 128.964 38.0149C129.131 37.9315 129.756 37.7648 129.131 37.9315C129.506 37.8065 129.881 37.6397 130.215 37.473C130.924 37.1812 131.674 36.9311 132.383 36.7226C133.842 36.2641 135.343 35.9306 136.844 35.6805C137.052 35.6388 137.219 35.6388 137.428 35.5971C137.553 35.5554 137.845 35.5555 137.219 35.6388C137.303 35.6388 137.386 35.5971 137.469 35.5971C137.845 35.5554 138.261 35.5138 138.637 35.4721C139.387 35.3887 140.138 35.3887 140.888 35.3887C141.639 35.3887 142.389 35.3887 143.14 35.4721C143.515 35.5138 143.848 35.5138 144.224 35.5554C144.39 35.5554 145.057 35.6805 144.349 35.5554C144.557 35.5971 144.766 35.5971 144.974 35.6388C146.433 35.8889 147.892 36.2641 149.31 36.7226C149.644 36.8477 149.935 36.9727 150.269 37.0978C150.352 37.1395 150.436 37.1812 150.519 37.1812C149.977 37.0144 150.269 37.0561 150.394 37.1395C150.603 37.2229 150.769 37.3062 150.978 37.3896C151.687 37.7231 152.354 38.0566 152.979 38.4734C153.729 38.932 154.438 39.3905 155.147 39.8907C155.522 40.1408 155.898 40.4326 156.231 40.6827C156.44 40.8495 155.939 40.4326 156.148 40.5994C156.231 40.6827 156.314 40.7244 156.398 40.8078C156.565 40.9745 156.773 41.0996 156.94 41.2663C157.649 41.8916 158.399 42.4752 159.108 43.1422C159.441 43.4756 159.817 43.8091 160.108 44.1843C160.15 44.2677 160.234 44.351 160.275 44.4344C160.15 44.2677 160.275 44.4344 160.359 44.5178C160.525 44.7262 160.692 44.9763 160.859 45.1847C161.359 45.8934 162.235 46.1852 162.985 45.7266C163.777 45.3515 164.069 44.351 163.611 43.6424Z" fill="black"/>
<path d="M29.5268 42.7253C30.2356 42.5169 30.8192 42.1 31.4863 41.7665C32.1117 41.433 32.6954 41.0996 33.3208 40.7661C33.9462 40.4326 34.5299 40.0574 35.1553 39.7239C35.7807 39.3905 36.4477 39.0987 37.0731 38.8069C37.7402 38.4734 38.3656 38.1816 39.0327 37.8898C39.1161 37.8481 39.1995 37.8064 39.2829 37.7647C39.2829 37.7647 38.8659 37.9315 39.0744 37.8481C39.2412 37.7647 39.4079 37.7231 39.5747 37.6397C39.9499 37.5146 40.2835 37.3479 40.6587 37.2228C42.0346 36.7643 43.4104 36.3474 44.8696 36.0973C45.2032 36.014 45.5367 35.9723 45.912 35.8889C46.0787 35.8472 46.2872 35.8472 46.454 35.8055C46.5374 35.8055 46.6624 35.8055 46.7458 35.7639C46.5373 35.8055 46.2872 35.8055 46.6624 35.7639C47.4129 35.6805 48.1634 35.5971 48.9139 35.5554C50.4565 35.4721 51.9991 35.5137 53.5417 35.6388C53.917 35.6805 54.2922 35.7222 54.6257 35.7639C54.9176 35.8055 54.6675 35.6805 54.5007 35.7639C54.5424 35.7639 54.7508 35.8055 54.7925 35.8055C55.001 35.8472 55.1678 35.8472 55.3762 35.8889C56.1684 36.014 56.9605 36.1807 57.7527 36.3891C59.337 36.7643 60.9213 37.3062 62.464 37.8898C62.5474 37.9315 62.6724 37.9732 62.7558 38.0148C62.5056 37.8898 63.131 38.1816 62.7558 38.0148C62.9643 38.0982 63.2144 38.2233 63.4229 38.3067C63.8815 38.5151 64.2985 38.7235 64.7154 38.9319C65.5909 39.3905 66.4664 39.849 67.3003 40.3909C68.1342 40.8911 68.968 41.4747 69.8019 42.0583C70.0103 42.2251 70.2188 42.3501 70.4272 42.5169C70.5106 42.6002 70.594 42.6419 70.7191 42.7253C70.4689 42.5585 70.594 42.6419 70.7608 42.767C71.2194 43.1004 71.6363 43.4756 72.0533 43.8508C72.9288 44.6011 74.3047 44.7679 75.1385 43.8508C75.889 43.0171 76.0558 41.5581 75.1385 40.7661C69.385 35.8055 62.5057 32.4707 54.9593 31.4703C48.4969 30.5949 41.8678 31.6787 35.9891 34.5133C34.4048 35.2636 32.9456 36.3474 31.5697 37.4729C31.2362 37.7231 30.9443 38.0149 30.6941 38.3483C30.5274 38.5151 30.3606 38.6818 30.1939 38.8902C29.7769 39.4321 30.319 38.7652 30.1105 38.9736C30.0271 39.057 29.9854 39.1403 29.902 39.2237C29.3183 39.9324 28.6929 40.641 28.401 41.5581C28.1509 42.2251 28.818 42.892 29.5268 42.7253Z" fill="black"/>
<path d="M206.608 73.016C206.224 72.6 205.816 72.288 205.384 72.08C204.968 71.856 204.48 71.744 203.92 71.744C203.232 71.744 202.648 71.904 202.168 72.224C201.704 72.528 201.328 72.96 201.04 73.52C200.752 74.064 200.544 74.704 200.416 75.44C200.288 76.176 200.224 76.968 200.224 77.816C200.224 78.664 200.28 79.456 200.392 80.192C200.52 80.928 200.728 81.576 201.016 82.136C201.32 82.696 201.72 83.136 202.216 83.456C202.728 83.776 203.368 83.936 204.136 83.936C204.504 83.936 204.856 83.904 205.192 83.84C205.528 83.776 205.832 83.712 206.104 83.648C206.392 83.568 206.624 83.496 206.8 83.432C206.992 83.368 207.112 83.328 207.16 83.312L207.832 85.328L207.52 85.448C207.312 85.528 207.016 85.624 206.632 85.736C206.264 85.832 205.816 85.92 205.288 86C204.776 86.096 204.208 86.144 203.584 86.144C201.44 86.144 199.824 85.464 198.736 84.104C197.664 82.728 197.128 80.72 197.128 78.08C197.128 76.816 197.272 75.664 197.56 74.624C197.848 73.568 198.28 72.664 198.856 71.912C199.448 71.16 200.184 70.576 201.064 70.16C201.96 69.744 203.008 69.536 204.208 69.536C205.168 69.536 205.952 69.712 206.56 70.064C207.184 70.416 207.688 70.816 208.072 71.264L206.608 73.016ZM213.796 73.76C215.636 73.76 216.972 74.304 217.804 75.392C218.636 76.48 219.052 77.976 219.052 79.88C219.052 80.776 218.94 81.616 218.716 82.4C218.492 83.168 218.148 83.84 217.684 84.416C217.236 84.976 216.668 85.424 215.98 85.76C215.292 86.08 214.492 86.24 213.58 86.24C212.668 86.24 211.876 86.104 211.204 85.832C210.548 85.544 210.004 85.136 209.572 84.608C209.14 84.08 208.82 83.44 208.612 82.688C208.42 81.936 208.324 81.088 208.324 80.144C208.324 79.232 208.436 78.392 208.66 77.624C208.884 76.84 209.22 76.168 209.668 75.608C210.132 75.032 210.708 74.584 211.396 74.264C212.084 73.928 212.884 73.76 213.796 73.76ZM213.556 75.776C213.092 75.776 212.708 75.88 212.404 76.088C212.116 76.296 211.884 76.592 211.708 76.976C211.548 77.344 211.436 77.784 211.372 78.296C211.308 78.792 211.276 79.328 211.276 79.904C211.276 80.496 211.308 81.056 211.372 81.584C211.452 82.112 211.588 82.576 211.78 82.976C211.972 83.36 212.228 83.664 212.548 83.888C212.884 84.112 213.308 84.224 213.82 84.224C214.284 84.224 214.66 84.12 214.948 83.912C215.252 83.704 215.484 83.416 215.644 83.048C215.82 82.664 215.94 82.224 216.004 81.728C216.068 81.232 216.1 80.696 216.1 80.12C216.1 79.528 216.06 78.968 215.98 78.44C215.916 77.912 215.788 77.448 215.596 77.048C215.404 76.648 215.14 76.336 214.804 76.112C214.484 75.888 214.068 75.776 213.556 75.776ZM228.883 86V78.248C228.883 77.576 228.763 77.04 228.523 76.64C228.283 76.224 227.875 76.016 227.299 76.016C226.931 76.016 226.571 76.112 226.219 76.304C225.883 76.48 225.579 76.744 225.307 77.096C225.035 77.448 224.811 77.88 224.635 78.392C224.475 78.888 224.395 79.448 224.395 80.072V86H221.659V79.952C221.659 78.992 221.595 78.192 221.467 77.552C221.339 76.896 221.203 76.368 221.059 75.968C220.883 75.504 220.691 75.128 220.483 74.84L222.643 73.976C222.803 74.152 222.963 74.368 223.123 74.624C223.251 74.848 223.379 75.128 223.507 75.464C223.635 75.784 223.739 76.152 223.819 76.568C224.235 75.608 224.835 74.92 225.619 74.504C226.403 74.072 227.227 73.856 228.091 73.856C229.323 73.856 230.211 74.232 230.755 74.984C231.315 75.72 231.595 76.72 231.595 77.984V86H228.883ZM233.295 74.048H235.455L235.935 71.24L238.191 70.736V74.048H241.143L240.807 75.992H238.191V83.096C238.191 83.512 238.303 83.784 238.527 83.912C238.751 84.024 238.999 84.08 239.271 84.08C239.495 84.08 239.719 84.064 239.943 84.032C240.167 84 240.367 83.96 240.543 83.912C240.751 83.864 240.951 83.808 241.143 83.744L241.599 85.544L241.383 85.616C241.239 85.68 241.023 85.752 240.735 85.832C240.463 85.896 240.135 85.952 239.751 86C239.383 86.064 238.975 86.096 238.527 86.096C238.079 86.096 237.663 86.048 237.279 85.952C236.911 85.856 236.591 85.704 236.319 85.496C236.047 85.272 235.831 84.992 235.671 84.656C235.527 84.32 235.455 83.904 235.455 83.408V75.992H233.295V74.048ZM252.583 80.216C252.583 81.176 252.639 81.984 252.751 82.64C252.879 83.28 253.015 83.8 253.159 84.2C253.335 84.68 253.527 85.056 253.735 85.328L251.599 86.192C251.391 85.984 251.199 85.736 251.023 85.448C250.879 85.192 250.743 84.888 250.615 84.536C250.487 84.168 250.407 83.736 250.375 83.24C250.103 84.2 249.663 84.928 249.055 85.424C248.463 85.904 247.655 86.144 246.631 86.144C245.879 86.144 245.223 86.008 244.663 85.736C244.119 85.448 243.663 85.048 243.295 84.536C242.927 84.008 242.655 83.376 242.479 82.64C242.303 81.904 242.215 81.088 242.215 80.192C242.215 79.28 242.351 78.44 242.623 77.672C242.911 76.888 243.303 76.216 243.799 75.656C244.311 75.096 244.919 74.656 245.623 74.336C246.327 74.016 247.103 73.856 247.951 73.856C248.431 73.856 248.927 73.896 249.439 73.976C249.967 74.04 250.455 74.112 250.903 74.192C251.351 74.272 251.727 74.352 252.031 74.432C252.351 74.496 252.535 74.536 252.583 74.552V80.216ZM247.087 84.224C247.487 84.224 247.855 84.088 248.191 83.816C248.527 83.544 248.815 83.192 249.055 82.76C249.311 82.312 249.503 81.808 249.631 81.248C249.775 80.672 249.847 80.088 249.847 79.496V76.04C249.687 75.992 249.447 75.936 249.127 75.872C248.807 75.808 248.519 75.776 248.263 75.776C247.655 75.776 247.151 75.88 246.751 76.088C246.367 76.296 246.055 76.584 245.815 76.952C245.575 77.32 245.407 77.76 245.311 78.272C245.215 78.784 245.167 79.344 245.167 79.952C245.167 80.512 245.183 81.048 245.215 81.56C245.247 82.072 245.327 82.528 245.455 82.928C245.599 83.328 245.799 83.648 246.055 83.888C246.311 84.112 246.655 84.224 247.087 84.224ZM262.282 76.856C262.042 76.584 261.794 76.352 261.538 76.16C261.298 75.968 260.97 75.872 260.554 75.872C260.314 75.872 260.042 75.912 259.738 75.992C259.45 76.056 259.178 76.232 258.922 76.52C258.666 76.792 258.45 77.2 258.274 77.744C258.114 78.288 258.034 79.024 258.034 79.952C258.034 80.896 258.114 81.648 258.274 82.208C258.45 82.752 258.666 83.176 258.922 83.48C259.194 83.784 259.482 83.984 259.786 84.08C260.09 84.16 260.386 84.2 260.674 84.2C260.898 84.2 261.13 84.184 261.37 84.152C261.61 84.104 261.842 84.056 262.066 84.008C262.29 83.944 262.482 83.888 262.642 83.84C262.818 83.792 262.946 83.752 263.026 83.72L263.698 85.448C263.65 85.464 263.538 85.512 263.362 85.592C263.202 85.672 262.978 85.752 262.69 85.832C262.402 85.912 262.058 85.984 261.658 86.048C261.258 86.128 260.81 86.168 260.314 86.168C259.386 86.168 258.594 86.032 257.938 85.76C257.282 85.472 256.738 85.072 256.306 84.56C255.89 84.048 255.578 83.432 255.37 82.712C255.178 81.992 255.082 81.192 255.082 80.312C255.082 79.256 255.218 78.32 255.49 77.504C255.778 76.688 256.17 76.008 256.666 75.464C257.162 74.904 257.746 74.48 258.418 74.192C259.09 73.904 259.81 73.76 260.578 73.76C261.33 73.76 261.962 73.904 262.474 74.192C263.002 74.48 263.45 74.88 263.818 75.392L262.282 76.856ZM264.326 74.048H266.486L266.966 71.24L269.222 70.736V74.048H272.174L271.838 75.992H269.222V83.096C269.222 83.512 269.334 83.784 269.558 83.912C269.782 84.024 270.03 84.08 270.302 84.08C270.526 84.08 270.75 84.064 270.974 84.032C271.198 84 271.398 83.96 271.574 83.912C271.782 83.864 271.982 83.808 272.174 83.744L272.63 85.544L272.414 85.616C272.27 85.68 272.054 85.752 271.766 85.832C271.494 85.896 271.166 85.952 270.782 86C270.414 86.064 270.006 86.096 269.558 86.096C269.11 86.096 268.694 86.048 268.31 85.952C267.942 85.856 267.622 85.704 267.35 85.496C267.078 85.272 266.862 84.992 266.702 84.656C266.558 84.32 266.486 83.904 266.486 83.408V75.992H264.326V74.048ZM273.246 80.312C273.246 79.24 273.39 78.296 273.678 77.48C273.982 76.664 274.39 75.984 274.902 75.44C275.43 74.88 276.046 74.464 276.75 74.192C277.454 73.904 278.214 73.76 279.03 73.76C279.75 73.76 280.358 73.848 280.854 74.024C281.366 74.2 281.782 74.44 282.102 74.744C282.422 75.048 282.654 75.408 282.798 75.824C282.958 76.24 283.038 76.688 283.038 77.168C283.038 77.744 282.878 78.296 282.558 78.824C282.238 79.336 281.774 79.792 281.166 80.192C280.574 80.576 279.854 80.888 279.006 81.128C278.158 81.352 277.206 81.472 276.15 81.488C276.198 81.856 276.27 82.208 276.366 82.544C276.478 82.864 276.63 83.152 276.822 83.408C277.03 83.648 277.294 83.84 277.614 83.984C277.934 84.128 278.334 84.2 278.814 84.2C279.166 84.2 279.542 84.16 279.942 84.08C280.342 84 280.71 83.904 281.046 83.792C281.446 83.664 281.838 83.52 282.222 83.36L282.942 85.064C282.526 85.272 282.078 85.456 281.598 85.616C281.182 85.76 280.702 85.888 280.158 86C279.614 86.112 279.038 86.168 278.43 86.168C277.502 86.168 276.71 86.032 276.054 85.76C275.398 85.472 274.862 85.072 274.446 84.56C274.03 84.048 273.726 83.432 273.534 82.712C273.342 81.992 273.246 81.192 273.246 80.312ZM278.814 75.632C278.286 75.632 277.846 75.76 277.494 76.016C277.158 76.256 276.886 76.576 276.678 76.976C276.47 77.36 276.318 77.8 276.222 78.296C276.142 78.776 276.094 79.264 276.078 79.76C276.846 79.728 277.494 79.632 278.022 79.472C278.566 79.296 279.006 79.088 279.342 78.848C279.678 78.592 279.918 78.32 280.062 78.032C280.222 77.744 280.302 77.456 280.302 77.168C280.302 76.704 280.166 76.336 279.894 76.064C279.622 75.776 279.262 75.632 278.814 75.632ZM284.481 77.336H291.273V79.328H284.481V77.336ZM301.469 86V78.248C301.469 77.576 301.349 77.04 301.109 76.64C300.869 76.224 300.461 76.016 299.885 76.016C299.517 76.016 299.157 76.112 298.805 76.304C298.469 76.48 298.165 76.744 297.893 77.096C297.621 77.448 297.397 77.88 297.221 78.392C297.061 78.888 296.981 79.448 296.981 80.072V86H294.245V79.952C294.245 78.992 294.181 78.192 294.053 77.552C293.925 76.896 293.789 76.368 293.645 75.968C293.469 75.504 293.277 75.128 293.069 74.84L295.229 73.976C295.389 74.152 295.549 74.368 295.709 74.624C295.837 74.848 295.965 75.128 296.093 75.464C296.221 75.784 296.325 76.152 296.405 76.568C296.821 75.608 297.421 74.92 298.205 74.504C298.989 74.072 299.813 73.856 300.677 73.856C301.909 73.856 302.797 74.232 303.341 74.984C303.901 75.72 304.181 76.72 304.181 77.984V86H301.469ZM311.953 73.76C313.793 73.76 315.129 74.304 315.961 75.392C316.793 76.48 317.209 77.976 317.209 79.88C317.209 80.776 317.097 81.616 316.873 82.4C316.649 83.168 316.305 83.84 315.841 84.416C315.393 84.976 314.825 85.424 314.137 85.76C313.449 86.08 312.649 86.24 311.737 86.24C310.825 86.24 310.033 86.104 309.361 85.832C308.705 85.544 308.161 85.136 307.729 84.608C307.297 84.08 306.977 83.44 306.769 82.688C306.577 81.936 306.481 81.088 306.481 80.144C306.481 79.232 306.593 78.392 306.817 77.624C307.041 76.84 307.377 76.168 307.825 75.608C308.289 75.032 308.865 74.584 309.553 74.264C310.241 73.928 311.041 73.76 311.953 73.76ZM311.713 75.776C311.249 75.776 310.865 75.88 310.561 76.088C310.273 76.296 310.041 76.592 309.865 76.976C309.705 77.344 309.593 77.784 309.529 78.296C309.465 78.792 309.433 79.328 309.433 79.904C309.433 80.496 309.465 81.056 309.529 81.584C309.609 82.112 309.745 82.576 309.937 82.976C310.129 83.36 310.385 83.664 310.705 83.888C311.041 84.112 311.465 84.224 311.977 84.224C312.441 84.224 312.817 84.12 313.105 83.912C313.409 83.704 313.641 83.416 313.801 83.048C313.977 82.664 314.097 82.224 314.161 81.728C314.225 81.232 314.257 80.696 314.257 80.12C314.257 79.528 314.217 78.968 314.137 78.44C314.073 77.912 313.945 77.448 313.753 77.048C313.561 76.648 313.297 76.336 312.961 76.112C312.641 75.888 312.225 75.776 311.713 75.776ZM326.703 74.048H329.439V80.216C329.439 81.176 329.495 81.984 329.607 82.64C329.735 83.28 329.871 83.8 330.015 84.2C330.191 84.68 330.383 85.056 330.591 85.328L328.455 86.192C328.263 86.016 328.087 85.792 327.927 85.52C327.799 85.296 327.663 85.024 327.519 84.704C327.391 84.368 327.303 83.976 327.255 83.528C326.823 84.472 326.215 85.144 325.431 85.544C324.647 85.944 323.831 86.144 322.983 86.144C321.719 86.144 320.815 85.776 320.271 85.04C319.743 84.304 319.479 83.296 319.479 82.016V74.048H322.215V81.968C322.215 82.64 322.335 83.168 322.575 83.552C322.815 83.936 323.223 84.128 323.799 84.128C324.151 84.128 324.495 84.032 324.831 83.84C325.183 83.632 325.495 83.344 325.767 82.976C326.055 82.608 326.279 82.168 326.439 81.656C326.615 81.128 326.703 80.544 326.703 79.904V74.048ZM336.299 73.76C336.763 73.76 337.219 73.808 337.667 73.904C338.115 74 338.515 74.112 338.867 74.24C339.283 74.384 339.667 74.536 340.019 74.696L339.203 76.568C338.883 76.424 338.563 76.296 338.243 76.184C337.971 76.088 337.667 76 337.331 75.92C337.011 75.824 336.691 75.776 336.371 75.776C336.003 75.776 335.683 75.864 335.411 76.04C335.155 76.216 335.027 76.48 335.027 76.832C335.027 77.744 335.691 78.456 337.019 78.968C337.515 79.16 337.963 79.368 338.363 79.592C338.763 79.8 339.099 80.048 339.371 80.336C339.659 80.624 339.875 80.96 340.019 81.344C340.163 81.712 340.235 82.152 340.235 82.664C340.235 83.112 340.139 83.552 339.947 83.984C339.771 84.416 339.499 84.8 339.131 85.136C338.779 85.472 338.339 85.744 337.811 85.952C337.299 86.144 336.715 86.24 336.059 86.24C335.531 86.24 335.011 86.176 334.499 86.048C333.987 85.936 333.523 85.808 333.107 85.664C332.707 85.52 332.387 85.384 332.147 85.256L331.787 85.088L332.675 83.072L332.987 83.24C333.195 83.368 333.459 83.504 333.779 83.648C334.099 83.792 334.443 83.928 334.811 84.056C335.179 84.168 335.515 84.224 335.819 84.224C336.379 84.224 336.795 84.112 337.067 83.888C337.339 83.664 337.475 83.368 337.475 83C337.475 82.584 337.323 82.208 337.019 81.872C336.731 81.52 336.291 81.232 335.699 81.008C334.467 80.544 333.579 80.016 333.035 79.424C332.507 78.832 332.243 78.064 332.243 77.12C332.243 76.672 332.347 76.248 332.555 75.848C332.763 75.432 333.043 75.072 333.395 74.768C333.763 74.448 334.195 74.2 334.691 74.024C335.187 73.848 335.723 73.76 336.299 73.76ZM344.857 82.64C345.417 82.64 345.849 82.808 346.153 83.144C346.457 83.48 346.609 83.912 346.609 84.44C346.609 84.952 346.457 85.384 346.153 85.736C345.849 86.088 345.393 86.264 344.785 86.264C344.225 86.264 343.793 86.088 343.489 85.736C343.201 85.384 343.057 84.968 343.057 84.488C343.057 83.976 343.209 83.544 343.513 83.192C343.817 82.824 344.265 82.64 344.857 82.64ZM343.681 69.752H346.729L346.033 80.72H343.681V69.752ZM203.797 98.752C203.909 98.752 204.165 98.752 204.565 98.752C204.965 98.736 205.413 98.728 205.909 98.728C206.405 98.728 206.901 98.728 207.397 98.728C207.893 98.712 208.301 98.704 208.621 98.704C210.573 98.704 212.013 99.144 212.941 100.024C213.869 100.888 214.333 102.08 214.333 103.6C214.333 104.336 214.205 105.016 213.949 105.64C213.693 106.248 213.309 106.776 212.797 107.224C212.301 107.672 211.677 108.024 210.925 108.28C210.189 108.52 209.325 108.64 208.333 108.64H206.653V115H203.797V98.752ZM206.653 106.504H208.501C209.509 106.504 210.229 106.24 210.661 105.712C211.093 105.184 211.309 104.512 211.309 103.696C211.309 103.328 211.261 102.968 211.165 102.616C211.069 102.264 210.901 101.952 210.661 101.68C210.437 101.392 210.125 101.168 209.725 101.008C209.341 100.832 208.853 100.744 208.261 100.744C207.909 100.744 207.597 100.744 207.325 100.744C207.069 100.744 206.845 100.752 206.653 100.768V106.504ZM220.195 102.76C222.035 102.76 223.371 103.304 224.203 104.392C225.035 105.48 225.451 106.976 225.451 108.88C225.451 109.776 225.339 110.616 225.115 111.4C224.891 112.168 224.547 112.84 224.083 113.416C223.635 113.976 223.067 114.424 222.379 114.76C221.691 115.08 220.891 115.24 219.979 115.24C219.067 115.24 218.275 115.104 217.603 114.832C216.947 114.544 216.403 114.136 215.971 113.608C215.539 113.08 215.219 112.44 215.011 111.688C214.819 110.936 214.723 110.088 214.723 109.144C214.723 108.232 214.835 107.392 215.059 106.624C215.283 105.84 215.619 105.168 216.067 104.608C216.531 104.032 217.107 103.584 217.795 103.264C218.483 102.928 219.283 102.76 220.195 102.76ZM219.955 104.776C219.491 104.776 219.107 104.88 218.803 105.088C218.515 105.296 218.283 105.592 218.107 105.976C217.947 106.344 217.835 106.784 217.771 107.296C217.707 107.792 217.675 108.328 217.675 108.904C217.675 109.496 217.707 110.056 217.771 110.584C217.851 111.112 217.987 111.576 218.179 111.976C218.371 112.36 218.627 112.664 218.947 112.888C219.283 113.112 219.707 113.224 220.219 113.224C220.683 113.224 221.059 113.12 221.347 112.912C221.651 112.704 221.883 112.416 222.043 112.048C222.219 111.664 222.339 111.224 222.403 110.728C222.467 110.232 222.499 109.696 222.499 109.12C222.499 108.528 222.459 107.968 222.379 107.44C222.315 106.912 222.187 106.448 221.995 106.048C221.803 105.648 221.539 105.336 221.203 105.112C220.883 104.888 220.467 104.776 219.955 104.776ZM234.945 103.048H237.681V109.216C237.681 110.176 237.737 110.984 237.849 111.64C237.977 112.28 238.113 112.8 238.257 113.2C238.433 113.68 238.625 114.056 238.833 114.328L236.697 115.192C236.505 115.016 236.329 114.792 236.169 114.52C236.041 114.296 235.905 114.024 235.761 113.704C235.633 113.368 235.545 112.976 235.497 112.528C235.065 113.472 234.457 114.144 233.673 114.544C232.889 114.944 232.073 115.144 231.225 115.144C229.961 115.144 229.057 114.776 228.513 114.04C227.985 113.304 227.721 112.296 227.721 111.016V103.048H230.457V110.968C230.457 111.64 230.577 112.168 230.817 112.552C231.057 112.936 231.465 113.128 232.041 113.128C232.393 113.128 232.737 113.032 233.073 112.84C233.425 112.632 233.737 112.344 234.009 111.976C234.297 111.608 234.521 111.168 234.681 110.656C234.857 110.128 234.945 109.544 234.945 108.904V103.048ZM246.365 105.544C246.077 105.544 245.789 105.616 245.501 105.76C245.213 105.904 244.957 106.104 244.733 106.36C244.509 106.6 244.325 106.896 244.181 107.248C244.037 107.6 243.965 107.992 243.965 108.424V115H241.229V108.952C241.229 107.992 241.165 107.192 241.037 106.552C240.909 105.896 240.773 105.368 240.629 104.968C240.453 104.504 240.261 104.128 240.053 103.84L242.213 102.976C242.357 103.152 242.509 103.368 242.669 103.624C242.797 103.848 242.925 104.112 243.053 104.416C243.181 104.72 243.285 105.08 243.365 105.496C243.685 104.568 244.149 103.904 244.757 103.504C245.365 103.088 246.053 102.88 246.821 102.88C247.189 102.88 247.533 102.928 247.853 103.024C248.173 103.104 248.325 103.144 248.309 103.144L247.541 105.808C247.557 105.808 247.461 105.768 247.253 105.688C247.061 105.592 246.765 105.544 246.365 105.544ZM263.43 115V107.248C263.43 106.576 263.31 106.04 263.07 105.64C262.83 105.224 262.422 105.016 261.846 105.016C261.478 105.016 261.118 105.112 260.766 105.304C260.43 105.48 260.126 105.744 259.854 106.096C259.582 106.448 259.358 106.88 259.182 107.392C259.022 107.888 258.942 108.448 258.942 109.072V115H256.206V108.952C256.206 107.992 256.142 107.192 256.014 106.552C255.886 105.896 255.75 105.368 255.606 104.968C255.43 104.504 255.238 104.128 255.03 103.84L257.19 102.976C257.35 103.152 257.51 103.368 257.67 103.624C257.798 103.848 257.926 104.128 258.054 104.464C258.182 104.784 258.286 105.152 258.366 105.568C258.782 104.608 259.382 103.92 260.166 103.504C260.95 103.072 261.774 102.856 262.638 102.856C263.87 102.856 264.758 103.232 265.302 103.984C265.862 104.72 266.142 105.72 266.142 106.984V115H263.43ZM273.914 102.76C275.754 102.76 277.09 103.304 277.922 104.392C278.754 105.48 279.17 106.976 279.17 108.88C279.17 109.776 279.058 110.616 278.834 111.4C278.61 112.168 278.266 112.84 277.802 113.416C277.354 113.976 276.786 114.424 276.098 114.76C275.41 115.08 274.61 115.24 273.698 115.24C272.786 115.24 271.994 115.104 271.322 114.832C270.666 114.544 270.122 114.136 269.69 113.608C269.258 113.08 268.938 112.44 268.73 111.688C268.538 110.936 268.442 110.088 268.442 109.144C268.442 108.232 268.554 107.392 268.778 106.624C269.002 105.84 269.338 105.168 269.786 104.608C270.25 104.032 270.826 103.584 271.514 103.264C272.202 102.928 273.002 102.76 273.914 102.76ZM273.674 104.776C273.21 104.776 272.826 104.88 272.522 105.088C272.234 105.296 272.002 105.592 271.826 105.976C271.666 106.344 271.554 106.784 271.49 107.296C271.426 107.792 271.394 108.328 271.394 108.904C271.394 109.496 271.426 110.056 271.49 110.584C271.57 111.112 271.706 111.576 271.898 111.976C272.09 112.36 272.346 112.664 272.666 112.888C273.002 113.112 273.426 113.224 273.938 113.224C274.402 113.224 274.778 113.12 275.066 112.912C275.37 112.704 275.602 112.416 275.762 112.048C275.938 111.664 276.058 111.224 276.122 110.728C276.186 110.232 276.218 109.696 276.218 109.12C276.218 108.528 276.178 107.968 276.098 107.44C276.034 106.912 275.906 106.448 275.714 106.048C275.522 105.648 275.258 105.336 274.922 105.112C274.602 104.888 274.186 104.776 273.674 104.776ZM288.664 103.048H291.4V109.216C291.4 110.176 291.456 110.984 291.568 111.64C291.696 112.28 291.832 112.8 291.976 113.2C292.152 113.68 292.344 114.056 292.552 114.328L290.416 115.192C290.224 115.016 290.048 114.792 289.888 114.52C289.76 114.296 289.624 114.024 289.48 113.704C289.352 113.368 289.264 112.976 289.216 112.528C288.784 113.472 288.176 114.144 287.392 114.544C286.608 114.944 285.792 115.144 284.944 115.144C283.68 115.144 282.776 114.776 282.232 114.04C281.704 113.304 281.44 112.296 281.44 111.016V103.048H284.176V110.968C284.176 111.64 284.296 112.168 284.536 112.552C284.776 112.936 285.184 113.128 285.76 113.128C286.112 113.128 286.456 113.032 286.792 112.84C287.144 112.632 287.456 112.344 287.728 111.976C288.016 111.608 288.24 111.168 288.4 110.656C288.576 110.128 288.664 109.544 288.664 108.904V103.048ZM298.26 102.76C298.724 102.76 299.18 102.808 299.628 102.904C300.076 103 300.476 103.112 300.828 103.24C301.244 103.384 301.628 103.536 301.98 103.696L301.164 105.568C300.844 105.424 300.524 105.296 300.204 105.184C299.932 105.088 299.628 105 299.292 104.92C298.972 104.824 298.652 104.776 298.332 104.776C297.964 104.776 297.644 104.864 297.372 105.04C297.116 105.216 296.988 105.48 296.988 105.832C296.988 106.744 297.652 107.456 298.98 107.968C299.476 108.16 299.924 108.368 300.324 108.592C300.724 108.8 301.06 109.048 301.332 109.336C301.62 109.624 301.836 109.96 301.98 110.344C302.124 110.712 302.196 111.152 302.196 111.664C302.196 112.112 302.1 112.552 301.908 112.984C301.732 113.416 301.46 113.8 301.092 114.136C300.74 114.472 300.3 114.744 299.772 114.952C299.26 115.144 298.676 115.24 298.02 115.24C297.492 115.24 296.972 115.176 296.46 115.048C295.948 114.936 295.484 114.808 295.068 114.664C294.668 114.52 294.348 114.384 294.108 114.256L293.748 114.088L294.636 112.072L294.948 112.24C295.156 112.368 295.42 112.504 295.74 112.648C296.06 112.792 296.404 112.928 296.772 113.056C297.14 113.168 297.476 113.224 297.78 113.224C298.34 113.224 298.756 113.112 299.028 112.888C299.3 112.664 299.436 112.368 299.436 112C299.436 111.584 299.284 111.208 298.98 110.872C298.692 110.52 298.252 110.232 297.66 110.008C296.428 109.544 295.54 109.016 294.996 108.424C294.468 107.832 294.204 107.064 294.204 106.12C294.204 105.672 294.308 105.248 294.516 104.848C294.724 104.432 295.004 104.072 295.356 103.768C295.724 103.448 296.156 103.2 296.652 103.024C297.148 102.848 297.684 102.76 298.26 102.76ZM317.052 100.24C317.004 100.192 316.852 100.104 316.596 99.976C316.356 99.848 316.124 99.784 315.9 99.784C315.756 99.784 315.58 99.808 315.372 99.856C315.164 99.888 314.964 99.976 314.772 100.12C314.58 100.248 314.412 100.44 314.268 100.696C314.14 100.952 314.076 101.288 314.076 101.704C314.076 101.88 314.084 102.08 314.1 102.304C314.132 102.528 314.188 102.776 314.268 103.048H317.244L316.908 104.992H314.412V114.4C314.412 115.36 314.284 116.16 314.028 116.8C313.788 117.456 313.468 118 313.068 118.432C312.668 118.88 312.22 119.248 311.724 119.536C311.244 119.84 310.764 120.112 310.284 120.352L309.18 118.528C309.772 118.224 310.236 117.896 310.572 117.544C310.908 117.208 311.156 116.864 311.316 116.512C311.492 116.176 311.596 115.848 311.628 115.528C311.66 115.208 311.676 114.92 311.676 114.664V104.992H309.516V103.048H311.604C311.54 102.808 311.492 102.56 311.46 102.304C311.444 102.048 311.436 101.808 311.436 101.584C311.436 100.944 311.548 100.376 311.772 99.88C312.012 99.384 312.324 98.976 312.708 98.656C313.108 98.336 313.564 98.096 314.076 97.936C314.604 97.76 315.148 97.672 315.708 97.672C316.332 97.672 316.844 97.776 317.244 97.984C317.644 98.176 317.972 98.408 318.228 98.68L317.052 100.24ZM328.099 109.216C328.099 110.176 328.155 110.984 328.267 111.64C328.395 112.28 328.531 112.8 328.675 113.2C328.851 113.68 329.043 114.056 329.251 114.328L327.115 115.192C326.907 114.984 326.715 114.736 326.539 114.448C326.395 114.192 326.259 113.888 326.131 113.536C326.003 113.168 325.923 112.736 325.891 112.24C325.619 113.2 325.179 113.928 324.571 114.424C323.979 114.904 323.171 115.144 322.147 115.144C321.395 115.144 320.739 115.008 320.179 114.736C319.635 114.448 319.179 114.048 318.811 113.536C318.443 113.008 318.171 112.376 317.995 111.64C317.819 110.904 317.731 110.088 317.731 109.192C317.731 108.28 317.867 107.44 318.139 106.672C318.427 105.888 318.819 105.216 319.315 104.656C319.827 104.096 320.435 103.656 321.139 103.336C321.843 103.016 322.619 102.856 323.467 102.856C323.947 102.856 324.443 102.896 324.955 102.976C325.483 103.04 325.971 103.112 326.419 103.192C326.867 103.272 327.243 103.352 327.547 103.432C327.867 103.496 328.051 103.536 328.099 103.552V109.216ZM322.603 113.224C323.003 113.224 323.371 113.088 323.707 112.816C324.043 112.544 324.331 112.192 324.571 111.76C324.827 111.312 325.019 110.808 325.147 110.248C325.291 109.672 325.363 109.088 325.363 108.496V105.04C325.203 104.992 324.963 104.936 324.643 104.872C324.323 104.808 324.035 104.776 323.779 104.776C323.171 104.776 322.667 104.88 322.267 105.088C321.883 105.296 321.571 105.584 321.331 105.952C321.091 106.32 320.923 106.76 320.827 107.272C320.731 107.784 320.683 108.344 320.683 108.952C320.683 109.512 320.699 110.048 320.731 110.56C320.763 111.072 320.843 111.528 320.971 111.928C321.115 112.328 321.315 112.648 321.571 112.888C321.827 113.112 322.171 113.224 322.603 113.224ZM333.838 115.096C332.99 115.096 332.342 114.848 331.894 114.352C331.446 113.84 331.222 113.184 331.222 112.384V103.048H333.958V112.144C333.958 112.512 334.014 112.76 334.126 112.888C334.238 113.016 334.406 113.08 334.63 113.08C334.694 113.08 334.758 113.08 334.822 113.08C334.902 113.08 334.974 113.072 335.038 113.056C335.102 113.056 335.174 113.048 335.254 113.032L335.542 114.76C335.43 114.824 335.286 114.88 335.11 114.928C334.966 114.976 334.782 115.016 334.558 115.048C334.35 115.08 334.11 115.096 333.838 115.096ZM332.638 97.72C333.15 97.72 333.542 97.872 333.814 98.176C334.086 98.48 334.222 98.872 334.222 99.352C334.222 99.832 334.078 100.232 333.79 100.552C333.518 100.872 333.11 101.032 332.566 101.032C332.054 101.032 331.654 100.88 331.366 100.576C331.094 100.256 330.958 99.872 330.958 99.424C330.958 98.928 331.094 98.52 331.366 98.2C331.654 97.88 332.078 97.72 332.638 97.72ZM342.81 105.544C342.522 105.544 342.234 105.616 341.946 105.76C341.658 105.904 341.402 106.104 341.178 106.36C340.954 106.6 340.77 106.896 340.626 107.248C340.482 107.6 340.41 107.992 340.41 108.424V115H337.674V108.952C337.674 107.992 337.61 107.192 337.482 106.552C337.354 105.896 337.218 105.368 337.074 104.968C336.898 104.504 336.706 104.128 336.498 103.84L338.658 102.976C338.802 103.152 338.954 103.368 339.114 103.624C339.242 103.848 339.37 104.112 339.498 104.416C339.626 104.72 339.73 105.08 339.81 105.496C340.13 104.568 340.594 103.904 341.202 103.504C341.81 103.088 342.498 102.88 343.266 102.88C343.634 102.88 343.978 102.928 344.298 103.024C344.618 103.104 344.77 103.144 344.754 103.144L343.986 105.808C344.002 105.808 343.906 105.768 343.698 105.688C343.506 105.592 343.21 105.544 342.81 105.544ZM344.871 109.312C344.871 108.24 345.015 107.296 345.303 106.48C345.607 105.664 346.015 104.984 346.527 104.44C347.055 103.88 347.671 103.464 348.375 103.192C349.079 102.904 349.839 102.76 350.655 102.76C351.375 102.76 351.983 102.848 352.479 103.024C352.991 103.2 353.407 103.44 353.727 103.744C354.047 104.048 354.279 104.408 354.423 104.824C354.583 105.24 354.663 105.688 354.663 106.168C354.663 106.744 354.503 107.296 354.183 107.824C353.863 108.336 353.399 108.792 352.791 109.192C352.199 109.576 351.479 109.888 350.631 110.128C349.783 110.352 348.831 110.472 347.775 110.488C347.823 110.856 347.895 111.208 347.991 111.544C348.103 111.864 348.255 112.152 348.447 112.408C348.655 112.648 348.919 112.84 349.239 112.984C349.559 113.128 349.959 113.2 350.439 113.2C350.791 113.2 351.167 113.16 351.567 113.08C351.967 113 352.335 112.904 352.671 112.792C353.071 112.664 353.463 112.52 353.847 112.36L354.567 114.064C354.151 114.272 353.703 114.456 353.223 114.616C352.807 114.76 352.327 114.888 351.783 115C351.239 115.112 350.663 115.168 350.055 115.168C349.127 115.168 348.335 115.032 347.679 114.76C347.023 114.472 346.487 114.072 346.071 113.56C345.655 113.048 345.351 112.432 345.159 111.712C344.967 110.992 344.871 110.192 344.871 109.312ZM350.439 104.632C349.911 104.632 349.471 104.76 349.119 105.016C348.783 105.256 348.511 105.576 348.303 105.976C348.095 106.36 347.943 106.8 347.847 107.296C347.767 107.776 347.719 108.264 347.703 108.76C348.471 108.728 349.119 108.632 349.647 108.472C350.191 108.296 350.631 108.088 350.967 107.848C351.303 107.592 351.543 107.32 351.687 107.032C351.847 106.744 351.927 106.456 351.927 106.168C351.927 105.704 351.791 105.336 351.519 105.064C351.247 104.776 350.887 104.632 350.439 104.632ZM363.268 120.304V108.952C363.268 107.992 363.204 107.192 363.076 106.552C362.948 105.896 362.812 105.368 362.668 104.968C362.492 104.504 362.3 104.128 362.092 103.84L364.252 102.976C364.444 103.168 364.62 103.408 364.78 103.696C364.908 103.936 365.036 104.232 365.164 104.584C365.292 104.92 365.388 105.32 365.452 105.784C365.724 104.824 366.156 104.096 366.748 103.6C367.34 103.104 368.164 102.856 369.22 102.856C369.972 102.856 370.62 103 371.164 103.288C371.724 103.56 372.18 103.96 372.532 104.488C372.9 105 373.172 105.624 373.348 106.36C373.524 107.096 373.612 107.912 373.612 108.808C373.612 109.72 373.476 110.568 373.204 111.352C372.932 112.12 372.54 112.784 372.028 113.344C371.532 113.904 370.932 114.344 370.228 114.664C369.524 114.984 368.74 115.144 367.876 115.144C367.572 115.144 367.26 115.128 366.94 115.096C366.636 115.064 366.324 115.032 366.004 115V119.824L363.268 120.304ZM368.764 104.776C368.364 104.776 367.996 104.912 367.66 105.184C367.324 105.456 367.028 105.816 366.772 106.264C366.532 106.712 366.34 107.216 366.196 107.776C366.068 108.336 366.004 108.912 366.004 109.504V112.96C366.164 113.008 366.404 113.064 366.724 113.128C367.044 113.192 367.324 113.224 367.564 113.224C368.172 113.224 368.676 113.12 369.076 112.912C369.476 112.704 369.796 112.416 370.036 112.048C370.276 111.68 370.444 111.24 370.54 110.728C370.636 110.216 370.684 109.656 370.684 109.048C370.684 108.488 370.668 107.952 370.636 107.44C370.604 106.928 370.516 106.472 370.372 106.072C370.244 105.672 370.052 105.36 369.796 105.136C369.54 104.896 369.196 104.776 368.764 104.776ZM378.581 115.096C377.669 115.096 376.997 114.848 376.565 114.352C376.133 113.84 375.917 113.192 375.917 112.408V98.08L378.653 97.576V112.144C378.653 112.512 378.725 112.768 378.869 112.912C379.013 113.056 379.221 113.128 379.493 113.128C379.653 113.128 379.805 113.12 379.949 113.104C380.109 113.088 380.253 113.064 380.381 113.032C380.525 113 380.653 112.968 380.765 112.936L381.101 114.664C380.893 114.744 380.661 114.816 380.405 114.88C380.181 114.944 379.917 114.992 379.613 115.024C379.309 115.072 378.965 115.096 378.581 115.096ZM381.949 109.312C381.949 108.24 382.093 107.296 382.381 106.48C382.685 105.664 383.093 104.984 383.605 104.44C384.133 103.88 384.749 103.464 385.453 103.192C386.157 102.904 386.917 102.76 387.733 102.76C388.453 102.76 389.061 102.848 389.557 103.024C390.069 103.2 390.485 103.44 390.805 103.744C391.125 104.048 391.357 104.408 391.501 104.824C391.661 105.24 391.741 105.688 391.741 106.168C391.741 106.744 391.581 107.296 391.261 107.824C390.941 108.336 390.477 108.792 389.869 109.192C389.277 109.576 388.557 109.888 387.709 110.128C386.861 110.352 385.909 110.472 384.853 110.488C384.901 110.856 384.973 111.208 385.069 111.544C385.181 111.864 385.333 112.152 385.525 112.408C385.733 112.648 385.997 112.84 386.317 112.984C386.637 113.128 387.037 113.2 387.517 113.2C387.869 113.2 388.245 113.16 388.645 113.08C389.045 113 389.413 112.904 389.749 112.792C390.149 112.664 390.541 112.52 390.925 112.36L391.645 114.064C391.229 114.272 390.781 114.456 390.301 114.616C389.885 114.76 389.405 114.888 388.861 115C388.317 115.112 387.741 115.168 387.133 115.168C386.205 115.168 385.413 115.032 384.757 114.76C384.101 114.472 383.565 114.072 383.149 113.56C382.733 113.048 382.429 112.432 382.237 111.712C382.045 110.992 381.949 110.192 381.949 109.312ZM387.517 104.632C386.989 104.632 386.549 104.76 386.197 105.016C385.861 105.256 385.589 105.576 385.381 105.976C385.173 106.36 385.021 106.8 384.925 107.296C384.845 107.776 384.797 108.264 384.781 108.76C385.549 108.728 386.197 108.632 386.725 108.472C387.269 108.296 387.709 108.088 388.045 107.848C388.381 107.592 388.621 107.32 388.765 107.032C388.925 106.744 389.005 106.456 389.005 106.168C389.005 105.704 388.869 105.336 388.597 105.064C388.325 104.776 387.965 104.632 387.517 104.632ZM396.533 115.096C395.685 115.096 395.037 114.848 394.589 114.352C394.141 113.84 393.917 113.184 393.917 112.384V103.048H396.653V112.144C396.653 112.512 396.709 112.76 396.821 112.888C396.933 113.016 397.101 113.08 397.325 113.08C397.389 113.08 397.453 113.08 397.517 113.08C397.597 113.08 397.669 113.072 397.733 113.056C397.797 113.056 397.869 113.048 397.949 113.032L398.237 114.76C398.125 114.824 397.981 114.88 397.805 114.928C397.661 114.976 397.477 115.016 397.253 115.048C397.045 115.08 396.805 115.096 396.533 115.096ZM395.333 97.72C395.845 97.72 396.237 97.872 396.509 98.176C396.781 98.48 396.917 98.872 396.917 99.352C396.917 99.832 396.773 100.232 396.485 100.552C396.213 100.872 395.805 101.032 395.261 101.032C394.749 101.032 394.349 100.88 394.061 100.576C393.789 100.256 393.653 99.872 393.653 99.424C393.653 98.928 393.789 98.52 394.061 98.2C394.349 97.88 394.773 97.72 395.333 97.72ZM407.594 115V107.248C407.594 106.576 407.474 106.04 407.234 105.64C406.994 105.224 406.586 105.016 406.01 105.016C405.642 105.016 405.282 105.112 404.93 105.304C404.594 105.48 404.29 105.744 404.018 106.096C403.746 106.448 403.522 106.88 403.346 107.392C403.186 107.888 403.106 108.448 403.106 109.072V115H400.37V108.952C400.37 107.992 400.306 107.192 400.178 106.552C400.05 105.896 399.914 105.368 399.77 104.968C399.594 104.504 399.402 104.128 399.194 103.84L401.354 102.976C401.514 103.152 401.674 103.368 401.834 103.624C401.962 103.848 402.09 104.128 402.218 104.464C402.346 104.784 402.45 105.152 402.53 105.568C402.946 104.608 403.546 103.92 404.33 103.504C405.114 103.072 405.938 102.856 406.802 102.856C408.034 102.856 408.922 103.232 409.466 103.984C410.026 104.72 410.306 105.72 410.306 106.984V115H407.594ZM428.107 115.192C428.075 115.176 428.003 115.104 427.891 114.976C427.779 114.832 427.651 114.64 427.507 114.4C427.379 114.16 427.251 113.864 427.123 113.512C426.995 113.144 426.915 112.72 426.883 112.24C426.611 113.2 426.171 113.928 425.563 114.424C424.971 114.904 424.163 115.144 423.139 115.144C422.387 115.144 421.731 115.008 421.171 114.736C420.627 114.448 420.171 114.048 419.803 113.536C419.435 113.008 419.163 112.376 418.987 111.64C418.811 110.904 418.723 110.088 418.723 109.192C418.723 108.28 418.859 107.44 419.131 106.672C419.419 105.888 419.811 105.216 420.307 104.656C420.819 104.096 421.427 103.656 422.131 103.336C422.835 103.016 423.611 102.856 424.459 102.856C424.747 102.856 425.051 102.872 425.371 102.904C425.707 102.936 426.035 102.976 426.355 103.024V97.6L429.091 98.08V109.216C429.091 110.176 429.147 110.976 429.259 111.616C429.371 112.24 429.499 112.752 429.643 113.152C429.787 113.536 429.915 113.816 430.027 113.992C430.155 114.168 430.227 114.28 430.243 114.328L428.107 115.192ZM423.595 113.2C423.995 113.2 424.363 113.064 424.699 112.792C425.035 112.52 425.323 112.168 425.563 111.736C425.819 111.288 426.011 110.784 426.139 110.224C426.283 109.664 426.355 109.088 426.355 108.496V105.04C426.195 104.992 425.955 104.936 425.635 104.872C425.315 104.808 425.027 104.776 424.771 104.776C424.163 104.776 423.659 104.88 423.259 105.088C422.875 105.296 422.563 105.584 422.323 105.952C422.083 106.32 421.915 106.76 421.819 107.272C421.723 107.784 421.675 108.344 421.675 108.952C421.675 109.512 421.691 110.048 421.723 110.56C421.755 111.072 421.835 111.528 421.963 111.928C422.107 112.312 422.307 112.624 422.563 112.864C422.819 113.088 423.163 113.2 423.595 113.2ZM431.59 109.312C431.59 108.24 431.734 107.296 432.022 106.48C432.326 105.664 432.734 104.984 433.246 104.44C433.774 103.88 434.39 103.464 435.094 103.192C435.798 102.904 436.558 102.76 437.374 102.76C438.094 102.76 438.702 102.848 439.198 103.024C439.71 103.2 440.126 103.44 440.446 103.744C440.766 104.048 440.998 104.408 441.142 104.824C441.302 105.24 441.382 105.688 441.382 106.168C441.382 106.744 441.222 107.296 440.902 107.824C440.582 108.336 440.118 108.792 439.51 109.192C438.918 109.576 438.198 109.888 437.35 110.128C436.502 110.352 435.55 110.472 434.494 110.488C434.542 110.856 434.614 111.208 434.71 111.544C434.822 111.864 434.974 112.152 435.166 112.408C435.374 112.648 435.638 112.84 435.958 112.984C436.278 113.128 436.678 113.2 437.158 113.2C437.51 113.2 437.886 113.16 438.286 113.08C438.686 113 439.054 112.904 439.39 112.792C439.79 112.664 440.182 112.52 440.566 112.36L441.286 114.064C440.87 114.272 440.422 114.456 439.942 114.616C439.526 114.76 439.046 114.888 438.502 115C437.958 115.112 437.382 115.168 436.774 115.168C435.846 115.168 435.054 115.032 434.398 114.76C433.742 114.472 433.206 114.072 432.79 113.56C432.374 113.048 432.07 112.432 431.878 111.712C431.686 110.992 431.59 110.192 431.59 109.312ZM437.158 104.632C436.63 104.632 436.19 104.76 435.838 105.016C435.502 105.256 435.23 105.576 435.022 105.976C434.814 106.36 434.662 106.8 434.566 107.296C434.486 107.776 434.438 108.264 434.422 108.76C435.19 108.728 435.838 108.632 436.366 108.472C436.91 108.296 437.35 108.088 437.686 107.848C438.022 107.592 438.262 107.32 438.406 107.032C438.566 106.744 438.646 106.456 438.646 106.168C438.646 105.704 438.51 105.336 438.238 105.064C437.966 104.776 437.606 104.632 437.158 104.632ZM449.891 98.752C450.003 98.752 450.259 98.752 450.659 98.752C451.059 98.736 451.507 98.728 452.003 98.728C452.499 98.728 452.995 98.728 453.491 98.728C453.987 98.712 454.395 98.704 454.715 98.704C456.571 98.704 457.979 99.072 458.939 99.808C459.915 100.544 460.403 101.584 460.403 102.928C460.403 103.712 460.187 104.416 459.755 105.04C459.323 105.664 458.723 106.168 457.955 106.552C458.915 106.92 459.643 107.44 460.139 108.112C460.651 108.784 460.907 109.56 460.907 110.44C460.907 111.816 460.387 112.928 459.347 113.776C458.307 114.608 456.731 115.024 454.619 115.024C454.187 115.024 453.723 115.024 453.227 115.024C452.731 115.024 452.259 115.016 451.811 115C451.363 115 450.963 115 450.611 115C450.275 115 450.035 115 449.891 115V98.752ZM452.747 112.96H454.811C455.899 112.96 456.675 112.72 457.139 112.24C457.619 111.744 457.859 111.128 457.859 110.392C457.859 110.056 457.803 109.728 457.691 109.408C457.595 109.088 457.419 108.8 457.163 108.544C456.907 108.288 456.563 108.088 456.131 107.944C455.715 107.784 455.187 107.704 454.547 107.704C454.163 107.704 453.819 107.704 453.515 107.704C453.227 107.704 452.971 107.712 452.747 107.728V112.96ZM452.747 105.664H454.595C455.603 105.664 456.323 105.432 456.755 104.968C457.187 104.504 457.403 103.936 457.403 103.264C457.403 102.96 457.355 102.656 457.259 102.352C457.163 102.048 456.995 101.776 456.755 101.536C456.531 101.296 456.219 101.104 455.819 100.96C455.435 100.816 454.947 100.744 454.355 100.744C454.003 100.744 453.691 100.744 453.419 100.744C453.163 100.744 452.939 100.752 452.747 100.768V105.664ZM462.621 109.312C462.621 108.24 462.765 107.296 463.053 106.48C463.357 105.664 463.765 104.984 464.277 104.44C464.805 103.88 465.421 103.464 466.125 103.192C466.829 102.904 467.589 102.76 468.405 102.76C469.125 102.76 469.733 102.848 470.229 103.024C470.741 103.2 471.157 103.44 471.477 103.744C471.797 104.048 472.029 104.408 472.173 104.824C472.333 105.24 472.413 105.688 472.413 106.168C472.413 106.744 472.253 107.296 471.933 107.824C471.613 108.336 471.149 108.792 470.541 109.192C469.949 109.576 469.229 109.888 468.381 110.128C467.533 110.352 466.581 110.472 465.525 110.488C465.573 110.856 465.645 111.208 465.741 111.544C465.853 111.864 466.005 112.152 466.197 112.408C466.405 112.648 466.669 112.84 466.989 112.984C467.309 113.128 467.709 113.2 468.189 113.2C468.541 113.2 468.917 113.16 469.317 113.08C469.717 113 470.085 112.904 470.421 112.792C470.821 112.664 471.213 112.52 471.597 112.36L472.317 114.064C471.901 114.272 471.453 114.456 470.973 114.616C470.557 114.76 470.077 114.888 469.533 115C468.989 115.112 468.413 115.168 467.805 115.168C466.877 115.168 466.085 115.032 465.429 114.76C464.773 114.472 464.237 114.072 463.821 113.56C463.405 113.048 463.101 112.432 462.909 111.712C462.717 110.992 462.621 110.192 462.621 109.312ZM468.189 104.632C467.661 104.632 467.221 104.76 466.869 105.016C466.533 105.256 466.261 105.576 466.053 105.976C465.845 106.36 465.693 106.8 465.597 107.296C465.517 107.776 465.469 108.264 465.453 108.76C466.221 108.728 466.869 108.632 467.397 108.472C467.941 108.296 468.381 108.088 468.717 107.848C469.053 107.592 469.293 107.32 469.437 107.032C469.597 106.744 469.677 106.456 469.677 106.168C469.677 105.704 469.541 105.336 469.269 105.064C468.997 104.776 468.637 104.632 468.189 104.632ZM480.037 105.544C479.749 105.544 479.461 105.616 479.173 105.76C478.885 105.904 478.629 106.104 478.405 106.36C478.181 106.6 477.997 106.896 477.853 107.248C477.709 107.6 477.637 107.992 477.637 108.424V115H474.901V108.952C474.901 107.992 474.837 107.192 474.709 106.552C474.581 105.896 474.445 105.368 474.301 104.968C474.125 104.504 473.933 104.128 473.725 103.84L475.885 102.976C476.029 103.152 476.181 103.368 476.341 103.624C476.469 103.848 476.597 104.112 476.725 104.416C476.853 104.72 476.957 105.08 477.037 105.496C477.357 104.568 477.821 103.904 478.429 103.504C479.037 103.088 479.725 102.88 480.493 102.88C480.861 102.88 481.205 102.928 481.525 103.024C481.845 103.104 481.997 103.144 481.981 103.144L481.213 105.808C481.229 105.808 481.133 105.768 480.925 105.688C480.733 105.592 480.437 105.544 480.037 105.544ZM488.896 105.544C488.608 105.544 488.32 105.616 488.032 105.76C487.744 105.904 487.488 106.104 487.264 106.36C487.04 106.6 486.856 106.896 486.712 107.248C486.568 107.6 486.496 107.992 486.496 108.424V115H483.76V108.952C483.76 107.992 483.696 107.192 483.568 106.552C483.44 105.896 483.304 105.368 483.16 104.968C482.984 104.504 482.792 104.128 482.584 103.84L484.744 102.976C484.888 103.152 485.04 103.368 485.2 103.624C485.328 103.848 485.456 104.112 485.584 104.416C485.712 104.72 485.816 105.08 485.896 105.496C486.216 104.568 486.68 103.904 487.288 103.504C487.896 103.088 488.584 102.88 489.352 102.88C489.72 102.88 490.064 102.928 490.384 103.024C490.704 103.104 490.856 103.144 490.84 103.144L490.072 105.808C490.088 105.808 489.992 105.768 489.784 105.688C489.592 105.592 489.296 105.544 488.896 105.544ZM502.172 110.152C502.172 110.632 502.204 111.072 502.268 111.472C502.348 111.872 502.428 112.272 502.508 112.672C502.604 113.056 502.692 113.448 502.772 113.848C502.852 114.248 502.892 114.688 502.892 115.168C502.892 116.864 502.46 118.128 501.596 118.96C500.732 119.792 499.564 120.208 498.092 120.208C497.612 120.208 497.132 120.16 496.652 120.064C496.172 119.984 495.724 119.888 495.308 119.776C494.908 119.664 494.564 119.552 494.276 119.44C493.988 119.328 493.796 119.248 493.7 119.2L494.372 117.112C494.596 117.208 494.844 117.304 495.116 117.4C495.404 117.512 495.692 117.616 495.98 117.712C496.284 117.808 496.596 117.888 496.916 117.952C497.236 118.016 497.548 118.048 497.852 118.048C498.748 118.048 499.396 117.776 499.796 117.232C500.196 116.704 500.396 116.016 500.396 115.168C500.396 114.4 500.236 113.608 499.916 112.792C499.468 113.64 498.868 114.248 498.116 114.616C497.38 114.968 496.604 115.144 495.788 115.144C494.524 115.144 493.62 114.776 493.076 114.04C492.548 113.304 492.284 112.296 492.284 111.016V103.048H495.02V110.944C495.02 111.616 495.14 112.144 495.38 112.528C495.62 112.912 496.028 113.104 496.604 113.104C496.908 113.104 497.228 113.016 497.564 112.84C497.916 112.664 498.228 112.424 498.5 112.12C498.788 111.8 499.02 111.424 499.196 110.992C499.388 110.544 499.484 110.064 499.484 109.552V103.048H502.292L502.172 110.152ZM516.187 102.76C518.027 102.76 519.363 103.304 520.195 104.392C521.027 105.48 521.443 106.976 521.443 108.88C521.443 109.776 521.331 110.616 521.107 111.4C520.883 112.168 520.539 112.84 520.075 113.416C519.627 113.976 519.059 114.424 518.371 114.76C517.683 115.08 516.883 115.24 515.971 115.24C515.059 115.24 514.267 115.104 513.595 114.832C512.939 114.544 512.395 114.136 511.963 113.608C511.531 113.08 511.211 112.44 511.003 111.688C510.811 110.936 510.715 110.088 510.715 109.144C510.715 108.232 510.827 107.392 511.051 106.624C511.275 105.84 511.611 105.168 512.059 104.608C512.523 104.032 513.099 103.584 513.787 103.264C514.475 102.928 515.275 102.76 516.187 102.76ZM515.947 104.776C515.483 104.776 515.099 104.88 514.795 105.088C514.507 105.296 514.275 105.592 514.099 105.976C513.939 106.344 513.827 106.784 513.763 107.296C513.699 107.792 513.667 108.328 513.667 108.904C513.667 109.496 513.699 110.056 513.763 110.584C513.843 111.112 513.979 111.576 514.171 111.976C514.363 112.36 514.619 112.664 514.939 112.888C515.275 113.112 515.699 113.224 516.211 113.224C516.675 113.224 517.051 113.12 517.339 112.912C517.643 112.704 517.875 112.416 518.035 112.048C518.211 111.664 518.331 111.224 518.395 110.728C518.459 110.232 518.491 109.696 518.491 109.12C518.491 108.528 518.451 107.968 518.371 107.44C518.307 106.912 518.179 106.448 517.987 106.048C517.795 105.648 517.531 105.336 517.195 105.112C516.875 104.888 516.459 104.776 515.947 104.776ZM530.937 103.048H533.673V109.216C533.673 110.176 533.729 110.984 533.841 111.64C533.969 112.28 534.105 112.8 534.249 113.2C534.425 113.68 534.617 114.056 534.825 114.328L532.689 115.192C532.497 115.016 532.321 114.792 532.161 114.52C532.033 114.296 531.897 114.024 531.753 113.704C531.625 113.368 531.537 112.976 531.489 112.528C531.057 113.472 530.449 114.144 529.665 114.544C528.881 114.944 528.065 115.144 527.217 115.144C525.953 115.144 525.049 114.776 524.505 114.04C523.977 113.304 523.713 112.296 523.713 111.016V103.048H526.449V110.968C526.449 111.64 526.569 112.168 526.809 112.552C527.049 112.936 527.457 113.128 528.033 113.128C528.385 113.128 528.729 113.032 529.065 112.84C529.417 112.632 529.729 112.344 530.001 111.976C530.289 111.608 530.513 111.168 530.673 110.656C530.849 110.128 530.937 109.544 530.937 108.904V103.048ZM543.339 120.304V108.952C543.339 107.992 543.275 107.192 543.146 106.552C543.019 105.896 542.883 105.368 542.739 104.968C542.563 104.504 542.371 104.128 542.163 103.84L544.323 102.976C544.515 103.168 544.691 103.408 544.851 103.696C544.979 103.936 545.107 104.232 545.235 104.584C545.363 104.92 545.459 105.32 545.523 105.784C545.795 104.824 546.227 104.096 546.819 103.6C547.411 103.104 548.235 102.856 549.291 102.856C550.043 102.856 550.691 103 551.235 103.288C551.795 103.56 552.251 103.96 552.603 104.488C552.971 105 553.243 105.624 553.419 106.36C553.595 107.096 553.682 107.912 553.682 108.808C553.682 109.72 553.547 110.568 553.275 111.352C553.003 112.12 552.611 112.784 552.099 113.344C551.603 113.904 551.003 114.344 550.299 114.664C549.595 114.984 548.811 115.144 547.947 115.144C547.643 115.144 547.331 115.128 547.011 115.096C546.707 115.064 546.395 115.032 546.075 115V119.824L543.339 120.304ZM548.835 104.776C548.435 104.776 548.067 104.912 547.73 105.184C547.395 105.456 547.099 105.816 546.843 106.264C546.603 106.712 546.411 107.216 546.267 107.776C546.139 108.336 546.075 108.912 546.075 109.504V112.96C546.235 113.008 546.475 113.064 546.795 113.128C547.115 113.192 547.395 113.224 547.635 113.224C548.243 113.224 548.747 113.12 549.147 112.912C549.547 112.704 549.867 112.416 550.107 112.048C550.347 111.68 550.515 111.24 550.611 110.728C550.707 110.216 550.755 109.656 550.755 109.048C550.755 108.488 550.739 107.952 550.707 107.44C550.675 106.928 550.587 106.472 550.443 106.072C550.315 105.672 550.123 105.36 549.867 105.136C549.611 104.896 549.267 104.776 548.835 104.776ZM560.859 102.76C562.699 102.76 564.035 103.304 564.867 104.392C565.699 105.48 566.115 106.976 566.115 108.88C566.115 109.776 566.003 110.616 565.779 111.4C565.555 112.168 565.211 112.84 564.747 113.416C564.299 113.976 563.731 114.424 563.043 114.76C562.355 115.08 561.555 115.24 560.643 115.24C559.731 115.24 558.939 115.104 558.267 114.832C557.611 114.544 557.067 114.136 556.635 113.608C556.203 113.08 555.883 112.44 555.675 111.688C555.483 110.936 555.387 110.088 555.387 109.144C555.387 108.232 555.499 107.392 555.723 106.624C555.947 105.84 556.283 105.168 556.731 104.608C557.195 104.032 557.771 103.584 558.459 103.264C559.147 102.928 559.947 102.76 560.859 102.76ZM560.619 104.776C560.155 104.776 559.771 104.88 559.467 105.088C559.179 105.296 558.947 105.592 558.771 105.976C558.611 106.344 558.499 106.784 558.435 107.296C558.371 107.792 558.339 108.328 558.339 108.904C558.339 109.496 558.371 110.056 558.435 110.584C558.515 111.112 558.651 111.576 558.843 111.976C559.035 112.36 559.291 112.664 559.611 112.888C559.947 113.112 560.371 113.224 560.883 113.224C561.347 113.224 561.723 113.12 562.011 112.912C562.315 112.704 562.547 112.416 562.707 112.048C562.883 111.664 563.003 111.224 563.067 110.728C563.131 110.232 563.163 109.696 563.163 109.12C563.163 108.528 563.123 107.968 563.043 107.44C562.979 106.912 562.851 106.448 562.659 106.048C562.467 105.648 562.203 105.336 561.867 105.112C561.547 104.888 561.131 104.776 560.619 104.776ZM572.033 102.76C572.497 102.76 572.953 102.808 573.401 102.904C573.849 103 574.249 103.112 574.601 103.24C575.017 103.384 575.401 103.536 575.753 103.696L574.937 105.568C574.617 105.424 574.297 105.296 573.977 105.184C573.705 105.088 573.401 105 573.065 104.92C572.745 104.824 572.425 104.776 572.105 104.776C571.737 104.776 571.417 104.864 571.145 105.04C570.889 105.216 570.761 105.48 570.761 105.832C570.761 106.744 571.425 107.456 572.753 107.968C573.249 108.16 573.697 108.368 574.097 108.592C574.497 108.8 574.833 109.048 575.105 109.336C575.393 109.624 575.609 109.96 575.753 110.344C575.897 110.712 575.969 111.152 575.969 111.664C575.969 112.112 575.873 112.552 575.681 112.984C575.505 113.416 575.233 113.8 574.865 114.136C574.513 114.472 574.073 114.744 573.545 114.952C573.033 115.144 572.449 115.24 571.793 115.24C571.265 115.24 570.745 115.176 570.233 115.048C569.721 114.936 569.257 114.808 568.841 114.664C568.441 114.52 568.121 114.384 567.881 114.256L567.521 114.088L568.409 112.072L568.721 112.24C568.929 112.368 569.193 112.504 569.513 112.648C569.833 112.792 570.177 112.928 570.545 113.056C570.913 113.168 571.249 113.224 571.553 113.224C572.113 113.224 572.529 113.112 572.801 112.888C573.073 112.664 573.209 112.368 573.209 112C573.209 111.584 573.057 111.208 572.753 110.872C572.465 110.52 572.025 110.232 571.433 110.008C570.201 109.544 569.313 109.016 568.769 108.424C568.241 107.832 567.977 107.064 567.977 106.12C567.977 105.672 568.081 105.248 568.289 104.848C568.497 104.432 568.777 104.072 569.129 103.768C569.497 103.448 569.929 103.2 570.425 103.024C570.921 102.848 571.457 102.76 572.033 102.76ZM577.676 109.312C577.676 108.24 577.82 107.296 578.108 106.48C578.412 105.664 578.82 104.984 579.332 104.44C579.86 103.88 580.476 103.464 581.18 103.192C581.884 102.904 582.644 102.76 583.46 102.76C584.18 102.76 584.788 102.848 585.284 103.024C585.796 103.2 586.212 103.44 586.532 103.744C586.852 104.048 587.084 104.408 587.228 104.824C587.388 105.24 587.468 105.688 587.468 106.168C587.468 106.744 587.308 107.296 586.988 107.824C586.668 108.336 586.204 108.792 585.596 109.192C585.004 109.576 584.284 109.888 583.436 110.128C582.588 110.352 581.636 110.472 580.58 110.488C580.628 110.856 580.7 111.208 580.796 111.544C580.908 111.864 581.06 112.152 581.252 112.408C581.46 112.648 581.724 112.84 582.044 112.984C582.364 113.128 582.764 113.2 583.244 113.2C583.596 113.2 583.972 113.16 584.372 113.08C584.772 113 585.14 112.904 585.476 112.792C585.876 112.664 586.268 112.52 586.652 112.36L587.372 114.064C586.956 114.272 586.508 114.456 586.028 114.616C585.612 114.76 585.132 114.888 584.588 115C584.044 115.112 583.468 115.168 582.86 115.168C581.932 115.168 581.14 115.032 580.484 114.76C579.828 114.472 579.292 114.072 578.876 113.56C578.46 113.048 578.156 112.432 577.964 111.712C577.772 110.992 577.676 110.192 577.676 109.312ZM583.244 104.632C582.716 104.632 582.276 104.76 581.924 105.016C581.588 105.256 581.316 105.576 581.108 105.976C580.9 106.36 580.748 106.8 580.652 107.296C580.572 107.776 580.524 108.264 580.508 108.76C581.276 108.728 581.924 108.632 582.452 108.472C582.996 108.296 583.436 108.088 583.772 107.848C584.108 107.592 584.348 107.32 584.492 107.032C584.652 106.744 584.732 106.456 584.732 106.168C584.732 105.704 584.596 105.336 584.324 105.064C584.052 104.776 583.692 104.632 583.244 104.632ZM595.092 105.544C594.804 105.544 594.516 105.616 594.228 105.76C593.94 105.904 593.684 106.104 593.46 106.36C593.236 106.6 593.052 106.896 592.908 107.248C592.764 107.6 592.692 107.992 592.692 108.424V115H589.956V108.952C589.956 107.992 589.892 107.192 589.764 106.552C589.636 105.896 589.5 105.368 589.356 104.968C589.18 104.504 588.988 104.128 588.78 103.84L590.94 102.976C591.084 103.152 591.236 103.368 591.396 103.624C591.524 103.848 591.652 104.112 591.78 104.416C591.908 104.72 592.012 105.08 592.092 105.496C592.412 104.568 592.876 103.904 593.484 103.504C594.092 103.088 594.78 102.88 595.548 102.88C595.916 102.88 596.26 102.928 596.58 103.024C596.9 103.104 597.052 103.144 597.036 103.144L596.268 105.808C596.284 105.808 596.188 105.768 595.98 105.688C595.788 105.592 595.492 105.544 595.092 105.544ZM603.396 103.048H605.556L606.036 100.24L608.292 99.736V103.048H611.244L610.908 104.992H608.292V112.096C608.292 112.512 608.404 112.784 608.628 112.912C608.852 113.024 609.1 113.08 609.372 113.08C609.596 113.08 609.82 113.064 610.044 113.032C610.268 113 610.468 112.96 610.644 112.912C610.852 112.864 611.052 112.808 611.244 112.744L611.7 114.544L611.484 114.616C611.34 114.68 611.124 114.752 610.836 114.832C610.564 114.896 610.236 114.952 609.852 115C609.484 115.064 609.076 115.096 608.628 115.096C608.18 115.096 607.764 115.048 607.38 114.952C607.012 114.856 606.692 114.704 606.42 114.496C606.148 114.272 605.932 113.992 605.772 113.656C605.628 113.32 605.556 112.904 605.556 112.408V104.992H603.396V103.048ZM612.317 109.312C612.317 108.24 612.461 107.296 612.749 106.48C613.053 105.664 613.461 104.984 613.973 104.44C614.501 103.88 615.117 103.464 615.821 103.192C616.525 102.904 617.285 102.76 618.101 102.76C618.821 102.76 619.429 102.848 619.925 103.024C620.437 103.2 620.853 103.44 621.173 103.744C621.493 104.048 621.725 104.408 621.869 104.824C622.029 105.24 622.109 105.688 622.109 106.168C622.109 106.744 621.949 107.296 621.629 107.824C621.309 108.336 620.845 108.792 620.237 109.192C619.645 109.576 618.925 109.888 618.077 110.128C617.229 110.352 616.277 110.472 615.221 110.488C615.269 110.856 615.341 111.208 615.437 111.544C615.549 111.864 615.701 112.152 615.893 112.408C616.101 112.648 616.365 112.84 616.685 112.984C617.005 113.128 617.405 113.2 617.885 113.2C618.237 113.2 618.613 113.16 619.013 113.08C619.413 113 619.781 112.904 620.117 112.792C620.517 112.664 620.909 112.52 621.293 112.36L622.013 114.064C621.597 114.272 621.149 114.456 620.669 114.616C620.253 114.76 619.773 114.888 619.229 115C618.685 115.112 618.109 115.168 617.501 115.168C616.573 115.168 615.781 115.032 615.125 114.76C614.469 114.472 613.933 114.072 613.517 113.56C613.101 113.048 612.797 112.432 612.605 111.712C612.413 110.992 612.317 110.192 612.317 109.312ZM617.885 104.632C617.357 104.632 616.917 104.76 616.565 105.016C616.229 105.256 615.957 105.576 615.749 105.976C615.541 106.36 615.389 106.8 615.293 107.296C615.213 107.776 615.165 108.264 615.149 108.76C615.917 108.728 616.565 108.632 617.093 108.472C617.637 108.296 618.077 108.088 618.413 107.848C618.749 107.592 618.989 107.32 619.133 107.032C619.293 106.744 619.373 106.456 619.373 106.168C619.373 105.704 619.237 105.336 618.965 105.064C618.693 104.776 618.333 104.632 617.885 104.632ZM627.908 102.76C628.372 102.76 628.828 102.808 629.276 102.904C629.724 103 630.124 103.112 630.476 103.24C630.892 103.384 631.276 103.536 631.628 103.696L630.812 105.568C630.492 105.424 630.172 105.296 629.852 105.184C629.58 105.088 629.276 105 628.94 104.92C628.62 104.824 628.3 104.776 627.98 104.776C627.612 104.776 627.292 104.864 627.02 105.04C626.764 105.216 626.636 105.48 626.636 105.832C626.636 106.744 627.3 107.456 628.628 107.968C629.124 108.16 629.572 108.368 629.972 108.592C630.372 108.8 630.708 109.048 630.98 109.336C631.268 109.624 631.484 109.96 631.628 110.344C631.772 110.712 631.844 111.152 631.844 111.664C631.844 112.112 631.748 112.552 631.556 112.984C631.38 113.416 631.108 113.8 630.74 114.136C630.388 114.472 629.948 114.744 629.42 114.952C628.908 115.144 628.324 115.24 627.668 115.24C627.14 115.24 626.62 115.176 626.108 115.048C625.596 114.936 625.132 114.808 624.716 114.664C624.316 114.52 623.996 114.384 623.756 114.256L623.396 114.088L624.284 112.072L624.596 112.24C624.804 112.368 625.068 112.504 625.388 112.648C625.708 112.792 626.052 112.928 626.42 113.056C626.788 113.168 627.124 113.224 627.428 113.224C627.988 113.224 628.404 113.112 628.676 112.888C628.948 112.664 629.084 112.368 629.084 112C629.084 111.584 628.932 111.208 628.628 110.872C628.34 110.52 627.9 110.232 627.308 110.008C626.076 109.544 625.188 109.016 624.644 108.424C624.116 107.832 623.852 107.064 623.852 106.12C623.852 105.672 623.956 105.248 624.164 104.848C624.372 104.432 624.652 104.072 625.004 103.768C625.372 103.448 625.804 103.2 626.3 103.024C626.796 102.848 627.332 102.76 627.908 102.76ZM650.036 120.328L647.3 119.824V113.512C646.98 114.056 646.556 114.464 646.028 114.736C645.5 115.008 644.852 115.144 644.084 115.144C643.332 115.144 642.676 115.008 642.116 114.736C641.572 114.448 641.116 114.048 640.748 113.536C640.38 113.008 640.108 112.376 639.932 111.64C639.756 110.904 639.668 110.088 639.668 109.192C639.668 108.28 639.804 107.44 640.076 106.672C640.364 105.888 640.756 105.216 641.252 104.656C641.764 104.096 642.372 103.656 643.076 103.336C643.78 103.016 644.556 102.856 645.404 102.856C645.884 102.856 646.388 102.896 646.916 102.976C647.46 103.056 647.964 103.136 648.428 103.216C648.956 103.312 649.492 103.424 650.036 103.552V120.328ZM644.54 113.2C644.924 113.2 645.284 113.072 645.62 112.816C645.956 112.544 646.244 112.192 646.484 111.76C646.74 111.312 646.94 110.808 647.084 110.248C647.228 109.672 647.3 109.088 647.3 108.496V105.04C647.14 104.992 646.9 104.936 646.58 104.872C646.26 104.808 645.972 104.776 645.716 104.776C645.108 104.776 644.604 104.88 644.204 105.088C643.82 105.296 643.508 105.584 643.268 105.952C643.028 106.32 642.86 106.76 642.764 107.272C642.668 107.784 642.62 108.344 642.62 108.952C642.62 109.512 642.636 110.048 642.668 110.56C642.7 111.072 642.78 111.528 642.908 111.928C643.052 112.312 643.252 112.624 643.508 112.864C643.764 113.088 644.108 113.2 644.54 113.2ZM660.266 103.048H663.002V109.216C663.002 110.176 663.058 110.984 663.17 111.64C663.298 112.28 663.434 112.8 663.578 113.2C663.754 113.68 663.946 114.056 664.154 114.328L662.018 115.192C661.826 115.016 661.65 114.792 661.49 114.52C661.362 114.296 661.226 114.024 661.082 113.704C660.954 113.368 660.866 112.976 660.818 112.528C660.386 113.472 659.778 114.144 658.994 114.544C658.21 114.944 657.394 115.144 656.546 115.144C655.282 115.144 654.378 114.776 653.834 114.04C653.306 113.304 653.042 112.296 653.042 111.016V103.048H655.778V110.968C655.778 111.64 655.898 112.168 656.138 112.552C656.378 112.936 656.786 113.128 657.362 113.128C657.714 113.128 658.058 113.032 658.394 112.84C658.746 112.632 659.058 112.344 659.33 111.976C659.618 111.608 659.842 111.168 660.002 110.656C660.178 110.128 660.266 109.544 660.266 108.904V103.048ZM665.613 109.312C665.613 108.24 665.757 107.296 666.045 106.48C666.349 105.664 666.757 104.984 667.269 104.44C667.797 103.88 668.413 103.464 669.117 103.192C669.821 102.904 670.581 102.76 671.397 102.76C672.117 102.76 672.725 102.848 673.221 103.024C673.733 103.2 674.149 103.44 674.469 103.744C674.789 104.048 675.021 104.408 675.165 104.824C675.325 105.24 675.405 105.688 675.405 106.168C675.405 106.744 675.245 107.296 674.925 107.824C674.605 108.336 674.141 108.792 673.533 109.192C672.941 109.576 672.221 109.888 671.373 110.128C670.525 110.352 669.573 110.472 668.517 110.488C668.565 110.856 668.637 111.208 668.733 111.544C668.845 111.864 668.997 112.152 669.189 112.408C669.397 112.648 669.661 112.84 669.981 112.984C670.301 113.128 670.701 113.2 671.181 113.2C671.533 113.2 671.909 113.16 672.309 113.08C672.709 113 673.077 112.904 673.413 112.792C673.813 112.664 674.205 112.52 674.589 112.36L675.309 114.064C674.893 114.272 674.445 114.456 673.965 114.616C673.549 114.76 673.069 114.888 672.525 115C671.981 115.112 671.405 115.168 670.797 115.168C669.869 115.168 669.077 115.032 668.421 114.76C667.765 114.472 667.229 114.072 666.813 113.56C666.397 113.048 666.093 112.432 665.901 111.712C665.709 110.992 665.613 110.192 665.613 109.312ZM671.181 104.632C670.653 104.632 670.213 104.76 669.861 105.016C669.525 105.256 669.253 105.576 669.045 105.976C668.837 106.36 668.685 106.8 668.589 107.296C668.509 107.776 668.461 108.264 668.445 108.76C669.213 108.728 669.861 108.632 670.389 108.472C670.933 108.296 671.373 108.088 671.709 107.848C672.045 107.592 672.285 107.32 672.429 107.032C672.589 106.744 672.669 106.456 672.669 106.168C672.669 105.704 672.533 105.336 672.261 105.064C671.989 104.776 671.629 104.632 671.181 104.632ZM681.205 102.76C681.669 102.76 682.125 102.808 682.573 102.904C683.021 103 683.421 103.112 683.773 103.24C684.189 103.384 684.573 103.536 684.925 103.696L684.109 105.568C683.789 105.424 683.469 105.296 683.149 105.184C682.877 105.088 682.573 105 682.237 104.92C681.917 104.824 681.597 104.776 681.277 104.776C680.909 104.776 680.589 104.864 680.317 105.04C680.061 105.216 679.933 105.48 679.933 105.832C679.933 106.744 680.597 107.456 681.925 107.968C682.421 108.16 682.869 108.368 683.269 108.592C683.669 108.8 684.005 109.048 684.277 109.336C684.565 109.624 684.781 109.96 684.925 110.344C685.069 110.712 685.141 111.152 685.141 111.664C685.141 112.112 685.045 112.552 684.853 112.984C684.677 113.416 684.405 113.8 684.037 114.136C683.685 114.472 683.245 114.744 682.717 114.952C682.205 115.144 681.621 115.24 680.965 115.24C680.437 115.24 679.917 115.176 679.405 115.048C678.893 114.936 678.429 114.808 678.013 114.664C677.613 114.52 677.293 114.384 677.053 114.256L676.693 114.088L677.581 112.072L677.893 112.24C678.101 112.368 678.365 112.504 678.685 112.648C679.005 112.792 679.349 112.928 679.717 113.056C680.085 113.168 680.421 113.224 680.725 113.224C681.285 113.224 681.701 113.112 681.973 112.888C682.245 112.664 682.381 112.368 682.381 112C682.381 111.584 682.229 111.208 681.925 110.872C681.637 110.52 681.197 110.232 680.605 110.008C679.373 109.544 678.485 109.016 677.941 108.424C677.413 107.832 677.149 107.064 677.149 106.12C677.149 105.672 677.253 105.248 677.461 104.848C677.669 104.432 677.949 104.072 678.301 103.768C678.669 103.448 679.101 103.2 679.597 103.024C680.093 102.848 680.629 102.76 681.205 102.76ZM686.248 103.048H688.408L688.888 100.24L691.144 99.736V103.048H694.096L693.76 104.992H691.144V112.096C691.144 112.512 691.256 112.784 691.48 112.912C691.704 113.024 691.952 113.08 692.224 113.08C692.448 113.08 692.672 113.064 692.896 113.032C693.12 113 693.32 112.96 693.496 112.912C693.704 112.864 693.904 112.808 694.096 112.744L694.552 114.544L694.336 114.616C694.192 114.68 693.976 114.752 693.688 114.832C693.416 114.896 693.088 114.952 692.704 115C692.336 115.064 691.928 115.096 691.48 115.096C691.032 115.096 690.616 115.048 690.232 114.952C689.864 114.856 689.544 114.704 689.272 114.496C689 114.272 688.784 113.992 688.624 113.656C688.48 113.32 688.408 112.904 688.408 112.408V104.992H686.248V103.048ZM698.76 115.096C697.912 115.096 697.264 114.848 696.816 114.352C696.368 113.84 696.144 113.184 696.144 112.384V103.048H698.88V112.144C698.88 112.512 698.936 112.76 699.048 112.888C699.16 113.016 699.328 113.08 699.552 113.08C699.616 113.08 699.68 113.08 699.744 113.08C699.824 113.08 699.896 113.072 699.96 113.056C700.024 113.056 700.096 113.048 700.176 113.032L700.464 114.76C700.352 114.824 700.208 114.88 700.032 114.928C699.888 114.976 699.704 115.016 699.48 115.048C699.272 115.08 699.032 115.096 698.76 115.096ZM697.56 97.72C698.072 97.72 698.464 97.872 698.736 98.176C699.008 98.48 699.144 98.872 699.144 99.352C699.144 99.832 699 100.232 698.712 100.552C698.44 100.872 698.032 101.032 697.488 101.032C696.976 101.032 696.576 100.88 696.288 100.576C696.016 100.256 695.88 99.872 695.88 99.424C695.88 98.928 696.016 98.52 696.288 98.2C696.576 97.88 697 97.72 697.56 97.72ZM707.132 102.76C708.972 102.76 710.308 103.304 711.14 104.392C711.972 105.48 712.388 106.976 712.388 108.88C712.388 109.776 712.276 110.616 712.052 111.4C711.828 112.168 711.484 112.84 711.02 113.416C710.572 113.976 710.004 114.424 709.316 114.76C708.628 115.08 707.828 115.24 706.916 115.24C706.004 115.24 705.212 115.104 704.54 114.832C703.884 114.544 703.34 114.136 702.908 113.608C702.476 113.08 702.156 112.44 701.948 111.688C701.756 110.936 701.66 110.088 701.66 109.144C701.66 108.232 701.772 107.392 701.996 106.624C702.22 105.84 702.556 105.168 703.004 104.608C703.468 104.032 704.044 103.584 704.732 103.264C705.42 102.928 706.22 102.76 707.132 102.76ZM706.892 104.776C706.428 104.776 706.044 104.88 705.74 105.088C705.452 105.296 705.22 105.592 705.044 105.976C704.884 106.344 704.772 106.784 704.708 107.296C704.644 107.792 704.612 108.328 704.612 108.904C704.612 109.496 704.644 110.056 704.708 110.584C704.788 111.112 704.924 111.576 705.116 111.976C705.308 112.36 705.564 112.664 705.884 112.888C706.22 113.112 706.644 113.224 707.156 113.224C707.62 113.224 707.996 113.12 708.284 112.912C708.588 112.704 708.82 112.416 708.98 112.048C709.156 111.664 709.276 111.224 709.34 110.728C709.404 110.232 709.436 109.696 709.436 109.12C709.436 108.528 709.396 107.968 709.316 107.44C709.252 106.912 709.124 106.448 708.932 106.048C708.74 105.648 708.476 105.336 708.14 105.112C707.82 104.888 707.404 104.776 706.892 104.776ZM722.219 115V107.248C722.219 106.576 722.099 106.04 721.859 105.64C721.619 105.224 721.211 105.016 720.635 105.016C720.267 105.016 719.907 105.112 719.555 105.304C719.219 105.48 718.915 105.744 718.643 106.096C718.371 106.448 718.147 106.88 717.971 107.392C717.811 107.888 717.731 108.448 717.731 109.072V115H714.995V108.952C714.995 107.992 714.931 107.192 714.803 106.552C714.675 105.896 714.539 105.368 714.395 104.968C714.219 104.504 714.027 104.128 713.819 103.84L715.979 102.976C716.139 103.152 716.299 103.368 716.459 103.624C716.587 103.848 716.715 104.128 716.843 104.464C716.971 104.784 717.075 105.152 717.155 105.568C717.571 104.608 718.171 103.92 718.955 103.504C719.739 103.072 720.563 102.856 721.427 102.856C722.659 102.856 723.547 103.232 724.091 103.984C724.651 104.72 724.931 105.72 724.931 106.984V115H722.219ZM731.479 102.76C731.943 102.76 732.399 102.808 732.847 102.904C733.295 103 733.695 103.112 734.047 103.24C734.463 103.384 734.847 103.536 735.199 103.696L734.383 105.568C734.063 105.424 733.743 105.296 733.423 105.184C733.151 105.088 732.847 105 732.511 104.92C732.191 104.824 731.871 104.776 731.551 104.776C731.183 104.776 730.863 104.864 730.591 105.04C730.335 105.216 730.207 105.48 730.207 105.832C730.207 106.744 730.871 107.456 732.199 107.968C732.695 108.16 733.143 108.368 733.543 108.592C733.943 108.8 734.279 109.048 734.551 109.336C734.839 109.624 735.055 109.96 735.199 110.344C735.343 110.712 735.415 111.152 735.415 111.664C735.415 112.112 735.319 112.552 735.127 112.984C734.951 113.416 734.679 113.8 734.311 114.136C733.959 114.472 733.519 114.744 732.991 114.952C732.479 115.144 731.895 115.24 731.239 115.24C730.711 115.24 730.191 115.176 729.679 115.048C729.167 114.936 728.703 114.808 728.287 114.664C727.887 114.52 727.567 114.384 727.327 114.256L726.967 114.088L727.855 112.072L728.167 112.24C728.375 112.368 728.639 112.504 728.959 112.648C729.279 112.792 729.623 112.928 729.991 113.056C730.359 113.168 730.695 113.224 730.999 113.224C731.559 113.224 731.975 113.112 732.247 112.888C732.519 112.664 732.655 112.368 732.655 112C732.655 111.584 732.503 111.208 732.199 110.872C731.911 110.52 731.471 110.232 730.879 110.008C729.647 109.544 728.759 109.016 728.215 108.424C727.687 107.832 727.423 107.064 727.423 106.12C727.423 105.672 727.527 105.248 727.735 104.848C727.943 104.432 728.223 104.072 728.575 103.768C728.943 103.448 729.375 103.2 729.871 103.024C730.367 102.848 730.903 102.76 731.479 102.76Z" fill="#454545"/>
<defs>
<filter id="filter0_i_39_895" x="0" y="-16" width="192" height="213" filterUnits="userSpaceOnUse" color-interpolation-filters="sRGB">
<feFlood flood-opacity="0" result="BackgroundImageFix"/>
<feBlend mode="normal" in="SourceGraphic" in2="BackgroundImageFix" result="shape"/>
<feColorMatrix in="SourceAlpha" type="matrix" values="0 0 0 0 0 0 0 0 0 0 0 0 0 0 0 0 0 0 127 0" result="hardAlpha"/>
<feOffset dy="-21"/>
<feGaussianBlur stdDeviation="8"/>
<feComposite in2="hardAlpha" operator="arithmetic" k2="-1" k3="1"/>
<feColorMatrix type="matrix" values="0 0 0 0 0 0 0 0 0 0 0 0 0 0 0 0 0 0 0.25 0"/>
<feBlend mode="normal" in2="shape" result="effect1_innerShadow_39_895"/>
</filter>
</defs>
</svg>
